<?xml version="1.0" encoding="utf-8" standalone="no"?>
<!DOCTYPE svg PUBLIC "-//W3C//DTD SVG 1.1//EN"
  "http://www.w3.org/Graphics/SVG/1.1/DTD/svg11.dtd">
<svg xmlns:xlink="http://www.w3.org/1999/xlink" width="728.399084pt" height="454.79952pt" viewBox="0 0 728.399084 454.79952" xmlns="http://www.w3.org/2000/svg" version="1.1">
 <metadata>
  <rdf:RDF xmlns:dc="http://purl.org/dc/elements/1.1/" xmlns:cc="http://creativecommons.org/ns#" xmlns:rdf="http://www.w3.org/1999/02/22-rdf-syntax-ns#">
   <cc:Work>
    <dc:type rdf:resource="http://purl.org/dc/dcmitype/StillImage"/>
    <dc:format>image/svg+xml</dc:format>
    <dc:creator>
     <cc:Agent>
      <dc:title>otg-lab</dc:title>
     </cc:Agent>
    </dc:creator>
   </cc:Work>
  </rdf:RDF>
 </metadata>
 <defs>
  <style type="text/css">*{stroke-linejoin: round; stroke-linecap: butt}</style>
 </defs>
 <g id="figure_1">
  <g id="patch_1">
   <path d="M 0 454.79952
L 728.399084 454.79952
L 728.399084 0
L 0 0
z
" style="fill: #ffffff"/>
  </g>
  <g id="axes_1">
   <g id="patch_2">
    <path d="M 41.25 418.069832
L 699.042826 418.069832
L 699.042826 21.935625
L 41.25 21.935625
z
" style="fill: #ffffff"/>
   </g>
   <g id="matplotlib.axis_1">
    <g id="xtick_1">
     <g id="line2d_1">
      <path d="M 107.312464 418.069832
L 107.312464 21.935625
" clip-path="url(#p082f020ac7)" style="fill: none; stroke: #e5e7eb; stroke-opacity: 0.3; stroke-width: 0.8; stroke-linecap: square"/>
     </g>
     <g id="line2d_2">
      <defs>
       <path id="m57b1426ba8" d="M 0 0
L 0 3.5
" style="stroke: #4b5563; stroke-width: 0.8"/>
      </defs>
      <g>
       <use xlink:href="#m57b1426ba8" x="107.312464" y="418.069832" style="fill: #4b5563; stroke: #4b5563; stroke-width: 0.8"/>
      </g>
     </g>
     <g id="text_1">
      <!-- 10 -->
      <g style="fill: #4b5563" transform="translate(101.751526 432.227645) scale(0.1 -0.1)">
       <defs>
        <path id="ArialUnicodeMS-31" d="M 2400 0
L 1838 0
L 1838 3584
Q 1416 3184 709 2906
L 709 3450
Q 1681 3916 2034 4603
L 2400 4603
L 2400 0
z
" transform="scale(0.015625)"/>
        <path id="ArialUnicodeMS-30" d="M 1778 4603
Q 3272 4603 3272 2259
Q 3272 1075 2886 498
Q 2500 -78 1778 -78
Q 288 -78 288 2259
Q 288 3444 673 4023
Q 1059 4603 1778 4603
z
M 1778 384
Q 2231 384 2462 823
Q 2694 1263 2694 2259
Q 2694 2953 2592 3351
Q 2491 3750 2286 3945
Q 2081 4141 1772 4141
Q 1319 4141 1091 3694
Q 863 3247 863 2259
Q 863 1575 966 1175
Q 1069 775 1272 579
Q 1475 384 1778 384
z
" transform="scale(0.015625)"/>
       </defs>
       <use xlink:href="#ArialUnicodeMS-31"/>
       <use xlink:href="#ArialUnicodeMS-30" x="55.615234"/>
      </g>
     </g>
    </g>
    <g id="xtick_2">
     <g id="line2d_3">
      <path d="M 217.41657 418.069832
L 217.41657 21.935625
" clip-path="url(#p082f020ac7)" style="fill: none; stroke: #e5e7eb; stroke-opacity: 0.3; stroke-width: 0.8; stroke-linecap: square"/>
     </g>
     <g id="line2d_4">
      <g>
       <use xlink:href="#m57b1426ba8" x="217.41657" y="418.069832" style="fill: #4b5563; stroke: #4b5563; stroke-width: 0.8"/>
      </g>
     </g>
     <g id="text_2">
      <!-- 15 -->
      <g style="fill: #4b5563" transform="translate(211.855632 432.227645) scale(0.1 -0.1)">
       <defs>
        <path id="ArialUnicodeMS-35" d="M 1013 2753
Q 1431 3041 1881 3041
Q 2453 3041 2878 2636
Q 3303 2231 3303 1556
Q 3303 875 2872 398
Q 2441 -78 1741 -78
Q 1169 -78 750 245
Q 331 569 269 1203
L 856 1247
Q 928 813 1162 598
Q 1397 384 1741 384
Q 2169 384 2434 707
Q 2700 1031 2700 1503
Q 2700 1984 2428 2262
Q 2156 2541 1728 2541
Q 1188 2541 897 2100
L 366 2163
L 813 4519
L 3084 4519
L 3084 3975
L 1259 3975
L 1013 2753
z
" transform="scale(0.015625)"/>
       </defs>
       <use xlink:href="#ArialUnicodeMS-31"/>
       <use xlink:href="#ArialUnicodeMS-35" x="55.615234"/>
      </g>
     </g>
    </g>
    <g id="xtick_3">
     <g id="line2d_5">
      <path d="M 327.520676 418.069832
L 327.520676 21.935625
" clip-path="url(#p082f020ac7)" style="fill: none; stroke: #e5e7eb; stroke-opacity: 0.3; stroke-width: 0.8; stroke-linecap: square"/>
     </g>
     <g id="line2d_6">
      <g>
       <use xlink:href="#m57b1426ba8" x="327.520676" y="418.069832" style="fill: #4b5563; stroke: #4b5563; stroke-width: 0.8"/>
      </g>
     </g>
     <g id="text_3">
      <!-- 20 -->
      <g style="fill: #4b5563" transform="translate(321.959739 432.227645) scale(0.1 -0.1)">
       <defs>
        <path id="ArialUnicodeMS-32" d="M 3231 0
L 197 0
Q 197 388 467 784
Q 738 1181 1478 1778
Q 1931 2141 2287 2539
Q 2644 2938 2644 3341
Q 2644 3688 2398 3914
Q 2153 4141 1778 4141
Q 1400 4141 1144 3908
Q 888 3675 884 3213
L 306 3278
Q 359 3922 764 4262
Q 1169 4603 1791 4603
Q 2466 4603 2842 4229
Q 3219 3856 3219 3328
Q 3219 2888 2901 2436
Q 2584 1984 1638 1228
Q 1141 831 978 544
L 3231 544
L 3231 0
z
" transform="scale(0.015625)"/>
       </defs>
       <use xlink:href="#ArialUnicodeMS-32"/>
       <use xlink:href="#ArialUnicodeMS-30" x="55.615234"/>
      </g>
     </g>
    </g>
    <g id="xtick_4">
     <g id="line2d_7">
      <path d="M 437.624782 418.069832
L 437.624782 21.935625
" clip-path="url(#p082f020ac7)" style="fill: none; stroke: #e5e7eb; stroke-opacity: 0.3; stroke-width: 0.8; stroke-linecap: square"/>
     </g>
     <g id="line2d_8">
      <g>
       <use xlink:href="#m57b1426ba8" x="437.624782" y="418.069832" style="fill: #4b5563; stroke: #4b5563; stroke-width: 0.8"/>
      </g>
     </g>
     <g id="text_4">
      <!-- 25 -->
      <g style="fill: #4b5563" transform="translate(432.063845 432.227645) scale(0.1 -0.1)">
       <use xlink:href="#ArialUnicodeMS-32"/>
       <use xlink:href="#ArialUnicodeMS-35" x="55.615234"/>
      </g>
     </g>
    </g>
    <g id="xtick_5">
     <g id="line2d_9">
      <path d="M 547.728889 418.069832
L 547.728889 21.935625
" clip-path="url(#p082f020ac7)" style="fill: none; stroke: #e5e7eb; stroke-opacity: 0.3; stroke-width: 0.8; stroke-linecap: square"/>
     </g>
     <g id="line2d_10">
      <g>
       <use xlink:href="#m57b1426ba8" x="547.728889" y="418.069832" style="fill: #4b5563; stroke: #4b5563; stroke-width: 0.8"/>
      </g>
     </g>
     <g id="text_5">
      <!-- 30 -->
      <g style="fill: #4b5563" transform="translate(542.167951 432.227645) scale(0.1 -0.1)">
       <defs>
        <path id="ArialUnicodeMS-33" d="M 2425 2478
Q 2850 2397 3067 2067
Q 3284 1738 3284 1350
Q 3284 725 2829 323
Q 2375 -78 1741 -78
Q 1134 -78 740 275
Q 347 628 281 1209
L 844 1288
Q 928 834 1151 609
Q 1375 384 1741 384
Q 2134 384 2407 661
Q 2681 938 2681 1338
Q 2681 1722 2432 1975
Q 2184 2228 1784 2228
Q 1622 2228 1388 2169
L 1453 2663
Q 1678 2663 1809 2684
Q 1941 2706 2103 2790
Q 2266 2875 2372 3033
Q 2478 3191 2478 3425
Q 2478 3766 2251 3953
Q 2025 4141 1728 4141
Q 1388 4141 1173 3925
Q 959 3709 903 3309
L 341 3413
Q 450 4009 823 4306
Q 1197 4603 1716 4603
Q 2288 4603 2670 4258
Q 3053 3913 3053 3413
Q 3053 2772 2425 2491
L 2425 2478
z
" transform="scale(0.015625)"/>
       </defs>
       <use xlink:href="#ArialUnicodeMS-33"/>
       <use xlink:href="#ArialUnicodeMS-30" x="55.615234"/>
      </g>
     </g>
    </g>
    <g id="xtick_6">
     <g id="line2d_11">
      <path d="M 657.832995 418.069832
L 657.832995 21.935625
" clip-path="url(#p082f020ac7)" style="fill: none; stroke: #e5e7eb; stroke-opacity: 0.3; stroke-width: 0.8; stroke-linecap: square"/>
     </g>
     <g id="line2d_12">
      <g>
       <use xlink:href="#m57b1426ba8" x="657.832995" y="418.069832" style="fill: #4b5563; stroke: #4b5563; stroke-width: 0.8"/>
      </g>
     </g>
     <g id="text_6">
      <!-- 35 -->
      <g style="fill: #4b5563" transform="translate(652.272057 432.227645) scale(0.1 -0.1)">
       <use xlink:href="#ArialUnicodeMS-33"/>
       <use xlink:href="#ArialUnicodeMS-35" x="55.615234"/>
      </g>
     </g>
    </g>
    <g id="text_7">
     <!-- |Sub-sample observed lag| (ms) -->
     <g style="fill: #1f2937" transform="translate(299.469069 445.49952) scale(0.1 -0.1)">
      <defs>
       <path id="ArialUnicodeMS-7c" d="M 1075 -1275
L 588 -1275
L 588 4581
L 1075 4581
L 1075 -1275
z
" transform="scale(0.015625)"/>
       <path id="ArialUnicodeMS-53" d="M 3213 3238
Q 3175 3675 2897 3895
Q 2619 4116 2100 4116
Q 1631 4116 1337 3941
Q 1044 3766 1044 3431
Q 1044 3134 1270 2989
Q 1497 2844 2138 2700
Q 2706 2575 3065 2444
Q 3425 2313 3681 2036
Q 3938 1759 3938 1294
Q 3938 703 3467 312
Q 2997 -78 2241 -78
Q 1275 -78 795 353
Q 316 784 288 1472
L 863 1522
Q 903 972 1287 720
Q 1672 469 2216 469
Q 2725 469 3039 678
Q 3353 888 3353 1247
Q 3353 1622 3025 1794
Q 2697 1966 1923 2133
Q 1150 2300 809 2603
Q 469 2906 469 3391
Q 469 3941 900 4300
Q 1331 4659 2075 4659
Q 2838 4659 3302 4301
Q 3766 3944 3794 3284
L 3213 3238
z
" transform="scale(0.015625)"/>
       <path id="ArialUnicodeMS-75" d="M 3116 0
L 2613 0
L 2613 488
L 2597 488
Q 2216 -78 1556 -78
Q 1209 -78 914 83
Q 619 244 520 526
Q 422 809 422 1259
L 422 3316
L 984 3316
L 984 1478
Q 984 1038 1026 847
Q 1069 656 1247 532
Q 1425 409 1672 409
Q 1991 409 2272 629
Q 2553 850 2553 1544
L 2553 3316
L 3116 3316
L 3116 0
z
" transform="scale(0.015625)"/>
       <path id="ArialUnicodeMS-62" d="M 1006 2944
Q 1319 3391 1900 3391
Q 2541 3391 2925 2925
Q 3309 2459 3309 1709
Q 3309 844 2879 383
Q 2450 -78 1875 -78
Q 1291 -78 966 416
L 953 416
L 953 0
L 428 0
L 428 4581
L 991 4581
L 991 2944
L 1006 2944
z
M 1831 384
Q 2222 384 2476 720
Q 2731 1056 2731 1663
Q 2731 2247 2497 2589
Q 2263 2931 1850 2931
Q 1444 2931 1195 2578
Q 947 2225 947 1684
Q 947 1156 1050 932
Q 1153 709 1361 546
Q 1569 384 1831 384
z
" transform="scale(0.015625)"/>
       <path id="ArialUnicodeMS-2d" d="M 1925 1375
L 206 1375
L 206 1941
L 1925 1941
L 1925 1375
z
" transform="scale(0.015625)"/>
       <path id="ArialUnicodeMS-73" d="M 2278 2388
Q 2241 2659 2058 2795
Q 1875 2931 1550 2931
Q 1228 2931 1029 2822
Q 831 2713 831 2503
Q 831 2306 989 2222
Q 1147 2138 1613 2016
Q 2138 1881 2398 1778
Q 2659 1675 2804 1489
Q 2950 1303 2950 972
Q 2950 528 2587 225
Q 2225 -78 1619 -78
Q 988 -78 633 189
Q 278 456 197 991
L 756 1075
Q 800 728 1014 556
Q 1228 384 1613 384
Q 1981 384 2178 539
Q 2375 694 2375 916
Q 2375 1066 2284 1156
Q 2194 1247 2058 1292
Q 1922 1338 1447 1453
Q 741 1622 514 1862
Q 288 2103 288 2438
Q 288 2853 619 3122
Q 950 3391 1509 3391
Q 2103 3391 2433 3158
Q 2763 2925 2828 2463
L 2278 2388
z
" transform="scale(0.015625)"/>
       <path id="ArialUnicodeMS-61" d="M 3303 0
L 2713 0
Q 2631 156 2597 409
Q 2031 -78 1375 -78
Q 850 -78 547 184
Q 244 447 244 878
Q 244 1291 536 1558
Q 828 1825 1550 1913
L 2075 1991
Q 2369 2038 2559 2106
Q 2559 2359 2543 2464
Q 2528 2569 2451 2681
Q 2375 2794 2206 2862
Q 2038 2931 1753 2931
Q 1391 2931 1180 2797
Q 969 2663 891 2297
L 341 2369
Q 431 2878 806 3134
Q 1181 3391 1838 3391
Q 2434 3391 2714 3214
Q 2994 3038 3058 2788
Q 3122 2538 3122 2144
L 3122 1388
Q 3122 697 3148 461
Q 3175 225 3303 0
z
M 2559 1459
L 2559 1663
Q 2119 1516 1481 1430
Q 844 1344 844 891
Q 844 663 1016 514
Q 1188 366 1509 366
Q 1925 366 2242 614
Q 2559 863 2559 1459
z
" transform="scale(0.015625)"/>
       <path id="ArialUnicodeMS-6d" d="M 4922 0
L 4359 0
L 4359 2094
Q 4359 2325 4328 2489
Q 4297 2653 4167 2779
Q 4038 2906 3763 2906
Q 3431 2906 3190 2675
Q 2950 2444 2950 1925
L 2950 0
L 2388 0
L 2388 2156
Q 2388 2588 2236 2747
Q 2084 2906 1806 2906
Q 1444 2906 1211 2656
Q 978 2406 978 1722
L 978 0
L 416 0
L 416 3316
L 922 3316
L 922 2853
L 934 2853
Q 1272 3391 1925 3391
Q 2291 3391 2527 3245
Q 2763 3100 2869 2809
Q 3238 3391 3891 3391
Q 4406 3391 4664 3112
Q 4922 2834 4922 2278
L 4922 0
z
" transform="scale(0.015625)"/>
       <path id="ArialUnicodeMS-70" d="M 959 2888
Q 1275 3391 1906 3391
Q 2559 3391 2937 2917
Q 3316 2444 3316 1684
Q 3316 875 2897 398
Q 2478 -78 1869 -78
Q 1334 -78 1013 347
L 997 347
L 997 -1275
L 434 -1275
L 434 3316
L 947 3316
L 947 2888
L 959 2888
z
M 1831 384
Q 2225 384 2483 711
Q 2741 1038 2741 1684
Q 2741 2294 2492 2622
Q 2244 2950 1856 2950
Q 1456 2950 1198 2584
Q 941 2219 941 1638
Q 941 1022 1187 703
Q 1434 384 1831 384
z
" transform="scale(0.015625)"/>
       <path id="ArialUnicodeMS-6c" d="M 991 0
L 428 0
L 428 4581
L 991 4581
L 991 0
z
" transform="scale(0.015625)"/>
       <path id="ArialUnicodeMS-65" d="M 3309 1516
L 825 1516
Q 859 966 1139 675
Q 1419 384 1838 384
Q 2159 384 2378 554
Q 2597 725 2713 1069
L 3291 997
Q 3150 478 2775 200
Q 2400 -78 1838 -78
Q 1091 -78 670 380
Q 250 838 250 1631
Q 250 2416 658 2903
Q 1066 3391 1806 3391
Q 2169 3391 2505 3231
Q 2841 3072 3075 2689
Q 3309 2306 3309 1516
z
M 2731 1978
Q 2697 2484 2417 2707
Q 2138 2931 1806 2931
Q 1409 2931 1153 2665
Q 897 2400 856 1978
L 2731 1978
z
" transform="scale(0.015625)"/>
       <path id="ArialUnicodeMS-20" transform="scale(0.015625)"/>
       <path id="ArialUnicodeMS-6f" d="M 1778 3391
Q 2450 3391 2892 2953
Q 3334 2516 3334 1709
Q 3334 731 2856 326
Q 2378 -78 1778 -78
Q 1150 -78 687 337
Q 225 753 225 1656
Q 225 2531 672 2961
Q 1119 3391 1778 3391
z
M 1778 384
Q 2259 384 2509 740
Q 2759 1097 2759 1678
Q 2759 2300 2476 2615
Q 2194 2931 1778 2931
Q 1350 2931 1075 2611
Q 800 2291 800 1656
Q 800 1025 1079 704
Q 1359 384 1778 384
z
" transform="scale(0.015625)"/>
       <path id="ArialUnicodeMS-72" d="M 2216 3213
L 2022 2694
Q 1813 2816 1613 2816
Q 1297 2816 1134 2533
Q 972 2250 972 1741
L 972 0
L 409 0
L 409 3316
L 922 3316
L 922 2816
L 934 2816
Q 1203 3391 1638 3391
Q 1925 3391 2216 3213
z
" transform="scale(0.015625)"/>
       <path id="ArialUnicodeMS-76" d="M 3122 3316
L 1869 0
L 1344 0
L 84 3316
L 678 3316
L 1363 1397
Q 1556 853 1594 659
L 1606 659
Q 1656 859 1778 1197
L 2547 3316
L 3122 3316
z
" transform="scale(0.015625)"/>
       <path id="ArialUnicodeMS-64" d="M 3109 0
L 2584 0
L 2584 422
L 2572 422
Q 2269 -78 1656 -78
Q 1047 -78 639 405
Q 231 888 231 1656
Q 231 2459 615 2925
Q 1000 3391 1631 3391
Q 2225 3391 2534 2938
L 2547 2938
L 2547 4581
L 3109 4581
L 3109 0
z
M 1716 384
Q 2084 384 2340 687
Q 2597 991 2597 1606
Q 2597 2213 2362 2572
Q 2128 2931 1691 2931
Q 1253 2931 1029 2579
Q 806 2228 806 1656
Q 806 1244 926 958
Q 1047 672 1262 528
Q 1478 384 1716 384
z
" transform="scale(0.015625)"/>
       <path id="ArialUnicodeMS-67" d="M 3144 447
Q 3144 -259 3003 -607
Q 2863 -956 2503 -1150
Q 2144 -1344 1644 -1344
Q 1081 -1344 706 -1094
Q 331 -844 331 -275
L 878 -359
Q 909 -622 1098 -753
Q 1288 -884 1638 -884
Q 2075 -884 2278 -706
Q 2481 -528 2526 -272
Q 2572 -16 2572 434
Q 2206 0 1650 0
Q 1003 0 611 478
Q 219 956 219 1684
Q 219 2416 600 2903
Q 981 3391 1656 3391
Q 2244 3391 2613 2919
L 2625 2919
L 2625 3316
L 3144 3316
L 3144 447
z
M 1703 459
Q 2063 459 2341 745
Q 2619 1031 2619 1703
Q 2619 2297 2353 2614
Q 2088 2931 1697 2931
Q 1297 2931 1045 2606
Q 794 2281 794 1716
Q 794 1063 1058 761
Q 1322 459 1703 459
z
" transform="scale(0.015625)"/>
       <path id="ArialUnicodeMS-28" d="M 1900 -1344
L 1497 -1344
Q 978 -681 681 103
Q 384 888 384 1656
Q 384 2528 700 3275
Q 1016 4022 1497 4659
L 1900 4659
Q 1344 3747 1155 3059
Q 966 2372 966 1663
Q 966 153 1900 -1344
z
" transform="scale(0.015625)"/>
       <path id="ArialUnicodeMS-29" d="M 634 4659
Q 1153 3997 1450 3212
Q 1747 2428 1747 1656
Q 1747 788 1431 41
Q 1116 -706 634 -1344
L 231 -1344
Q 788 -431 977 255
Q 1166 941 1166 1650
Q 1166 3163 231 4659
L 634 4659
z
" transform="scale(0.015625)"/>
      </defs>
      <use xlink:href="#ArialUnicodeMS-7c"/>
      <use xlink:href="#ArialUnicodeMS-53" x="25.976562"/>
      <use xlink:href="#ArialUnicodeMS-75" x="92.675781"/>
      <use xlink:href="#ArialUnicodeMS-62" x="148.291016"/>
      <use xlink:href="#ArialUnicodeMS-2d" x="203.90625"/>
      <use xlink:href="#ArialUnicodeMS-73" x="237.207031"/>
      <use xlink:href="#ArialUnicodeMS-61" x="287.207031"/>
      <use xlink:href="#ArialUnicodeMS-6d" x="342.822266"/>
      <use xlink:href="#ArialUnicodeMS-70" x="426.123047"/>
      <use xlink:href="#ArialUnicodeMS-6c" x="481.738281"/>
      <use xlink:href="#ArialUnicodeMS-65" x="503.955078"/>
      <use xlink:href="#ArialUnicodeMS-20" x="559.570312"/>
      <use xlink:href="#ArialUnicodeMS-6f" x="587.353516"/>
      <use xlink:href="#ArialUnicodeMS-62" x="642.96875"/>
      <use xlink:href="#ArialUnicodeMS-73" x="698.583984"/>
      <use xlink:href="#ArialUnicodeMS-65" x="748.583984"/>
      <use xlink:href="#ArialUnicodeMS-72" x="804.199219"/>
      <use xlink:href="#ArialUnicodeMS-76" x="837.5"/>
      <use xlink:href="#ArialUnicodeMS-65" x="887.5"/>
      <use xlink:href="#ArialUnicodeMS-64" x="943.115234"/>
      <use xlink:href="#ArialUnicodeMS-20" x="998.730469"/>
      <use xlink:href="#ArialUnicodeMS-6c" x="1026.513672"/>
      <use xlink:href="#ArialUnicodeMS-61" x="1048.730469"/>
      <use xlink:href="#ArialUnicodeMS-67" x="1104.345703"/>
      <use xlink:href="#ArialUnicodeMS-7c" x="1159.960938"/>
      <use xlink:href="#ArialUnicodeMS-20" x="1185.9375"/>
      <use xlink:href="#ArialUnicodeMS-28" x="1213.720703"/>
      <use xlink:href="#ArialUnicodeMS-6d" x="1247.021484"/>
      <use xlink:href="#ArialUnicodeMS-73" x="1330.322266"/>
      <use xlink:href="#ArialUnicodeMS-29" x="1380.322266"/>
     </g>
    </g>
   </g>
   <g id="matplotlib.axis_2">
    <g id="ytick_1">
     <g id="line2d_13">
      <path d="M 41.25 399.104761
L 699.042826 399.104761
" clip-path="url(#p082f020ac7)" style="fill: none; stroke: #e5e7eb; stroke-opacity: 0.3; stroke-width: 0.8; stroke-linecap: square"/>
     </g>
     <g id="line2d_14">
      <defs>
       <path id="mf63e162175" d="M 0 0
L -3.5 0
" style="stroke: #4b5563; stroke-width: 0.8"/>
      </defs>
      <g>
       <use xlink:href="#mf63e162175" x="41.25" y="399.104761" style="fill: #4b5563; stroke: #4b5563; stroke-width: 0.8"/>
      </g>
     </g>
     <g id="text_8">
      <!-- 0.8 -->
      <g style="fill: #4b5563" transform="translate(20.35 402.683667) scale(0.1 -0.1)">
       <defs>
        <path id="ArialUnicodeMS-2e" d="M 1209 0
L 569 0
L 569 641
L 1209 641
L 1209 0
z
" transform="scale(0.015625)"/>
        <path id="ArialUnicodeMS-38" d="M 2425 2478
Q 3284 2203 3284 1306
Q 3284 716 2862 319
Q 2441 -78 1778 -78
Q 1109 -78 689 322
Q 269 722 269 1325
Q 269 1759 505 2084
Q 741 2409 1141 2478
L 1141 2491
Q 453 2703 453 3419
Q 453 3925 815 4264
Q 1178 4603 1766 4603
Q 2363 4603 2730 4253
Q 3097 3903 3097 3406
Q 3097 2731 2425 2491
L 2425 2478
z
M 1778 2700
Q 2094 2700 2308 2901
Q 2522 3103 2522 3406
Q 2522 3716 2305 3928
Q 2088 4141 1772 4141
Q 1450 4141 1240 3931
Q 1031 3722 1031 3438
Q 1031 3097 1247 2898
Q 1463 2700 1778 2700
z
M 1778 384
Q 2175 384 2440 640
Q 2706 897 2706 1306
Q 2706 1716 2432 1978
Q 2159 2241 1766 2241
Q 1356 2241 1100 1970
Q 844 1700 844 1319
Q 844 922 1108 653
Q 1372 384 1778 384
z
" transform="scale(0.015625)"/>
       </defs>
       <use xlink:href="#ArialUnicodeMS-30"/>
       <use xlink:href="#ArialUnicodeMS-2e" x="55.615234"/>
       <use xlink:href="#ArialUnicodeMS-38" x="83.398438"/>
      </g>
     </g>
    </g>
    <g id="ytick_2">
     <g id="line2d_15">
      <path d="M 41.25 336.009129
L 699.042826 336.009129
" clip-path="url(#p082f020ac7)" style="fill: none; stroke: #e5e7eb; stroke-opacity: 0.3; stroke-width: 0.8; stroke-linecap: square"/>
     </g>
     <g id="line2d_16">
      <g>
       <use xlink:href="#mf63e162175" x="41.25" y="336.009129" style="fill: #4b5563; stroke: #4b5563; stroke-width: 0.8"/>
      </g>
     </g>
     <g id="text_9">
      <!-- 1.0 -->
      <g style="fill: #4b5563" transform="translate(20.35 339.588035) scale(0.1 -0.1)">
       <use xlink:href="#ArialUnicodeMS-31"/>
       <use xlink:href="#ArialUnicodeMS-2e" x="55.615234"/>
       <use xlink:href="#ArialUnicodeMS-30" x="83.398438"/>
      </g>
     </g>
    </g>
    <g id="ytick_3">
     <g id="line2d_17">
      <path d="M 41.25 272.913496
L 699.042826 272.913496
" clip-path="url(#p082f020ac7)" style="fill: none; stroke: #e5e7eb; stroke-opacity: 0.3; stroke-width: 0.8; stroke-linecap: square"/>
     </g>
     <g id="line2d_18">
      <g>
       <use xlink:href="#mf63e162175" x="41.25" y="272.913496" style="fill: #4b5563; stroke: #4b5563; stroke-width: 0.8"/>
      </g>
     </g>
     <g id="text_10">
      <!-- 1.2 -->
      <g style="fill: #4b5563" transform="translate(20.35 276.492403) scale(0.1 -0.1)">
       <use xlink:href="#ArialUnicodeMS-31"/>
       <use xlink:href="#ArialUnicodeMS-2e" x="55.615234"/>
       <use xlink:href="#ArialUnicodeMS-32" x="83.398438"/>
      </g>
     </g>
    </g>
    <g id="ytick_4">
     <g id="line2d_19">
      <path d="M 41.25 209.817864
L 699.042826 209.817864
" clip-path="url(#p082f020ac7)" style="fill: none; stroke: #e5e7eb; stroke-opacity: 0.3; stroke-width: 0.8; stroke-linecap: square"/>
     </g>
     <g id="line2d_20">
      <g>
       <use xlink:href="#mf63e162175" x="41.25" y="209.817864" style="fill: #4b5563; stroke: #4b5563; stroke-width: 0.8"/>
      </g>
     </g>
     <g id="text_11">
      <!-- 1.4 -->
      <g style="fill: #4b5563" transform="translate(20.35 213.39677) scale(0.1 -0.1)">
       <defs>
        <path id="ArialUnicodeMS-34" d="M 3263 1094
L 2644 1094
L 2644 0
L 2081 0
L 2081 1094
L 97 1094
L 97 1613
L 2181 4581
L 2644 4581
L 2644 1613
L 3263 1613
L 3263 1094
z
M 2081 1613
L 2081 3681
L 2069 3681
L 647 1613
L 2081 1613
z
" transform="scale(0.015625)"/>
       </defs>
       <use xlink:href="#ArialUnicodeMS-31"/>
       <use xlink:href="#ArialUnicodeMS-2e" x="55.615234"/>
       <use xlink:href="#ArialUnicodeMS-34" x="83.398438"/>
      </g>
     </g>
    </g>
    <g id="ytick_5">
     <g id="line2d_21">
      <path d="M 41.25 146.722232
L 699.042826 146.722232
" clip-path="url(#p082f020ac7)" style="fill: none; stroke: #e5e7eb; stroke-opacity: 0.3; stroke-width: 0.8; stroke-linecap: square"/>
     </g>
     <g id="line2d_22">
      <g>
       <use xlink:href="#mf63e162175" x="41.25" y="146.722232" style="fill: #4b5563; stroke: #4b5563; stroke-width: 0.8"/>
      </g>
     </g>
     <g id="text_12">
      <!-- 1.6 -->
      <g style="fill: #4b5563" transform="translate(20.35 150.301138) scale(0.1 -0.1)">
       <defs>
        <path id="ArialUnicodeMS-36" d="M 838 2363
Q 1225 2969 1941 2969
Q 2503 2969 2897 2553
Q 3291 2138 3291 1491
Q 3291 838 2898 380
Q 2506 -78 1856 -78
Q 1197 -78 733 409
Q 269 897 269 2144
Q 269 3369 689 3986
Q 1109 4603 1906 4603
Q 2422 4603 2778 4315
Q 3134 4028 3213 3463
L 2650 3413
Q 2497 4141 1875 4141
Q 1444 4141 1134 3712
Q 825 3284 825 2363
L 838 2363
z
M 1844 384
Q 2231 384 2472 696
Q 2713 1009 2713 1453
Q 2713 1897 2472 2187
Q 2231 2478 1825 2478
Q 1453 2478 1184 2204
Q 916 1931 916 1484
Q 916 1028 1180 706
Q 1444 384 1844 384
z
" transform="scale(0.015625)"/>
       </defs>
       <use xlink:href="#ArialUnicodeMS-31"/>
       <use xlink:href="#ArialUnicodeMS-2e" x="55.615234"/>
       <use xlink:href="#ArialUnicodeMS-36" x="83.398438"/>
      </g>
     </g>
    </g>
    <g id="ytick_6">
     <g id="line2d_23">
      <path d="M 41.25 83.626599
L 699.042826 83.626599
" clip-path="url(#p082f020ac7)" style="fill: none; stroke: #e5e7eb; stroke-opacity: 0.3; stroke-width: 0.8; stroke-linecap: square"/>
     </g>
     <g id="line2d_24">
      <g>
       <use xlink:href="#mf63e162175" x="41.25" y="83.626599" style="fill: #4b5563; stroke: #4b5563; stroke-width: 0.8"/>
      </g>
     </g>
     <g id="text_13">
      <!-- 1.8 -->
      <g style="fill: #4b5563" transform="translate(20.35 87.205505) scale(0.1 -0.1)">
       <use xlink:href="#ArialUnicodeMS-31"/>
       <use xlink:href="#ArialUnicodeMS-2e" x="55.615234"/>
       <use xlink:href="#ArialUnicodeMS-38" x="83.398438"/>
      </g>
     </g>
    </g>
    <g id="text_14">
     <!-- Position RMSE ratio vs scheduled P -->
     <g style="fill: #1f2937" transform="translate(14.357813 300.036322) rotate(-90) scale(0.1 -0.1)">
      <defs>
       <path id="ArialUnicodeMS-50" d="M 494 4581
L 2222 4581
Q 2631 4581 2926 4540
Q 3222 4500 3475 4329
Q 3728 4159 3858 3867
Q 3988 3575 3988 3256
Q 3988 2622 3580 2239
Q 3172 1856 2272 1856
L 1100 1856
L 1100 0
L 494 0
L 494 4581
z
M 1100 2400
L 2278 2400
Q 3359 2400 3359 3238
Q 3359 3513 3218 3723
Q 3078 3934 2873 3986
Q 2669 4038 2266 4038
L 1100 4038
L 1100 2400
z
" transform="scale(0.015625)"/>
       <path id="ArialUnicodeMS-69" d="M 991 0
L 428 0
L 428 3316
L 991 3316
L 991 0
z
M 991 3944
L 428 3944
L 428 4581
L 991 4581
L 991 3944
z
" transform="scale(0.015625)"/>
       <path id="ArialUnicodeMS-74" d="M 1722 6
Q 1472 -44 1300 -44
Q 931 -44 762 86
Q 594 216 556 416
Q 519 616 519 972
L 519 2881
L 109 2881
L 109 3316
L 519 3316
L 519 4141
L 1081 4481
L 1081 3316
L 1644 3316
L 1644 2881
L 1081 2881
L 1081 941
Q 1081 691 1132 586
Q 1184 481 1394 481
Q 1516 481 1644 506
L 1722 6
z
" transform="scale(0.015625)"/>
       <path id="ArialUnicodeMS-6e" d="M 3138 0
L 2572 0
L 2572 2016
Q 2572 2525 2389 2715
Q 2206 2906 1881 2906
Q 1631 2906 1407 2784
Q 1184 2663 1090 2441
Q 997 2219 997 1813
L 997 0
L 434 0
L 434 3316
L 941 3316
L 941 2847
L 953 2847
Q 1131 3119 1392 3255
Q 1653 3391 1997 3391
Q 2259 3391 2515 3297
Q 2772 3203 2917 3015
Q 3063 2828 3100 2615
Q 3138 2403 3138 2041
L 3138 0
z
" transform="scale(0.015625)"/>
       <path id="ArialUnicodeMS-52" d="M 4550 0
L 3788 0
Q 3103 1081 2937 1328
Q 2772 1575 2589 1751
Q 2406 1928 2245 1975
Q 2084 2022 1819 2022
L 1119 2022
L 1119 0
L 513 0
L 513 4581
L 2541 4581
Q 2956 4581 3237 4528
Q 3519 4475 3731 4304
Q 3944 4134 4058 3875
Q 4172 3616 4172 3328
Q 4172 2809 3844 2493
Q 3516 2178 2888 2094
L 2888 2081
Q 3347 1878 3750 1247
L 4550 0
z
M 1119 2566
L 2419 2566
Q 2813 2566 3042 2633
Q 3272 2700 3409 2894
Q 3547 3088 3547 3328
Q 3547 3641 3319 3859
Q 3091 4078 2566 4078
L 1119 4078
L 1119 2566
z
" transform="scale(0.015625)"/>
       <path id="ArialUnicodeMS-4d" d="M 4844 0
L 4269 0
L 4269 3834
L 4256 3834
L 2938 0
L 2394 0
L 1081 3897
L 1063 3897
L 1063 0
L 488 0
L 488 4581
L 1394 4581
L 2478 1338
Q 2659 797 2688 659
L 2700 659
Q 2784 925 2944 1394
L 4038 4581
L 4844 4581
L 4844 0
z
" transform="scale(0.015625)"/>
       <path id="ArialUnicodeMS-45" d="M 3928 0
L 506 0
L 506 4581
L 3822 4581
L 3822 4038
L 1113 4038
L 1113 2638
L 3647 2638
L 3647 2094
L 1113 2094
L 1113 544
L 3928 544
L 3928 0
z
" transform="scale(0.015625)"/>
       <path id="ArialUnicodeMS-63" d="M 3144 1147
Q 3034 513 2643 217
Q 2253 -78 1759 -78
Q 1038 -78 644 395
Q 250 869 250 1650
Q 250 2297 476 2686
Q 703 3075 1043 3233
Q 1384 3391 1759 3391
Q 2272 3391 2636 3125
Q 3000 2859 3084 2344
L 2541 2259
Q 2456 2594 2267 2762
Q 2078 2931 1784 2931
Q 1313 2931 1069 2597
Q 825 2263 825 1663
Q 825 1050 1064 717
Q 1303 384 1753 384
Q 2116 384 2323 592
Q 2531 800 2584 1216
L 3144 1147
z
" transform="scale(0.015625)"/>
       <path id="ArialUnicodeMS-68" d="M 3138 0
L 2572 0
L 2572 2094
Q 2572 2500 2397 2703
Q 2222 2906 1875 2906
Q 1531 2906 1261 2667
Q 991 2428 991 1813
L 991 0
L 428 0
L 428 4581
L 991 4581
L 991 2938
Q 1391 3391 1991 3391
Q 2313 3391 2606 3259
Q 2900 3128 3019 2856
Q 3138 2584 3138 2100
L 3138 0
z
" transform="scale(0.015625)"/>
      </defs>
      <use xlink:href="#ArialUnicodeMS-50"/>
      <use xlink:href="#ArialUnicodeMS-6f" x="66.699219"/>
      <use xlink:href="#ArialUnicodeMS-73" x="122.314453"/>
      <use xlink:href="#ArialUnicodeMS-69" x="172.314453"/>
      <use xlink:href="#ArialUnicodeMS-74" x="194.53125"/>
      <use xlink:href="#ArialUnicodeMS-69" x="222.314453"/>
      <use xlink:href="#ArialUnicodeMS-6f" x="244.53125"/>
      <use xlink:href="#ArialUnicodeMS-6e" x="300.146484"/>
      <use xlink:href="#ArialUnicodeMS-20" x="355.761719"/>
      <use xlink:href="#ArialUnicodeMS-52" x="383.544922"/>
      <use xlink:href="#ArialUnicodeMS-4d" x="455.761719"/>
      <use xlink:href="#ArialUnicodeMS-53" x="539.0625"/>
      <use xlink:href="#ArialUnicodeMS-45" x="605.761719"/>
      <use xlink:href="#ArialUnicodeMS-20" x="672.460938"/>
      <use xlink:href="#ArialUnicodeMS-72" x="700.244141"/>
      <use xlink:href="#ArialUnicodeMS-61" x="733.544922"/>
      <use xlink:href="#ArialUnicodeMS-74" x="789.160156"/>
      <use xlink:href="#ArialUnicodeMS-69" x="816.943359"/>
      <use xlink:href="#ArialUnicodeMS-6f" x="839.160156"/>
      <use xlink:href="#ArialUnicodeMS-20" x="894.775391"/>
      <use xlink:href="#ArialUnicodeMS-76" x="922.558594"/>
      <use xlink:href="#ArialUnicodeMS-73" x="972.558594"/>
      <use xlink:href="#ArialUnicodeMS-20" x="1022.558594"/>
      <use xlink:href="#ArialUnicodeMS-73" x="1050.341797"/>
      <use xlink:href="#ArialUnicodeMS-63" x="1100.341797"/>
      <use xlink:href="#ArialUnicodeMS-68" x="1150.341797"/>
      <use xlink:href="#ArialUnicodeMS-65" x="1205.957031"/>
      <use xlink:href="#ArialUnicodeMS-64" x="1261.572266"/>
      <use xlink:href="#ArialUnicodeMS-75" x="1317.1875"/>
      <use xlink:href="#ArialUnicodeMS-6c" x="1372.802734"/>
      <use xlink:href="#ArialUnicodeMS-65" x="1395.019531"/>
      <use xlink:href="#ArialUnicodeMS-64" x="1450.634766"/>
      <use xlink:href="#ArialUnicodeMS-20" x="1506.25"/>
      <use xlink:href="#ArialUnicodeMS-50" x="1534.033203"/>
     </g>
    </g>
   </g>
   <g id="line2d_25">
    <path d="M 107.312464 418.069832
L 107.312464 21.935625
" clip-path="url(#p082f020ac7)" style="fill: none; stroke-dasharray: 4.07,1.76; stroke-dashoffset: 0; stroke: #6b7280; stroke-width: 1.1"/>
   </g>
   <g id="line2d_26">
    <path d="M 327.520676 418.069832
L 327.520676 21.935625
" clip-path="url(#p082f020ac7)" style="fill: none; stroke-dasharray: 1.1,1.815; stroke-dashoffset: 0; stroke: #6b7280; stroke-width: 1.1"/>
   </g>
   <g id="line2d_27">
    <path d="M 41.25 336.009129
L 699.042826 336.009129
" clip-path="url(#p082f020ac7)" style="fill: none; stroke-dasharray: 4.44,1.92; stroke-dashoffset: 0; stroke: #111827; stroke-width: 1.2"/>
   </g>
   <g id="patch_3">
    <path d="M 41.25 418.069832
L 41.25 21.935625
" style="fill: none; stroke: #374151; stroke-width: 0.8; stroke-linejoin: miter; stroke-linecap: square"/>
   </g>
   <g id="patch_4">
    <path d="M 699.042826 418.069832
L 699.042826 21.935625
" style="fill: none; stroke: #374151; stroke-width: 0.8; stroke-linejoin: miter; stroke-linecap: square"/>
   </g>
   <g id="patch_5">
    <path d="M 41.25 418.069832
L 699.042826 418.069832
" style="fill: none; stroke: #374151; stroke-width: 0.8; stroke-linejoin: miter; stroke-linecap: square"/>
   </g>
   <g id="patch_6">
    <path d="M 41.25 21.935625
L 699.042826 21.935625
" style="fill: none; stroke: #374151; stroke-width: 0.8; stroke-linejoin: miter; stroke-linecap: square"/>
   </g>
   <g id="PathCollection_1">
    <path d="M 316.552461 256.744451
C 317.53586 256.744451 318.479114 256.353742 319.174483 255.658374
C 319.869851 254.963005 320.26056 254.019751 320.26056 253.036352
C 320.26056 252.052952 319.869851 251.109698 319.174483 250.414329
C 318.479114 249.718961 317.53586 249.328252 316.552461 249.328252
C 315.569061 249.328252 314.625807 249.718961 313.930439 250.414329
C 313.23507 251.109698 312.844361 252.052952 312.844361 253.036352
C 312.844361 254.019751 313.23507 254.963005 313.930439 255.658374
C 314.625807 256.353742 315.569061 256.744451 316.552461 256.744451
z
" clip-path="url(#p082f020ac7)" style="fill: #4477aa; stroke: #111827; stroke-width: 0.5"/>
    <path d="M 458.840643 162.985075
C 459.824043 162.985075 460.767297 162.594366 461.462665 161.898998
C 462.158034 161.203629 462.548743 160.260375 462.548743 159.276976
C 462.548743 158.293576 462.158034 157.350322 461.462665 156.654954
C 460.767297 155.959585 459.824043 155.568876 458.840643 155.568876
C 457.857244 155.568876 456.91399 155.959585 456.218621 156.654954
C 455.523253 157.350322 455.132544 158.293576 455.132544 159.276976
C 455.132544 160.260375 455.523253 161.203629 456.218621 161.898998
C 456.91399 162.594366 457.857244 162.985075 458.840643 162.985075
z
" clip-path="url(#p082f020ac7)" style="fill: #4477aa; stroke: #111827; stroke-width: 0.5"/>
    <path d="M 670.397834 43.649825
C 671.381234 43.649825 672.324488 43.259116 673.019857 42.563747
C 673.715225 41.868379 674.105934 40.925125 674.105934 39.941725
C 674.105934 38.958326 673.715225 38.015072 673.019857 37.319703
C 672.324488 36.624335 671.381234 36.233626 670.397834 36.233626
C 669.414435 36.233626 668.471181 36.624335 667.775812 37.319703
C 667.080444 38.015072 666.689735 38.958326 666.689735 39.941725
C 666.689735 40.925125 667.080444 41.868379 667.775812 42.563747
C 668.471181 43.259116 669.414435 43.649825 670.397834 43.649825
z
" clip-path="url(#p082f020ac7)" style="fill: #4477aa; stroke: #111827; stroke-width: 0.5"/>
    <path d="M 97.497997 405.307776
C 98.888734 405.307776 100.222697 404.755231 101.206097 403.771831
C 102.189496 402.788432 102.742042 401.454469 102.742042 400.063732
C 102.742042 398.672995 102.189496 397.339032 101.206097 396.355633
C 100.222697 395.372234 98.888734 394.819688 97.497997 394.819688
C 96.10726 394.819688 94.773297 395.372234 93.789898 396.355633
C 92.806499 397.339032 92.253953 398.672995 92.253953 400.063732
C 92.253953 401.454469 92.806499 402.788432 93.789898 403.771831
C 94.773297 404.755231 96.10726 405.307776 97.497997 405.307776
z
" clip-path="url(#p082f020ac7)" style="fill: #4477aa; stroke: #111827; stroke-width: 1.2"/>
    <path d="M 262.077888 241.219619
C 263.061287 241.219619 264.004541 240.82891 264.69991 240.133541
C 265.395278 239.438173 265.785987 238.494919 265.785987 237.511519
C 265.785987 236.52812 265.395278 235.584866 264.69991 234.889497
C 264.004541 234.194129 263.061287 233.80342 262.077888 233.80342
C 261.094488 233.80342 260.151234 234.194129 259.455866 234.889497
C 258.760497 235.584866 258.369789 236.52812 258.369789 237.511519
C 258.369789 238.494919 258.760497 239.438173 259.455866 240.133541
C 260.151234 240.82891 261.094488 241.219619 262.077888 241.219619
z
" clip-path="url(#p082f020ac7)" style="fill: #4477aa; stroke: #111827; stroke-width: 0.5"/>
   </g>
   <g id="text_15">
    <!-- Backward O1 -->
    <g style="fill: #4477aa" transform="translate(321.552461 248.036352) scale(0.08 -0.08)">
     <defs>
      <path id="ArialUnicodeMS-42" d="M 3078 2438
Q 3509 2306 3723 2011
Q 3938 1716 3938 1331
Q 3938 947 3744 625
Q 3550 303 3194 151
Q 2838 0 2228 0
L 475 0
L 475 4581
L 2194 4581
Q 3028 4581 3370 4218
Q 3713 3856 3713 3413
Q 3713 3113 3555 2858
Q 3397 2603 3078 2438
z
M 1081 2663
L 2075 2663
Q 2381 2663 2589 2697
Q 2797 2731 2956 2878
Q 3116 3025 3116 3334
Q 3116 3659 2955 3814
Q 2794 3969 2570 4003
Q 2347 4038 1997 4038
L 1081 4038
L 1081 2663
z
M 1081 544
L 2222 544
Q 2834 544 3071 753
Q 3309 963 3309 1331
Q 3309 1703 3056 1911
Q 2803 2119 2144 2119
L 1081 2119
L 1081 544
z
" transform="scale(0.015625)"/>
      <path id="ArialUnicodeMS-6b" d="M 3175 0
L 2484 0
L 1381 1697
L 984 1319
L 984 0
L 422 0
L 422 4581
L 984 4581
L 984 1972
L 2316 3316
L 3047 3316
L 1778 2088
L 3175 0
z
" transform="scale(0.015625)"/>
      <path id="ArialUnicodeMS-77" d="M 4588 3316
L 3547 0
L 2963 0
L 2438 1991
Q 2434 1991 2371 2259
Q 2309 2528 2309 2553
L 2297 2553
L 1638 0
L 1050 0
L 31 3316
L 616 3316
L 1338 691
L 1450 1138
L 2041 3316
L 2619 3316
L 3066 1578
Q 3253 859 3272 763
L 3284 763
L 4038 3316
L 4588 3316
z
" transform="scale(0.015625)"/>
      <path id="ArialUnicodeMS-4f" d="M 2497 4659
Q 3459 4659 4071 4006
Q 4684 3353 4684 2284
Q 4684 1219 4068 570
Q 3453 -78 2497 -78
Q 1506 -78 903 594
Q 300 1266 300 2234
Q 300 3363 911 4011
Q 1522 4659 2497 4659
z
M 2491 441
Q 3188 441 3620 928
Q 4053 1416 4056 2284
Q 4056 3178 3614 3659
Q 3172 4141 2503 4141
Q 1816 4141 1372 3669
Q 928 3197 928 2222
Q 928 1425 1362 933
Q 1797 441 2491 441
z
" transform="scale(0.015625)"/>
     </defs>
     <use xlink:href="#ArialUnicodeMS-42"/>
     <use xlink:href="#ArialUnicodeMS-61" x="66.699219"/>
     <use xlink:href="#ArialUnicodeMS-63" x="122.314453"/>
     <use xlink:href="#ArialUnicodeMS-6b" x="172.314453"/>
     <use xlink:href="#ArialUnicodeMS-77" x="222.314453"/>
     <use xlink:href="#ArialUnicodeMS-61" x="294.53125"/>
     <use xlink:href="#ArialUnicodeMS-72" x="350.146484"/>
     <use xlink:href="#ArialUnicodeMS-64" x="383.447266"/>
     <use xlink:href="#ArialUnicodeMS-20" x="439.0625"/>
     <use xlink:href="#ArialUnicodeMS-4f" x="466.845703"/>
     <use xlink:href="#ArialUnicodeMS-31" x="544.628906"/>
    </g>
   </g>
   <g id="text_16">
    <!-- Backward O2 -->
    <g style="fill: #4477aa" transform="translate(463.840643 154.276976) scale(0.08 -0.08)">
     <use xlink:href="#ArialUnicodeMS-42"/>
     <use xlink:href="#ArialUnicodeMS-61" x="66.699219"/>
     <use xlink:href="#ArialUnicodeMS-63" x="122.314453"/>
     <use xlink:href="#ArialUnicodeMS-6b" x="172.314453"/>
     <use xlink:href="#ArialUnicodeMS-77" x="222.314453"/>
     <use xlink:href="#ArialUnicodeMS-61" x="294.53125"/>
     <use xlink:href="#ArialUnicodeMS-72" x="350.146484"/>
     <use xlink:href="#ArialUnicodeMS-64" x="383.447266"/>
     <use xlink:href="#ArialUnicodeMS-20" x="439.0625"/>
     <use xlink:href="#ArialUnicodeMS-4f" x="466.845703"/>
     <use xlink:href="#ArialUnicodeMS-32" x="544.628906"/>
    </g>
   </g>
   <g id="text_17">
    <!-- Centered O2 -->
    <g style="fill: #4477aa" transform="translate(675.397834 34.941725) scale(0.08 -0.08)">
     <defs>
      <path id="ArialUnicodeMS-43" d="M 4372 1453
Q 4172 681 3673 301
Q 3175 -78 2478 -78
Q 1353 -78 839 626
Q 325 1331 325 2322
Q 325 3419 929 4039
Q 1534 4659 2484 4659
Q 3153 4659 3628 4318
Q 4103 3978 4294 3322
L 3700 3181
Q 3550 3659 3244 3900
Q 2938 4141 2478 4141
Q 1728 4141 1340 3648
Q 953 3156 953 2328
Q 953 1372 1361 906
Q 1769 441 2425 441
Q 2963 441 3298 731
Q 3634 1022 3769 1606
L 4372 1453
z
" transform="scale(0.015625)"/>
     </defs>
     <use xlink:href="#ArialUnicodeMS-43"/>
     <use xlink:href="#ArialUnicodeMS-65" x="72.216797"/>
     <use xlink:href="#ArialUnicodeMS-6e" x="127.832031"/>
     <use xlink:href="#ArialUnicodeMS-74" x="183.447266"/>
     <use xlink:href="#ArialUnicodeMS-65" x="211.230469"/>
     <use xlink:href="#ArialUnicodeMS-72" x="266.845703"/>
     <use xlink:href="#ArialUnicodeMS-65" x="300.146484"/>
     <use xlink:href="#ArialUnicodeMS-64" x="355.761719"/>
     <use xlink:href="#ArialUnicodeMS-20" x="411.376953"/>
     <use xlink:href="#ArialUnicodeMS-4f" x="439.160156"/>
     <use xlink:href="#ArialUnicodeMS-32" x="516.943359"/>
    </g>
   </g>
   <g id="text_18">
    <!-- Future O1 -->
    <g style="fill: #4477aa" transform="translate(102.497997 395.063732) scale(0.08 -0.08)">
     <defs>
      <path id="ArialUnicodeMS-46" d="M 3603 4038
L 1119 4038
L 1119 2619
L 3272 2619
L 3272 2075
L 1119 2075
L 1119 0
L 513 0
L 513 4581
L 3603 4581
L 3603 4038
z
" transform="scale(0.015625)"/>
     </defs>
     <use xlink:href="#ArialUnicodeMS-46"/>
     <use xlink:href="#ArialUnicodeMS-75" x="61.083984"/>
     <use xlink:href="#ArialUnicodeMS-74" x="116.699219"/>
     <use xlink:href="#ArialUnicodeMS-75" x="144.482422"/>
     <use xlink:href="#ArialUnicodeMS-72" x="200.097656"/>
     <use xlink:href="#ArialUnicodeMS-65" x="233.398438"/>
     <use xlink:href="#ArialUnicodeMS-20" x="289.013672"/>
     <use xlink:href="#ArialUnicodeMS-4f" x="316.796875"/>
     <use xlink:href="#ArialUnicodeMS-31" x="394.580078"/>
    </g>
   </g>
   <g id="text_19">
    <!-- Future O2 -->
    <g style="fill: #4477aa" transform="translate(267.077888 232.511519) scale(0.08 -0.08)">
     <use xlink:href="#ArialUnicodeMS-46"/>
     <use xlink:href="#ArialUnicodeMS-75" x="61.083984"/>
     <use xlink:href="#ArialUnicodeMS-74" x="116.699219"/>
     <use xlink:href="#ArialUnicodeMS-75" x="144.482422"/>
     <use xlink:href="#ArialUnicodeMS-72" x="200.097656"/>
     <use xlink:href="#ArialUnicodeMS-65" x="233.398438"/>
     <use xlink:href="#ArialUnicodeMS-20" x="289.013672"/>
     <use xlink:href="#ArialUnicodeMS-4f" x="316.796875"/>
     <use xlink:href="#ArialUnicodeMS-32" x="394.580078"/>
    </g>
   </g>
   <g id="PathCollection_2">
    <path d="M 292.009518 298.129961
L 299.425716 298.129961
L 299.425716 290.713762
L 292.009518 290.713762
z
" clip-path="url(#p082f020ac7)" style="fill: #ee6677; stroke: #111827; stroke-width: 0.5"/>
    <path d="M 411.603812 215.478386
L 419.020011 215.478386
L 419.020011 208.062187
L 411.603812 208.062187
z
" clip-path="url(#p082f020ac7)" style="fill: #ee6677; stroke: #111827; stroke-width: 0.5"/>
    <path d="M 516.535955 190.969482
L 523.952153 190.969482
L 523.952153 183.553284
L 516.535955 183.553284
z
" clip-path="url(#p082f020ac7)" style="fill: #ee6677; stroke: #111827; stroke-width: 0.5"/>
    <path d="M 191.164486 277.151049
L 198.580685 277.151049
L 198.580685 269.73485
L 191.164486 269.73485
z
" clip-path="url(#p082f020ac7)" style="fill: #ee6677; stroke: #111827; stroke-width: 0.5"/>
    <path d="M 197.406263 327.687087
L 204.822461 327.687087
L 204.822461 320.270888
L 197.406263 320.270888
z
" clip-path="url(#p082f020ac7)" style="fill: #ee6677; stroke: #111827; stroke-width: 0.5"/>
   </g>
   <g id="text_20">
    <!-- Backward O1 -->
    <g style="fill: #ee6677" transform="translate(300.717617 306.421862) scale(0.08 -0.08)">
     <use xlink:href="#ArialUnicodeMS-42"/>
     <use xlink:href="#ArialUnicodeMS-61" x="66.699219"/>
     <use xlink:href="#ArialUnicodeMS-63" x="122.314453"/>
     <use xlink:href="#ArialUnicodeMS-6b" x="172.314453"/>
     <use xlink:href="#ArialUnicodeMS-77" x="222.314453"/>
     <use xlink:href="#ArialUnicodeMS-61" x="294.53125"/>
     <use xlink:href="#ArialUnicodeMS-72" x="350.146484"/>
     <use xlink:href="#ArialUnicodeMS-64" x="383.447266"/>
     <use xlink:href="#ArialUnicodeMS-20" x="439.0625"/>
     <use xlink:href="#ArialUnicodeMS-4f" x="466.845703"/>
     <use xlink:href="#ArialUnicodeMS-31" x="544.628906"/>
    </g>
   </g>
   <g id="text_21">
    <!-- Backward O2 -->
    <g style="fill: #ee6677" transform="translate(420.311911 223.770287) scale(0.08 -0.08)">
     <use xlink:href="#ArialUnicodeMS-42"/>
     <use xlink:href="#ArialUnicodeMS-61" x="66.699219"/>
     <use xlink:href="#ArialUnicodeMS-63" x="122.314453"/>
     <use xlink:href="#ArialUnicodeMS-6b" x="172.314453"/>
     <use xlink:href="#ArialUnicodeMS-77" x="222.314453"/>
     <use xlink:href="#ArialUnicodeMS-61" x="294.53125"/>
     <use xlink:href="#ArialUnicodeMS-72" x="350.146484"/>
     <use xlink:href="#ArialUnicodeMS-64" x="383.447266"/>
     <use xlink:href="#ArialUnicodeMS-20" x="439.0625"/>
     <use xlink:href="#ArialUnicodeMS-4f" x="466.845703"/>
     <use xlink:href="#ArialUnicodeMS-32" x="544.628906"/>
    </g>
   </g>
   <g id="text_22">
    <!-- Centered O2 -->
    <g style="fill: #ee6677" transform="translate(525.244054 199.261383) scale(0.08 -0.08)">
     <use xlink:href="#ArialUnicodeMS-43"/>
     <use xlink:href="#ArialUnicodeMS-65" x="72.216797"/>
     <use xlink:href="#ArialUnicodeMS-6e" x="127.832031"/>
     <use xlink:href="#ArialUnicodeMS-74" x="183.447266"/>
     <use xlink:href="#ArialUnicodeMS-65" x="211.230469"/>
     <use xlink:href="#ArialUnicodeMS-72" x="266.845703"/>
     <use xlink:href="#ArialUnicodeMS-65" x="300.146484"/>
     <use xlink:href="#ArialUnicodeMS-64" x="355.761719"/>
     <use xlink:href="#ArialUnicodeMS-20" x="411.376953"/>
     <use xlink:href="#ArialUnicodeMS-4f" x="439.160156"/>
     <use xlink:href="#ArialUnicodeMS-32" x="516.943359"/>
    </g>
   </g>
   <g id="text_23">
    <!-- Future O1 -->
    <g style="fill: #ee6677" transform="translate(199.872585 285.442949) scale(0.08 -0.08)">
     <use xlink:href="#ArialUnicodeMS-46"/>
     <use xlink:href="#ArialUnicodeMS-75" x="61.083984"/>
     <use xlink:href="#ArialUnicodeMS-74" x="116.699219"/>
     <use xlink:href="#ArialUnicodeMS-75" x="144.482422"/>
     <use xlink:href="#ArialUnicodeMS-72" x="200.097656"/>
     <use xlink:href="#ArialUnicodeMS-65" x="233.398438"/>
     <use xlink:href="#ArialUnicodeMS-20" x="289.013672"/>
     <use xlink:href="#ArialUnicodeMS-4f" x="316.796875"/>
     <use xlink:href="#ArialUnicodeMS-31" x="394.580078"/>
    </g>
   </g>
   <g id="text_24">
    <!-- Future O2 -->
    <g style="fill: #ee6677" transform="translate(206.114362 335.978987) scale(0.08 -0.08)">
     <use xlink:href="#ArialUnicodeMS-46"/>
     <use xlink:href="#ArialUnicodeMS-75" x="61.083984"/>
     <use xlink:href="#ArialUnicodeMS-74" x="116.699219"/>
     <use xlink:href="#ArialUnicodeMS-75" x="144.482422"/>
     <use xlink:href="#ArialUnicodeMS-72" x="200.097656"/>
     <use xlink:href="#ArialUnicodeMS-65" x="233.398438"/>
     <use xlink:href="#ArialUnicodeMS-20" x="289.013672"/>
     <use xlink:href="#ArialUnicodeMS-4f" x="316.796875"/>
     <use xlink:href="#ArialUnicodeMS-32" x="394.580078"/>
    </g>
   </g>
   <g id="text_25">
    <!-- Recorded tracking: RMSE–lag Pareto selection -->
    <g style="fill: #111827" transform="translate(245.093288 15.935625) scale(0.12 -0.12)">
     <defs>
      <path id="ArialUnicodeMS-3a" d="M 1216 2675
L 575 2675
L 575 3316
L 1216 3316
L 1216 2675
z
M 1216 0
L 575 0
L 575 641
L 1216 641
L 1216 0
z
" transform="scale(0.015625)"/>
      <path id="ArialUnicodeMS-2013" d="M 3238 1428
L -38 1428
L -38 1888
L 3238 1888
L 3238 1428
z
" transform="scale(0.015625)"/>
     </defs>
     <use xlink:href="#ArialUnicodeMS-52"/>
     <use xlink:href="#ArialUnicodeMS-65" x="72.216797"/>
     <use xlink:href="#ArialUnicodeMS-63" x="127.832031"/>
     <use xlink:href="#ArialUnicodeMS-6f" x="177.832031"/>
     <use xlink:href="#ArialUnicodeMS-72" x="233.447266"/>
     <use xlink:href="#ArialUnicodeMS-64" x="266.748047"/>
     <use xlink:href="#ArialUnicodeMS-65" x="322.363281"/>
     <use xlink:href="#ArialUnicodeMS-64" x="377.978516"/>
     <use xlink:href="#ArialUnicodeMS-20" x="433.59375"/>
     <use xlink:href="#ArialUnicodeMS-74" x="461.376953"/>
     <use xlink:href="#ArialUnicodeMS-72" x="489.160156"/>
     <use xlink:href="#ArialUnicodeMS-61" x="522.460938"/>
     <use xlink:href="#ArialUnicodeMS-63" x="578.076172"/>
     <use xlink:href="#ArialUnicodeMS-6b" x="628.076172"/>
     <use xlink:href="#ArialUnicodeMS-69" x="678.076172"/>
     <use xlink:href="#ArialUnicodeMS-6e" x="700.292969"/>
     <use xlink:href="#ArialUnicodeMS-67" x="755.908203"/>
     <use xlink:href="#ArialUnicodeMS-3a" x="811.523438"/>
     <use xlink:href="#ArialUnicodeMS-20" x="839.306641"/>
     <use xlink:href="#ArialUnicodeMS-52" x="867.089844"/>
     <use xlink:href="#ArialUnicodeMS-4d" x="939.306641"/>
     <use xlink:href="#ArialUnicodeMS-53" x="1022.607422"/>
     <use xlink:href="#ArialUnicodeMS-45" x="1089.306641"/>
     <use xlink:href="#ArialUnicodeMS-2013" x="1156.005859"/>
     <use xlink:href="#ArialUnicodeMS-6c" x="1206.005859"/>
     <use xlink:href="#ArialUnicodeMS-61" x="1228.222656"/>
     <use xlink:href="#ArialUnicodeMS-67" x="1283.837891"/>
     <use xlink:href="#ArialUnicodeMS-20" x="1339.453125"/>
     <use xlink:href="#ArialUnicodeMS-50" x="1367.236328"/>
     <use xlink:href="#ArialUnicodeMS-61" x="1433.935547"/>
     <use xlink:href="#ArialUnicodeMS-72" x="1489.550781"/>
     <use xlink:href="#ArialUnicodeMS-65" x="1522.851562"/>
     <use xlink:href="#ArialUnicodeMS-74" x="1578.466797"/>
     <use xlink:href="#ArialUnicodeMS-6f" x="1606.25"/>
     <use xlink:href="#ArialUnicodeMS-20" x="1661.865234"/>
     <use xlink:href="#ArialUnicodeMS-73" x="1689.648438"/>
     <use xlink:href="#ArialUnicodeMS-65" x="1739.648438"/>
     <use xlink:href="#ArialUnicodeMS-6c" x="1795.263672"/>
     <use xlink:href="#ArialUnicodeMS-65" x="1817.480469"/>
     <use xlink:href="#ArialUnicodeMS-63" x="1873.095703"/>
     <use xlink:href="#ArialUnicodeMS-74" x="1923.095703"/>
     <use xlink:href="#ArialUnicodeMS-69" x="1950.878906"/>
     <use xlink:href="#ArialUnicodeMS-6f" x="1973.095703"/>
     <use xlink:href="#ArialUnicodeMS-6e" x="2028.710938"/>
    </g>
   </g>
   <g id="PathCollection_3">
    <defs>
     <path id="mc1fd261755" d="M 0 -7.245688
L -1.626758 -2.239041
L -6.891059 -2.239041
L -2.63215 0.855237
L -4.258909 5.861885
L -0 2.767607
L 4.258909 5.861885
L 2.63215 0.855237
L 6.891059 -2.239041
L 1.626758 -2.239041
z
" style="stroke: #111827"/>
    </defs>
    <g clip-path="url(#p082f020ac7)">
     <use xlink:href="#mc1fd261755" x="350.189723" y="336.009129" style="fill: #111827; stroke: #111827"/>
    </g>
   </g>
   <g id="legend_1">
    <g id="patch_7">
     <path d="M 578.133451 413.069832
L 692.042826 413.069832
Q 694.042826 413.069832 694.042826 411.069832
L 694.042826 341.035458
Q 694.042826 339.035458 692.042826 339.035458
L 578.133451 339.035458
Q 576.133451 339.035458 576.133451 341.035458
L 576.133451 411.069832
Q 576.133451 413.069832 578.133451 413.069832
z
" style="fill: #ffffff; opacity: 0.8; stroke: #cccccc; stroke-linejoin: miter"/>
    </g>
    <g id="PathCollection_4">
     <path d="M 590.133451 352.109746
C 591.337865 352.109746 592.493111 351.631227 593.344759 350.779578
C 594.196408 349.927929 594.674927 348.772683 594.674927 347.56827
C 594.674927 346.363857 594.196408 345.208611 593.344759 344.356962
C 592.493111 343.505313 591.337865 343.026794 590.133451 343.026794
C 588.929038 343.026794 587.773792 343.505313 586.922143 344.356962
C 586.070494 345.208611 585.591976 346.363857 585.591976 347.56827
C 585.591976 348.772683 586.070494 349.927929 586.922143 350.779578
C 587.773792 351.631227 588.929038 352.109746 590.133451 352.109746
z
" style="fill: #4477aa; stroke: #111827; stroke-width: 0.5"/>
    </g>
    <g id="text_26">
     <!-- PV -->
     <g style="fill: #111827" transform="translate(608.133451 350.19327) scale(0.1 -0.1)">
      <defs>
       <path id="ArialUnicodeMS-56" d="M 4225 4581
L 2431 0
L 1813 0
L 38 4581
L 691 4581
L 1881 1253
Q 2016 934 2119 506
L 2131 506
Q 2225 872 2369 1253
L 3609 4581
L 4225 4581
z
" transform="scale(0.015625)"/>
      </defs>
      <use xlink:href="#ArialUnicodeMS-50"/>
      <use xlink:href="#ArialUnicodeMS-56" x="66.699219"/>
     </g>
    </g>
    <g id="PathCollection_5">
     <path d="M 586.425352 365.426369
L 593.841551 365.426369
L 593.841551 358.010171
L 586.425352 358.010171
z
" style="fill: #ee6677; stroke: #111827; stroke-width: 0.5"/>
    </g>
    <g id="text_27">
     <!-- PVA -->
     <g style="fill: #111827" transform="translate(608.133451 364.34327) scale(0.1 -0.1)">
      <defs>
       <path id="ArialUnicodeMS-41" d="M 4275 0
L 3591 0
L 3053 1394
L 1141 1394
L 634 0
L -6 0
L 1753 4581
L 2406 4581
L 4275 0
z
M 2869 1875
Q 2306 3363 2234 3564
Q 2163 3766 2075 4103
L 2059 4103
Q 1972 3641 1825 3247
L 1313 1875
L 2869 1875
z
" transform="scale(0.015625)"/>
      </defs>
      <use xlink:href="#ArialUnicodeMS-50"/>
      <use xlink:href="#ArialUnicodeMS-56" x="66.699219"/>
      <use xlink:href="#ArialUnicodeMS-41" x="133.398438"/>
     </g>
    </g>
    <g id="PathCollection_6">
     <g>
      <use xlink:href="#mc1fd261755" x="590.133451" y="375.86827" style="fill: #111827; stroke: #111827"/>
     </g>
    </g>
    <g id="text_28">
     <!-- Scheduled P -->
     <g style="fill: #111827" transform="translate(608.133451 378.49327) scale(0.1 -0.1)">
      <use xlink:href="#ArialUnicodeMS-53"/>
      <use xlink:href="#ArialUnicodeMS-63" x="66.699219"/>
      <use xlink:href="#ArialUnicodeMS-68" x="116.699219"/>
      <use xlink:href="#ArialUnicodeMS-65" x="172.314453"/>
      <use xlink:href="#ArialUnicodeMS-64" x="227.929688"/>
      <use xlink:href="#ArialUnicodeMS-75" x="283.544922"/>
      <use xlink:href="#ArialUnicodeMS-6c" x="339.160156"/>
      <use xlink:href="#ArialUnicodeMS-65" x="361.376953"/>
      <use xlink:href="#ArialUnicodeMS-64" x="416.992188"/>
      <use xlink:href="#ArialUnicodeMS-20" x="472.607422"/>
      <use xlink:href="#ArialUnicodeMS-50" x="500.390625"/>
     </g>
    </g>
    <g id="line2d_28">
     <path d="M 580.133451 389.177645
L 590.133451 389.177645
L 600.133451 389.177645
" style="fill: none; stroke-dasharray: 4.07,1.76; stroke-dashoffset: 0; stroke: #6b7280; stroke-width: 1.1"/>
    </g>
    <g id="text_29">
     <!-- |lag| budget 10 ms -->
     <g style="fill: #111827" transform="translate(608.133451 392.677645) scale(0.1 -0.1)">
      <use xlink:href="#ArialUnicodeMS-7c"/>
      <use xlink:href="#ArialUnicodeMS-6c" x="25.976562"/>
      <use xlink:href="#ArialUnicodeMS-61" x="48.193359"/>
      <use xlink:href="#ArialUnicodeMS-67" x="103.808594"/>
      <use xlink:href="#ArialUnicodeMS-7c" x="159.423828"/>
      <use xlink:href="#ArialUnicodeMS-20" x="185.400391"/>
      <use xlink:href="#ArialUnicodeMS-62" x="213.183594"/>
      <use xlink:href="#ArialUnicodeMS-75" x="268.798828"/>
      <use xlink:href="#ArialUnicodeMS-64" x="324.414062"/>
      <use xlink:href="#ArialUnicodeMS-67" x="380.029297"/>
      <use xlink:href="#ArialUnicodeMS-65" x="435.644531"/>
      <use xlink:href="#ArialUnicodeMS-74" x="491.259766"/>
      <use xlink:href="#ArialUnicodeMS-20" x="519.042969"/>
      <use xlink:href="#ArialUnicodeMS-31" x="546.826172"/>
      <use xlink:href="#ArialUnicodeMS-30" x="602.441406"/>
      <use xlink:href="#ArialUnicodeMS-20" x="658.056641"/>
      <use xlink:href="#ArialUnicodeMS-6d" x="685.839844"/>
      <use xlink:href="#ArialUnicodeMS-73" x="769.140625"/>
     </g>
    </g>
    <g id="line2d_29">
     <path d="M 580.133451 403.469832
L 590.133451 403.469832
L 600.133451 403.469832
" style="fill: none; stroke-dasharray: 1.1,1.815; stroke-dashoffset: 0; stroke: #6b7280; stroke-width: 1.1"/>
    </g>
    <g id="text_30">
     <!-- |lag| budget 20 ms -->
     <g style="fill: #111827" transform="translate(608.133451 406.969832) scale(0.1 -0.1)">
      <use xlink:href="#ArialUnicodeMS-7c"/>
      <use xlink:href="#ArialUnicodeMS-6c" x="25.976562"/>
      <use xlink:href="#ArialUnicodeMS-61" x="48.193359"/>
      <use xlink:href="#ArialUnicodeMS-67" x="103.808594"/>
      <use xlink:href="#ArialUnicodeMS-7c" x="159.423828"/>
      <use xlink:href="#ArialUnicodeMS-20" x="185.400391"/>
      <use xlink:href="#ArialUnicodeMS-62" x="213.183594"/>
      <use xlink:href="#ArialUnicodeMS-75" x="268.798828"/>
      <use xlink:href="#ArialUnicodeMS-64" x="324.414062"/>
      <use xlink:href="#ArialUnicodeMS-67" x="380.029297"/>
      <use xlink:href="#ArialUnicodeMS-65" x="435.644531"/>
      <use xlink:href="#ArialUnicodeMS-74" x="491.259766"/>
      <use xlink:href="#ArialUnicodeMS-20" x="519.042969"/>
      <use xlink:href="#ArialUnicodeMS-32" x="546.826172"/>
      <use xlink:href="#ArialUnicodeMS-30" x="602.441406"/>
      <use xlink:href="#ArialUnicodeMS-20" x="658.056641"/>
      <use xlink:href="#ArialUnicodeMS-6d" x="685.839844"/>
      <use xlink:href="#ArialUnicodeMS-73" x="769.140625"/>
     </g>
    </g>
   </g>
  </g>
 </g>
 <defs>
  <clipPath id="p082f020ac7">
   <rect x="41.25" y="21.935625" width="657.792826" height="396.134208"/>
  </clipPath>
 </defs>
</svg>
