<?xml version="1.0" encoding="utf-8" standalone="no"?>
<!DOCTYPE svg PUBLIC "-//W3C//DTD SVG 1.1//EN"
  "http://www.w3.org/Graphics/SVG/1.1/DTD/svg11.dtd">
<svg xmlns:xlink="http://www.w3.org/1999/xlink" width="1144.37125pt" height="639.66025pt" viewBox="0 0 1144.37125 639.66025" xmlns="http://www.w3.org/2000/svg" version="1.1">
 <metadata>
  <rdf:RDF xmlns:dc="http://purl.org/dc/elements/1.1/" xmlns:cc="http://creativecommons.org/ns#" xmlns:rdf="http://www.w3.org/1999/02/22-rdf-syntax-ns#">
   <cc:Work>
    <dc:type rdf:resource="http://purl.org/dc/dcmitype/StillImage"/>
    <dc:date>2026-07-11T18:22:24.211127</dc:date>
    <dc:format>image/svg+xml</dc:format>
    <dc:creator>
     <cc:Agent>
      <dc:title>Matplotlib v3.9.4, https://matplotlib.org/</dc:title>
     </cc:Agent>
    </dc:creator>
   </cc:Work>
  </rdf:RDF>
 </metadata>
 <defs>
  <style type="text/css">*{stroke-linejoin: round; stroke-linecap: butt}</style>
 </defs>
 <g id="figure_1">
  <g id="patch_1">
   <path d="M 0 639.66025 
L 1144.37125 639.66025 
L 1144.37125 0 
L 0 0 
z
" style="fill: #ffffff"/>
  </g>
  <g id="axes_1">
   <g id="patch_2">
    <path d="M 43.78125 602.104 
L 1137.17125 602.104 
L 1137.17125 24.12 
L 43.78125 24.12 
z
" style="fill: #ffffff"/>
   </g>
   <g id="matplotlib.axis_1">
    <g id="xtick_1">
     <g id="line2d_1">
      <path d="M 93.480795 602.104 
L 93.480795 24.12 
" clip-path="url(#p134e8bc934)" style="fill: none; stroke: #b0b0b0; stroke-opacity: 0.3; stroke-width: 0.8; stroke-linecap: square"/>
     </g>
     <g id="line2d_2">
      <defs>
       <path id="mbb4cc47109" d="M 0 0 
L 0 3.5 
" style="stroke: #000000; stroke-width: 0.8"/>
      </defs>
      <g>
       <use xlink:href="#mbb4cc47109" x="93.480795" y="602.104" style="stroke: #000000; stroke-width: 0.8"/>
      </g>
     </g>
     <g id="text_1">
      <!-- 0 -->
      <g transform="translate(90.299545 616.702437) scale(0.1 -0.1)">
       <defs>
        <path id="DejaVuSans-30" d="M 2034 4250 
Q 1547 4250 1301 3770 
Q 1056 3291 1056 2328 
Q 1056 1369 1301 889 
Q 1547 409 2034 409 
Q 2525 409 2770 889 
Q 3016 1369 3016 2328 
Q 3016 3291 2770 3770 
Q 2525 4250 2034 4250 
z
M 2034 4750 
Q 2819 4750 3233 4129 
Q 3647 3509 3647 2328 
Q 3647 1150 3233 529 
Q 2819 -91 2034 -91 
Q 1250 -91 836 529 
Q 422 1150 422 2328 
Q 422 3509 836 4129 
Q 1250 4750 2034 4750 
z
" transform="scale(0.015625)"/>
       </defs>
       <use xlink:href="#DejaVuSans-30"/>
      </g>
     </g>
    </g>
    <g id="xtick_2">
     <g id="line2d_3">
      <path d="M 292.278977 602.104 
L 292.278977 24.12 
" clip-path="url(#p134e8bc934)" style="fill: none; stroke: #b0b0b0; stroke-opacity: 0.3; stroke-width: 0.8; stroke-linecap: square"/>
     </g>
     <g id="line2d_4">
      <g>
       <use xlink:href="#mbb4cc47109" x="292.278977" y="602.104" style="stroke: #000000; stroke-width: 0.8"/>
      </g>
     </g>
     <g id="text_2">
      <!-- 1 -->
      <g transform="translate(289.097727 616.702437) scale(0.1 -0.1)">
       <defs>
        <path id="DejaVuSans-31" d="M 794 531 
L 1825 531 
L 1825 4091 
L 703 3866 
L 703 4441 
L 1819 4666 
L 2450 4666 
L 2450 531 
L 3481 531 
L 3481 0 
L 794 0 
L 794 531 
z
" transform="scale(0.015625)"/>
       </defs>
       <use xlink:href="#DejaVuSans-31"/>
      </g>
     </g>
    </g>
    <g id="xtick_3">
     <g id="line2d_5">
      <path d="M 491.077159 602.104 
L 491.077159 24.12 
" clip-path="url(#p134e8bc934)" style="fill: none; stroke: #b0b0b0; stroke-opacity: 0.3; stroke-width: 0.8; stroke-linecap: square"/>
     </g>
     <g id="line2d_6">
      <g>
       <use xlink:href="#mbb4cc47109" x="491.077159" y="602.104" style="stroke: #000000; stroke-width: 0.8"/>
      </g>
     </g>
     <g id="text_3">
      <!-- 2 -->
      <g transform="translate(487.895909 616.702437) scale(0.1 -0.1)">
       <defs>
        <path id="DejaVuSans-32" d="M 1228 531 
L 3431 531 
L 3431 0 
L 469 0 
L 469 531 
Q 828 903 1448 1529 
Q 2069 2156 2228 2338 
Q 2531 2678 2651 2914 
Q 2772 3150 2772 3378 
Q 2772 3750 2511 3984 
Q 2250 4219 1831 4219 
Q 1534 4219 1204 4116 
Q 875 4013 500 3803 
L 500 4441 
Q 881 4594 1212 4672 
Q 1544 4750 1819 4750 
Q 2544 4750 2975 4387 
Q 3406 4025 3406 3419 
Q 3406 3131 3298 2873 
Q 3191 2616 2906 2266 
Q 2828 2175 2409 1742 
Q 1991 1309 1228 531 
z
" transform="scale(0.015625)"/>
       </defs>
       <use xlink:href="#DejaVuSans-32"/>
      </g>
     </g>
    </g>
    <g id="xtick_4">
     <g id="line2d_7">
      <path d="M 689.875341 602.104 
L 689.875341 24.12 
" clip-path="url(#p134e8bc934)" style="fill: none; stroke: #b0b0b0; stroke-opacity: 0.3; stroke-width: 0.8; stroke-linecap: square"/>
     </g>
     <g id="line2d_8">
      <g>
       <use xlink:href="#mbb4cc47109" x="689.875341" y="602.104" style="stroke: #000000; stroke-width: 0.8"/>
      </g>
     </g>
     <g id="text_4">
      <!-- 3 -->
      <g transform="translate(686.694091 616.702437) scale(0.1 -0.1)">
       <defs>
        <path id="DejaVuSans-33" d="M 2597 2516 
Q 3050 2419 3304 2112 
Q 3559 1806 3559 1356 
Q 3559 666 3084 287 
Q 2609 -91 1734 -91 
Q 1441 -91 1130 -33 
Q 819 25 488 141 
L 488 750 
Q 750 597 1062 519 
Q 1375 441 1716 441 
Q 2309 441 2620 675 
Q 2931 909 2931 1356 
Q 2931 1769 2642 2001 
Q 2353 2234 1838 2234 
L 1294 2234 
L 1294 2753 
L 1863 2753 
Q 2328 2753 2575 2939 
Q 2822 3125 2822 3475 
Q 2822 3834 2567 4026 
Q 2313 4219 1838 4219 
Q 1578 4219 1281 4162 
Q 984 4106 628 3988 
L 628 4550 
Q 988 4650 1302 4700 
Q 1616 4750 1894 4750 
Q 2613 4750 3031 4423 
Q 3450 4097 3450 3541 
Q 3450 3153 3228 2886 
Q 3006 2619 2597 2516 
z
" transform="scale(0.015625)"/>
       </defs>
       <use xlink:href="#DejaVuSans-33"/>
      </g>
     </g>
    </g>
    <g id="xtick_5">
     <g id="line2d_9">
      <path d="M 888.673523 602.104 
L 888.673523 24.12 
" clip-path="url(#p134e8bc934)" style="fill: none; stroke: #b0b0b0; stroke-opacity: 0.3; stroke-width: 0.8; stroke-linecap: square"/>
     </g>
     <g id="line2d_10">
      <g>
       <use xlink:href="#mbb4cc47109" x="888.673523" y="602.104" style="stroke: #000000; stroke-width: 0.8"/>
      </g>
     </g>
     <g id="text_5">
      <!-- 4 -->
      <g transform="translate(885.492273 616.702437) scale(0.1 -0.1)">
       <defs>
        <path id="DejaVuSans-34" d="M 2419 4116 
L 825 1625 
L 2419 1625 
L 2419 4116 
z
M 2253 4666 
L 3047 4666 
L 3047 1625 
L 3713 1625 
L 3713 1100 
L 3047 1100 
L 3047 0 
L 2419 0 
L 2419 1100 
L 313 1100 
L 313 1709 
L 2253 4666 
z
" transform="scale(0.015625)"/>
       </defs>
       <use xlink:href="#DejaVuSans-34"/>
      </g>
     </g>
    </g>
    <g id="xtick_6">
     <g id="line2d_11">
      <path d="M 1087.471705 602.104 
L 1087.471705 24.12 
" clip-path="url(#p134e8bc934)" style="fill: none; stroke: #b0b0b0; stroke-opacity: 0.3; stroke-width: 0.8; stroke-linecap: square"/>
     </g>
     <g id="line2d_12">
      <g>
       <use xlink:href="#mbb4cc47109" x="1087.471705" y="602.104" style="stroke: #000000; stroke-width: 0.8"/>
      </g>
     </g>
     <g id="text_6">
      <!-- 5 -->
      <g transform="translate(1084.290455 616.702437) scale(0.1 -0.1)">
       <defs>
        <path id="DejaVuSans-35" d="M 691 4666 
L 3169 4666 
L 3169 4134 
L 1269 4134 
L 1269 2991 
Q 1406 3038 1543 3061 
Q 1681 3084 1819 3084 
Q 2600 3084 3056 2656 
Q 3513 2228 3513 1497 
Q 3513 744 3044 326 
Q 2575 -91 1722 -91 
Q 1428 -91 1123 -41 
Q 819 9 494 109 
L 494 744 
Q 775 591 1075 516 
Q 1375 441 1709 441 
Q 2250 441 2565 725 
Q 2881 1009 2881 1497 
Q 2881 1984 2565 2268 
Q 2250 2553 1709 2553 
Q 1456 2553 1204 2497 
Q 953 2441 691 2322 
L 691 4666 
z
" transform="scale(0.015625)"/>
       </defs>
       <use xlink:href="#DejaVuSans-35"/>
      </g>
     </g>
    </g>
    <g id="text_7">
     <!-- Time [s] -->
     <g transform="translate(570.147344 630.380562) scale(0.1 -0.1)">
      <defs>
       <path id="DejaVuSans-54" d="M -19 4666 
L 3928 4666 
L 3928 4134 
L 2272 4134 
L 2272 0 
L 1638 0 
L 1638 4134 
L -19 4134 
L -19 4666 
z
" transform="scale(0.015625)"/>
       <path id="DejaVuSans-69" d="M 603 3500 
L 1178 3500 
L 1178 0 
L 603 0 
L 603 3500 
z
M 603 4863 
L 1178 4863 
L 1178 4134 
L 603 4134 
L 603 4863 
z
" transform="scale(0.015625)"/>
       <path id="DejaVuSans-6d" d="M 3328 2828 
Q 3544 3216 3844 3400 
Q 4144 3584 4550 3584 
Q 5097 3584 5394 3201 
Q 5691 2819 5691 2113 
L 5691 0 
L 5113 0 
L 5113 2094 
Q 5113 2597 4934 2840 
Q 4756 3084 4391 3084 
Q 3944 3084 3684 2787 
Q 3425 2491 3425 1978 
L 3425 0 
L 2847 0 
L 2847 2094 
Q 2847 2600 2669 2842 
Q 2491 3084 2119 3084 
Q 1678 3084 1418 2786 
Q 1159 2488 1159 1978 
L 1159 0 
L 581 0 
L 581 3500 
L 1159 3500 
L 1159 2956 
Q 1356 3278 1631 3431 
Q 1906 3584 2284 3584 
Q 2666 3584 2933 3390 
Q 3200 3197 3328 2828 
z
" transform="scale(0.015625)"/>
       <path id="DejaVuSans-65" d="M 3597 1894 
L 3597 1613 
L 953 1613 
Q 991 1019 1311 708 
Q 1631 397 2203 397 
Q 2534 397 2845 478 
Q 3156 559 3463 722 
L 3463 178 
Q 3153 47 2828 -22 
Q 2503 -91 2169 -91 
Q 1331 -91 842 396 
Q 353 884 353 1716 
Q 353 2575 817 3079 
Q 1281 3584 2069 3584 
Q 2775 3584 3186 3129 
Q 3597 2675 3597 1894 
z
M 3022 2063 
Q 3016 2534 2758 2815 
Q 2500 3097 2075 3097 
Q 1594 3097 1305 2825 
Q 1016 2553 972 2059 
L 3022 2063 
z
" transform="scale(0.015625)"/>
       <path id="DejaVuSans-20" transform="scale(0.015625)"/>
       <path id="DejaVuSans-5b" d="M 550 4863 
L 1875 4863 
L 1875 4416 
L 1125 4416 
L 1125 -397 
L 1875 -397 
L 1875 -844 
L 550 -844 
L 550 4863 
z
" transform="scale(0.015625)"/>
       <path id="DejaVuSans-73" d="M 2834 3397 
L 2834 2853 
Q 2591 2978 2328 3040 
Q 2066 3103 1784 3103 
Q 1356 3103 1142 2972 
Q 928 2841 928 2578 
Q 928 2378 1081 2264 
Q 1234 2150 1697 2047 
L 1894 2003 
Q 2506 1872 2764 1633 
Q 3022 1394 3022 966 
Q 3022 478 2636 193 
Q 2250 -91 1575 -91 
Q 1294 -91 989 -36 
Q 684 19 347 128 
L 347 722 
Q 666 556 975 473 
Q 1284 391 1588 391 
Q 1994 391 2212 530 
Q 2431 669 2431 922 
Q 2431 1156 2273 1281 
Q 2116 1406 1581 1522 
L 1381 1569 
Q 847 1681 609 1914 
Q 372 2147 372 2553 
Q 372 3047 722 3315 
Q 1072 3584 1716 3584 
Q 2034 3584 2315 3537 
Q 2597 3491 2834 3397 
z
" transform="scale(0.015625)"/>
       <path id="DejaVuSans-5d" d="M 1947 4863 
L 1947 -844 
L 622 -844 
L 622 -397 
L 1369 -397 
L 1369 4416 
L 622 4416 
L 622 4863 
L 1947 4863 
z
" transform="scale(0.015625)"/>
      </defs>
      <use xlink:href="#DejaVuSans-54"/>
      <use xlink:href="#DejaVuSans-69" x="57.958984"/>
      <use xlink:href="#DejaVuSans-6d" x="85.742188"/>
      <use xlink:href="#DejaVuSans-65" x="183.154297"/>
      <use xlink:href="#DejaVuSans-20" x="244.677734"/>
      <use xlink:href="#DejaVuSans-5b" x="276.464844"/>
      <use xlink:href="#DejaVuSans-73" x="315.478516"/>
      <use xlink:href="#DejaVuSans-5d" x="367.578125"/>
     </g>
    </g>
   </g>
   <g id="matplotlib.axis_2">
    <g id="ytick_1">
     <g id="line2d_13">
      <path d="M 43.78125 575.832 
L 1137.17125 575.832 
" clip-path="url(#p134e8bc934)" style="fill: none; stroke: #b0b0b0; stroke-opacity: 0.3; stroke-width: 0.8; stroke-linecap: square"/>
     </g>
     <g id="line2d_14">
      <defs>
       <path id="ma56864347a" d="M 0 0 
L -3.5 0 
" style="stroke: #000000; stroke-width: 0.8"/>
      </defs>
      <g>
       <use xlink:href="#ma56864347a" x="43.78125" y="575.832" style="stroke: #000000; stroke-width: 0.8"/>
      </g>
     </g>
     <g id="text_8">
      <!-- 0.0 -->
      <g transform="translate(20.878125 579.631219) scale(0.1 -0.1)">
       <defs>
        <path id="DejaVuSans-2e" d="M 684 794 
L 1344 794 
L 1344 0 
L 684 0 
L 684 794 
z
" transform="scale(0.015625)"/>
       </defs>
       <use xlink:href="#DejaVuSans-30"/>
       <use xlink:href="#DejaVuSans-2e" x="63.623047"/>
       <use xlink:href="#DejaVuSans-30" x="95.410156"/>
      </g>
     </g>
    </g>
    <g id="ytick_2">
     <g id="line2d_15">
      <path d="M 43.78125 482.420513 
L 1137.17125 482.420513 
" clip-path="url(#p134e8bc934)" style="fill: none; stroke: #b0b0b0; stroke-opacity: 0.3; stroke-width: 0.8; stroke-linecap: square"/>
     </g>
     <g id="line2d_16">
      <g>
       <use xlink:href="#ma56864347a" x="43.78125" y="482.420513" style="stroke: #000000; stroke-width: 0.8"/>
      </g>
     </g>
     <g id="text_9">
      <!-- 0.2 -->
      <g transform="translate(20.878125 486.219732) scale(0.1 -0.1)">
       <use xlink:href="#DejaVuSans-30"/>
       <use xlink:href="#DejaVuSans-2e" x="63.623047"/>
       <use xlink:href="#DejaVuSans-32" x="95.410156"/>
      </g>
     </g>
    </g>
    <g id="ytick_3">
     <g id="line2d_17">
      <path d="M 43.78125 389.009026 
L 1137.17125 389.009026 
" clip-path="url(#p134e8bc934)" style="fill: none; stroke: #b0b0b0; stroke-opacity: 0.3; stroke-width: 0.8; stroke-linecap: square"/>
     </g>
     <g id="line2d_18">
      <g>
       <use xlink:href="#ma56864347a" x="43.78125" y="389.009026" style="stroke: #000000; stroke-width: 0.8"/>
      </g>
     </g>
     <g id="text_10">
      <!-- 0.4 -->
      <g transform="translate(20.878125 392.808245) scale(0.1 -0.1)">
       <use xlink:href="#DejaVuSans-30"/>
       <use xlink:href="#DejaVuSans-2e" x="63.623047"/>
       <use xlink:href="#DejaVuSans-34" x="95.410156"/>
      </g>
     </g>
    </g>
    <g id="ytick_4">
     <g id="line2d_19">
      <path d="M 43.78125 295.59754 
L 1137.17125 295.59754 
" clip-path="url(#p134e8bc934)" style="fill: none; stroke: #b0b0b0; stroke-opacity: 0.3; stroke-width: 0.8; stroke-linecap: square"/>
     </g>
     <g id="line2d_20">
      <g>
       <use xlink:href="#ma56864347a" x="43.78125" y="295.59754" style="stroke: #000000; stroke-width: 0.8"/>
      </g>
     </g>
     <g id="text_11">
      <!-- 0.6 -->
      <g transform="translate(20.878125 299.396758) scale(0.1 -0.1)">
       <defs>
        <path id="DejaVuSans-36" d="M 2113 2584 
Q 1688 2584 1439 2293 
Q 1191 2003 1191 1497 
Q 1191 994 1439 701 
Q 1688 409 2113 409 
Q 2538 409 2786 701 
Q 3034 994 3034 1497 
Q 3034 2003 2786 2293 
Q 2538 2584 2113 2584 
z
M 3366 4563 
L 3366 3988 
Q 3128 4100 2886 4159 
Q 2644 4219 2406 4219 
Q 1781 4219 1451 3797 
Q 1122 3375 1075 2522 
Q 1259 2794 1537 2939 
Q 1816 3084 2150 3084 
Q 2853 3084 3261 2657 
Q 3669 2231 3669 1497 
Q 3669 778 3244 343 
Q 2819 -91 2113 -91 
Q 1303 -91 875 529 
Q 447 1150 447 2328 
Q 447 3434 972 4092 
Q 1497 4750 2381 4750 
Q 2619 4750 2861 4703 
Q 3103 4656 3366 4563 
z
" transform="scale(0.015625)"/>
       </defs>
       <use xlink:href="#DejaVuSans-30"/>
       <use xlink:href="#DejaVuSans-2e" x="63.623047"/>
       <use xlink:href="#DejaVuSans-36" x="95.410156"/>
      </g>
     </g>
    </g>
    <g id="ytick_5">
     <g id="line2d_21">
      <path d="M 43.78125 202.186053 
L 1137.17125 202.186053 
" clip-path="url(#p134e8bc934)" style="fill: none; stroke: #b0b0b0; stroke-opacity: 0.3; stroke-width: 0.8; stroke-linecap: square"/>
     </g>
     <g id="line2d_22">
      <g>
       <use xlink:href="#ma56864347a" x="43.78125" y="202.186053" style="stroke: #000000; stroke-width: 0.8"/>
      </g>
     </g>
     <g id="text_12">
      <!-- 0.8 -->
      <g transform="translate(20.878125 205.985272) scale(0.1 -0.1)">
       <defs>
        <path id="DejaVuSans-38" d="M 2034 2216 
Q 1584 2216 1326 1975 
Q 1069 1734 1069 1313 
Q 1069 891 1326 650 
Q 1584 409 2034 409 
Q 2484 409 2743 651 
Q 3003 894 3003 1313 
Q 3003 1734 2745 1975 
Q 2488 2216 2034 2216 
z
M 1403 2484 
Q 997 2584 770 2862 
Q 544 3141 544 3541 
Q 544 4100 942 4425 
Q 1341 4750 2034 4750 
Q 2731 4750 3128 4425 
Q 3525 4100 3525 3541 
Q 3525 3141 3298 2862 
Q 3072 2584 2669 2484 
Q 3125 2378 3379 2068 
Q 3634 1759 3634 1313 
Q 3634 634 3220 271 
Q 2806 -91 2034 -91 
Q 1263 -91 848 271 
Q 434 634 434 1313 
Q 434 1759 690 2068 
Q 947 2378 1403 2484 
z
M 1172 3481 
Q 1172 3119 1398 2916 
Q 1625 2713 2034 2713 
Q 2441 2713 2670 2916 
Q 2900 3119 2900 3481 
Q 2900 3844 2670 4047 
Q 2441 4250 2034 4250 
Q 1625 4250 1398 4047 
Q 1172 3844 1172 3481 
z
" transform="scale(0.015625)"/>
       </defs>
       <use xlink:href="#DejaVuSans-30"/>
       <use xlink:href="#DejaVuSans-2e" x="63.623047"/>
       <use xlink:href="#DejaVuSans-38" x="95.410156"/>
      </g>
     </g>
    </g>
    <g id="ytick_6">
     <g id="line2d_23">
      <path d="M 43.78125 108.774566 
L 1137.17125 108.774566 
" clip-path="url(#p134e8bc934)" style="fill: none; stroke: #b0b0b0; stroke-opacity: 0.3; stroke-width: 0.8; stroke-linecap: square"/>
     </g>
     <g id="line2d_24">
      <g>
       <use xlink:href="#ma56864347a" x="43.78125" y="108.774566" style="stroke: #000000; stroke-width: 0.8"/>
      </g>
     </g>
     <g id="text_13">
      <!-- 1.0 -->
      <g transform="translate(20.878125 112.573785) scale(0.1 -0.1)">
       <use xlink:href="#DejaVuSans-31"/>
       <use xlink:href="#DejaVuSans-2e" x="63.623047"/>
       <use xlink:href="#DejaVuSans-30" x="95.410156"/>
      </g>
     </g>
    </g>
    <g id="text_14">
     <!-- Position -->
     <g transform="translate(14.798438 332.576062) rotate(-90) scale(0.1 -0.1)">
      <defs>
       <path id="DejaVuSans-50" d="M 1259 4147 
L 1259 2394 
L 2053 2394 
Q 2494 2394 2734 2622 
Q 2975 2850 2975 3272 
Q 2975 3691 2734 3919 
Q 2494 4147 2053 4147 
L 1259 4147 
z
M 628 4666 
L 2053 4666 
Q 2838 4666 3239 4311 
Q 3641 3956 3641 3272 
Q 3641 2581 3239 2228 
Q 2838 1875 2053 1875 
L 1259 1875 
L 1259 0 
L 628 0 
L 628 4666 
z
" transform="scale(0.015625)"/>
       <path id="DejaVuSans-6f" d="M 1959 3097 
Q 1497 3097 1228 2736 
Q 959 2375 959 1747 
Q 959 1119 1226 758 
Q 1494 397 1959 397 
Q 2419 397 2687 759 
Q 2956 1122 2956 1747 
Q 2956 2369 2687 2733 
Q 2419 3097 1959 3097 
z
M 1959 3584 
Q 2709 3584 3137 3096 
Q 3566 2609 3566 1747 
Q 3566 888 3137 398 
Q 2709 -91 1959 -91 
Q 1206 -91 779 398 
Q 353 888 353 1747 
Q 353 2609 779 3096 
Q 1206 3584 1959 3584 
z
" transform="scale(0.015625)"/>
       <path id="DejaVuSans-74" d="M 1172 4494 
L 1172 3500 
L 2356 3500 
L 2356 3053 
L 1172 3053 
L 1172 1153 
Q 1172 725 1289 603 
Q 1406 481 1766 481 
L 2356 481 
L 2356 0 
L 1766 0 
Q 1100 0 847 248 
Q 594 497 594 1153 
L 594 3053 
L 172 3053 
L 172 3500 
L 594 3500 
L 594 4494 
L 1172 4494 
z
" transform="scale(0.015625)"/>
       <path id="DejaVuSans-6e" d="M 3513 2113 
L 3513 0 
L 2938 0 
L 2938 2094 
Q 2938 2591 2744 2837 
Q 2550 3084 2163 3084 
Q 1697 3084 1428 2787 
Q 1159 2491 1159 1978 
L 1159 0 
L 581 0 
L 581 3500 
L 1159 3500 
L 1159 2956 
Q 1366 3272 1645 3428 
Q 1925 3584 2291 3584 
Q 2894 3584 3203 3211 
Q 3513 2838 3513 2113 
z
" transform="scale(0.015625)"/>
      </defs>
      <use xlink:href="#DejaVuSans-50"/>
      <use xlink:href="#DejaVuSans-6f" x="56.677734"/>
      <use xlink:href="#DejaVuSans-73" x="117.859375"/>
      <use xlink:href="#DejaVuSans-69" x="169.958984"/>
      <use xlink:href="#DejaVuSans-74" x="197.742188"/>
      <use xlink:href="#DejaVuSans-69" x="236.951172"/>
      <use xlink:href="#DejaVuSans-6f" x="264.734375"/>
      <use xlink:href="#DejaVuSans-6e" x="325.916016"/>
     </g>
    </g>
   </g>
   <g id="line2d_25">
    <path d="M 93.480795 50.392387 
L 113.360614 50.476135 
L 121.312541 50.703647 
L 127.276486 51.052325 
L 133.240432 51.62491 
L 139.204377 52.493306 
L 143.180341 53.274544 
L 147.156305 54.245351 
L 151.132268 55.430072 
L 155.108232 56.853336 
L 159.084195 58.539829 
L 163.060159 60.514083 
L 167.036123 62.800257 
L 171.012086 65.421925 
L 174.98805 68.401865 
L 178.964014 71.761852 
L 182.939977 75.522451 
L 186.915941 79.702824 
L 190.891905 84.320537 
L 194.867868 89.391371 
L 198.843832 94.929154 
L 202.819795 100.945589 
L 206.795759 107.4501 
L 210.771723 114.449692 
L 214.747686 121.94882 
L 218.72365 129.949269 
L 222.699614 138.450064 
L 226.675577 147.447378 
L 230.651541 156.934466 
L 234.627505 166.901625 
L 238.603468 177.336152 
L 242.579432 188.222346 
L 248.543377 205.356791 
L 254.507323 223.38914 
L 260.471268 242.229228 
L 266.435214 261.772934 
L 274.387141 288.721349 
L 284.32705 323.394523 
L 306.19485 400.265405 
L 314.146777 427.211187 
L 320.110723 446.674488 
L 326.074668 465.312126 
L 330.050632 477.197622 
L 334.026595 488.596451 
L 338.002559 499.463101 
L 341.978523 509.753785 
L 345.954486 519.426687 
L 349.93045 528.442204 
L 353.906414 536.763171 
L 357.882377 544.355077 
L 361.858341 551.186261 
L 365.834305 557.2281 
L 367.822286 559.94494 
L 369.810268 562.455169 
L 371.79825 564.756133 
L 373.786232 566.845395 
L 375.774214 568.720742 
L 377.762195 570.380182 
L 379.750177 571.821954 
L 381.738159 573.044522 
L 383.726141 574.046587 
L 385.714123 574.82708 
L 387.702105 575.38517 
L 389.690086 575.720263 
L 391.678068 575.832 
L 393.66605 575.720263 
L 395.654032 575.38517 
L 397.642014 574.82708 
L 399.629995 574.046587 
L 401.617977 573.044522 
L 403.605959 571.821954 
L 405.593941 570.380182 
L 407.581923 568.720742 
L 409.569905 566.845395 
L 411.557886 564.756133 
L 413.545868 562.455169 
L 415.53385 559.94494 
L 417.521832 557.2281 
L 419.509814 554.307515 
L 423.485777 547.867621 
L 427.461741 540.652304 
L 431.437705 532.691727 
L 435.413668 524.019001 
L 439.389632 514.669988 
L 443.365595 504.683102 
L 447.341559 494.099079 
L 451.317523 482.960752 
L 455.293486 471.312802 
L 461.257432 452.986944 
L 467.221377 433.780422 
L 473.185323 413.859513 
L 481.13725 386.479152 
L 495.053123 337.43343 
L 506.981014 295.585484 
L 514.932941 268.423958 
L 520.896886 248.671146 
L 526.860832 229.584282 
L 532.824777 211.271964 
L 538.788723 193.829089 
L 544.752668 177.336152 
L 548.728632 166.901625 
L 552.704595 156.934466 
L 556.680559 147.447378 
L 560.656523 138.450064 
L 564.632486 129.949269 
L 568.60845 121.94882 
L 572.584414 114.449692 
L 576.560377 107.4501 
L 580.536341 100.945589 
L 584.512305 94.929154 
L 588.488268 89.391371 
L 592.464232 84.320537 
L 596.440195 79.702824 
L 600.416159 75.522451 
L 604.392123 71.761852 
L 608.368086 68.401865 
L 612.34405 65.421925 
L 616.320014 62.800257 
L 620.295977 60.514083 
L 624.271941 58.539829 
L 628.247905 56.853336 
L 632.223868 55.430072 
L 636.199832 54.245351 
L 640.175795 53.274544 
L 644.151759 52.493306 
L 648.127723 51.877787 
L 654.091668 51.214885 
L 660.055614 50.799162 
L 668.007541 50.513997 
L 679.935432 50.397839 
L 689.875341 50.392387 
L 689.875341 50.392387 
" clip-path="url(#p134e8bc934)" style="fill: none; stroke-dasharray: 8.14,3.52; stroke-dashoffset: 0; stroke: #000000; stroke-width: 2.2"/>
   </g>
   <g id="line2d_26">
    <path d="M 93.480795 50.392387 
L 111.372632 50.469527 
L 119.324559 50.68891 
L 125.288505 51.028011 
L 131.25245 51.587665 
L 137.216395 52.439496 
L 141.192359 53.207564 
L 145.168323 54.163447 
L 149.144286 55.331463 
L 153.12025 56.736226 
L 157.096214 58.402428 
L 161.072177 60.354616 
L 165.048141 62.616986 
L 169.024105 65.213159 
L 173.000068 68.165978 
L 176.976032 71.497297 
L 180.951995 75.227775 
L 184.927959 79.376681 
L 188.903923 83.961702 
L 192.879886 88.998755 
L 196.85585 94.501815 
L 200.831814 100.482743 
L 204.807777 106.951134 
L 208.783741 113.914173 
L 212.759705 121.376503 
L 216.735668 129.340109 
L 220.711632 137.804219 
L 224.687595 146.765214 
L 228.663559 156.216568 
L 232.639523 166.148793 
L 236.615486 176.549407 
L 240.59145 187.402927 
L 246.555395 204.491169 
L 252.519341 222.481327 
L 258.483286 241.283942 
L 264.447232 260.795563 
L 272.399159 287.710655 
L 282.339068 322.359208 
L 306.19485 406.083063 
L 314.146777 432.812848 
L 320.110723 452.05832 
L 326.074668 470.431279 
L 330.050632 482.115027 
L 334.026595 493.292552 
L 338.002559 503.919046 
L 341.978523 513.951535 
L 345.954486 523.349119 
L 349.93045 532.073205 
L 353.906414 540.087734 
L 357.882377 547.359383 
L 361.858341 553.857761 
L 363.846323 556.808321 
L 365.834305 559.555582 
L 367.822286 562.096645 
L 369.810268 564.428825 
L 371.79825 566.54965 
L 373.786232 568.456871 
L 375.774214 570.148462 
L 377.762195 571.622624 
L 379.750177 572.877784 
L 381.738159 573.912601 
L 383.726141 574.725965 
L 385.714123 575.316995 
L 387.702105 575.685037 
L 389.690086 575.829625 
L 391.678068 575.748995 
L 393.66605 575.444533 
L 395.654032 574.916971 
L 397.642014 574.166891 
L 399.629995 573.195102 
L 401.617977 572.002644 
L 403.605959 570.590791 
L 405.593941 568.961045 
L 407.581923 567.11514 
L 409.569905 565.055038 
L 411.557886 562.782923 
L 413.545868 560.301203 
L 415.53385 557.6125 
L 417.521832 554.719655 
L 421.497795 548.333934 
L 425.473759 541.170865 
L 429.449723 533.260404 
L 433.425686 524.635464 
L 437.40165 515.331726 
L 441.377614 505.38743 
L 445.353577 494.843162 
L 449.329541 483.741612 
L 453.305505 472.127341 
L 459.26945 453.845966 
L 465.233395 434.676444 
L 471.197341 414.784865 
L 479.149268 387.431539 
L 491.077159 345.433771 
L 504.993032 296.533058 
L 512.944959 269.343924 
L 518.908905 249.563446 
L 524.87285 230.443564 
L 530.836795 212.093483 
L 536.800741 194.608749 
L 542.764686 178.070532 
L 546.74065 167.604261 
L 550.716614 157.604357 
L 554.692577 148.08373 
L 558.668541 139.052293 
L 562.644505 130.516995 
L 566.620468 122.481864 
L 570.596432 114.948075 
L 574.572395 107.914031 
L 578.548359 101.37546 
L 582.524323 95.325534 
L 586.500286 89.754992 
L 590.47625 84.652287 
L 594.452214 80.003736 
L 598.428177 75.793688 
L 602.404141 72.004698 
L 606.380105 68.61771 
L 610.356068 65.612249 
L 614.332032 62.966621 
L 618.307995 60.65811 
L 622.283959 58.663193 
L 626.259923 56.957742 
L 630.235886 55.517246 
L 634.21185 54.31702 
L 638.187814 53.332427 
L 642.163777 52.53909 
L 646.139741 51.913118 
L 652.103686 51.237488 
L 658.067632 50.812334 
L 666.019559 50.519108 
L 675.959468 50.404329 
L 715.719105 50.392387 
L 1087.471705 50.392387 
L 1087.471705 50.392387 
" clip-path="url(#p134e8bc934)" style="fill: none; stroke: #1f77b4; stroke-width: 1.5; stroke-linecap: square"/>
   </g>
   <g id="line2d_27">
    <path d="M 93.480795 50.392387 
L 113.360614 50.490722 
L 121.312541 50.735699 
L 127.276486 51.100212 
L 133.240432 51.689287 
L 139.204377 52.573184 
L 143.180341 53.363404 
L 147.156305 54.341581 
L 151.132268 55.531649 
L 155.108232 56.957865 
L 159.084195 58.644597 
L 163.060159 60.616119 
L 167.036123 62.896395 
L 171.012086 65.508872 
L 174.98805 68.476271 
L 178.964014 71.820383 
L 182.939977 75.561867 
L 186.915941 79.72005 
L 190.891905 84.312736 
L 194.867868 89.353645 
L 198.843832 94.854962 
L 202.819795 100.828771 
L 206.795759 107.285037 
L 210.771723 114.231455 
L 214.747686 121.673308 
L 218.72365 129.613343 
L 222.699614 138.051655 
L 226.675577 146.985585 
L 230.651541 156.409639 
L 234.627505 166.315415 
L 238.603468 176.69156 
L 242.579432 187.523728 
L 248.543377 204.58826 
L 254.507323 222.567959 
L 260.471268 241.376755 
L 266.435214 260.914132 
L 274.387141 287.897943 
L 284.32705 322.692041 
L 308.182832 407.021453 
L 316.134759 434.007942 
L 322.098705 453.443883 
L 328.06265 472.000004 
L 332.038614 483.799331 
L 336.014577 495.085273 
L 339.990541 505.81118 
L 343.966505 515.932038 
L 347.942468 525.404663 
L 349.93045 529.884933 
L 351.918432 534.090175 
L 353.906414 537.579263 
L 355.894395 540.321059 
L 357.882377 542.315563 
L 359.870359 543.562775 
L 361.858341 544.062696 
L 363.846323 544.064421 
L 365.834305 544.564342 
L 367.822286 545.811554 
L 369.810268 547.806058 
L 371.79825 550.547854 
L 373.786232 554.036942 
L 377.762195 562.265293 
L 379.750177 565.800896 
L 381.738159 568.805686 
L 383.726141 571.278578 
L 385.714123 573.218165 
L 387.702105 574.622422 
L 389.690086 575.487851 
L 391.678068 575.818973 
L 393.66605 575.748145 
L 395.654032 575.527686 
L 397.642014 574.986562 
L 399.629995 574.30649 
L 401.617977 573.336881 
L 403.605959 572.196935 
L 405.593941 570.7984 
L 407.581923 569.210763 
L 409.569905 567.384614 
L 411.557886 565.360106 
L 413.545868 563.110731 
L 415.53385 560.660135 
L 417.521832 557.994923 
L 419.509814 555.129739 
L 423.485777 548.7915 
L 427.461741 541.671503 
L 431.437705 533.799121 
L 435.413668 525.206807 
L 439.389632 515.929878 
L 443.365595 506.006302 
L 447.341559 495.476466 
L 451.317523 484.382945 
L 455.293486 472.770255 
L 461.257432 454.479221 
L 467.221377 435.28606 
L 473.185323 415.357502 
L 481.13725 387.933489 
L 493.065141 345.7293 
L 506.981014 296.445711 
L 514.932941 268.989254 
L 520.896886 248.994484 
L 526.860832 229.654574 
L 532.824777 211.085903 
L 538.788723 193.396838 
L 544.752668 176.672375 
L 548.728632 166.093223 
L 552.704595 155.990243 
L 556.680559 146.37693 
L 560.656523 137.263712 
L 564.632486 128.657967 
L 568.60845 120.564075 
L 572.584414 112.98348 
L 574.572395 109.38534 
L 576.560377 106.04128 
L 578.548359 103.413374 
L 580.536341 101.53276 
L 582.524323 100.399437 
L 584.512305 100.013407 
L 586.500286 100.125571 
L 588.488268 99.739541 
L 590.47625 98.606219 
L 592.464232 96.725605 
L 594.452214 94.097699 
L 596.440195 90.722501 
L 600.416159 82.686381 
L 602.404141 79.126264 
L 604.392123 75.955213 
L 606.380105 73.147232 
L 608.368086 70.663783 
L 610.356068 68.485706 
L 612.34405 66.567689 
L 614.332032 64.885544 
L 616.320014 63.39107 
L 620.295977 60.83028 
L 624.271941 58.671764 
L 628.247905 56.836428 
L 632.223868 55.3029 
L 636.199832 54.049718 
L 640.175795 53.040304 
L 642.163777 52.616591 
L 644.151759 52.421726 
L 646.139741 52.663207 
L 648.127723 52.386823 
L 650.115705 51.773418 
L 654.091668 51.217954 
L 660.055614 50.738647 
L 664.031577 50.642085 
L 669.995523 50.450674 
L 707.767177 50.392387 
L 1087.471705 50.392387 
L 1087.471705 50.392387 
" clip-path="url(#p134e8bc934)" style="fill: none; stroke: #ff7f0e; stroke-width: 1.5; stroke-linecap: square"/>
   </g>
   <g id="line2d_28">
    <path d="M 93.480795 50.392387 
L 113.360614 50.476135 
L 123.300523 50.767143 
L 135.228414 51.681465 
L 141.192359 52.755816 
L 143.180341 53.094251 
L 149.144286 54.565393 
L 153.12025 55.766171 
L 157.096214 57.192706 
L 161.072177 58.864662 
L 165.048141 60.800829 
L 169.024105 63.019858 
L 173.000068 65.54002 
L 176.976032 68.378885 
L 180.951995 71.553141 
L 184.927959 75.078473 
L 188.903923 78.969472 
L 192.879886 83.239545 
L 196.85585 87.900832 
L 200.831814 92.964132 
L 204.807777 98.438831 
L 208.783741 104.332831 
L 212.759705 110.652491 
L 216.735668 117.40257 
L 220.711632 124.586165 
L 224.687595 132.204669 
L 228.663559 140.257722 
L 232.639523 148.743168 
L 236.615486 157.657016 
L 240.59145 166.993409 
L 244.567414 176.744591 
L 250.531359 192.127379 
L 256.495305 208.380279 
L 262.45925 225.452368 
L 268.423195 243.282612 
L 274.387141 261.799803 
L 280.351086 280.922523 
L 288.303014 307.201589 
L 298.242923 340.956772 
L 324.086686 429.42553 
L 332.038614 455.488517 
L 338.002559 474.24209 
L 343.966505 492.107142 
L 347.942468 503.425781 
L 351.918432 514.199613 
L 355.894395 524.36447 
L 359.870359 533.853498 
L 363.846323 542.596795 
L 367.822286 550.520862 
L 369.810268 554.151533 
L 371.79825 557.547757 
L 373.786232 560.698875 
L 375.774214 563.593726 
L 377.762195 566.220541 
L 379.750177 568.566781 
L 381.738159 570.618896 
L 383.726141 572.361946 
L 385.714123 573.77895 
L 387.702105 574.849589 
L 389.690086 575.547031 
L 391.678068 575.827164 
L 395.654032 575.628892 
L 399.629995 574.486563 
L 401.617977 573.684706 
L 403.605959 572.716705 
L 405.593941 571.570109 
L 407.581923 570.246963 
L 409.569905 568.747497 
L 411.557886 567.072689 
L 413.545868 565.223614 
L 415.53385 563.201498 
L 417.521832 561.00769 
L 421.497795 556.110996 
L 425.473759 550.546704 
L 429.449723 544.329834 
L 433.425686 537.477216 
L 437.40165 530.007455 
L 441.377614 521.940893 
L 445.353577 513.299564 
L 449.329541 504.10715 
L 453.305505 494.388927 
L 457.281468 484.171713 
L 461.257432 473.483808 
L 467.221377 456.634785 
L 473.185323 438.89982 
L 479.149268 420.391135 
L 485.113214 401.226646 
L 493.065141 374.867023 
L 503.00505 341.048953 
L 524.87285 266.158776 
L 532.824777 239.76558 
L 538.788723 220.577885 
L 544.752668 202.054007 
L 550.716614 184.317143 
L 556.680559 167.483249 
L 560.656523 156.815442 
L 564.632486 146.625481 
L 568.60845 136.939618 
L 572.584414 127.78112 
L 576.560377 119.16987 
L 580.536341 111.121926 
L 584.512305 103.649066 
L 588.488268 96.758308 
L 592.464232 90.451438 
L 596.440195 84.724579 
L 600.416159 79.567848 
L 604.392123 74.965174 
L 608.368086 70.894373 
L 612.34405 67.327569 
L 616.320014 64.232027 
L 620.295977 61.571397 
L 624.271941 59.307237 
L 628.247905 57.400561 
L 632.223868 55.813138 
L 636.199832 54.508321 
L 640.175795 53.451443 
L 644.151759 52.609917 
L 648.127723 51.953205 
L 654.091668 51.251275 
L 660.055614 50.813573 
L 668.007541 50.514013 
L 679.935432 50.397839 
L 751.502777 50.392387 
L 1087.471705 50.392387 
L 1087.471705 50.392387 
" clip-path="url(#p134e8bc934)" style="fill: none; stroke: #2ca02c; stroke-width: 1.5; stroke-linecap: square"/>
   </g>
   <g id="patch_3">
    <path d="M 43.78125 602.104 
L 43.78125 24.12 
" style="fill: none; stroke: #000000; stroke-width: 0.8; stroke-linejoin: miter; stroke-linecap: square"/>
   </g>
   <g id="patch_4">
    <path d="M 1137.17125 602.104 
L 1137.17125 24.12 
" style="fill: none; stroke: #000000; stroke-width: 0.8; stroke-linejoin: miter; stroke-linecap: square"/>
   </g>
   <g id="patch_5">
    <path d="M 43.78125 602.104 
L 1137.17125 602.104 
" style="fill: none; stroke: #000000; stroke-width: 0.8; stroke-linejoin: miter; stroke-linecap: square"/>
   </g>
   <g id="patch_6">
    <path d="M 43.78125 24.12 
L 1137.17125 24.12 
" style="fill: none; stroke: #000000; stroke-width: 0.8; stroke-linejoin: miter; stroke-linecap: square"/>
   </g>
   <g id="text_15">
    <!-- 7th-order time-scaled quadratic: $y=0.5(s(t)-1.5)^2$ -->
    <g transform="translate(435.79625 18.12) scale(0.12 -0.12)">
     <defs>
      <path id="DejaVuSans-37" d="M 525 4666 
L 3525 4666 
L 3525 4397 
L 1831 0 
L 1172 0 
L 2766 4134 
L 525 4134 
L 525 4666 
z
" transform="scale(0.015625)"/>
      <path id="DejaVuSans-68" d="M 3513 2113 
L 3513 0 
L 2938 0 
L 2938 2094 
Q 2938 2591 2744 2837 
Q 2550 3084 2163 3084 
Q 1697 3084 1428 2787 
Q 1159 2491 1159 1978 
L 1159 0 
L 581 0 
L 581 4863 
L 1159 4863 
L 1159 2956 
Q 1366 3272 1645 3428 
Q 1925 3584 2291 3584 
Q 2894 3584 3203 3211 
Q 3513 2838 3513 2113 
z
" transform="scale(0.015625)"/>
      <path id="DejaVuSans-2d" d="M 313 2009 
L 1997 2009 
L 1997 1497 
L 313 1497 
L 313 2009 
z
" transform="scale(0.015625)"/>
      <path id="DejaVuSans-72" d="M 2631 2963 
Q 2534 3019 2420 3045 
Q 2306 3072 2169 3072 
Q 1681 3072 1420 2755 
Q 1159 2438 1159 1844 
L 1159 0 
L 581 0 
L 581 3500 
L 1159 3500 
L 1159 2956 
Q 1341 3275 1631 3429 
Q 1922 3584 2338 3584 
Q 2397 3584 2469 3576 
Q 2541 3569 2628 3553 
L 2631 2963 
z
" transform="scale(0.015625)"/>
      <path id="DejaVuSans-64" d="M 2906 2969 
L 2906 4863 
L 3481 4863 
L 3481 0 
L 2906 0 
L 2906 525 
Q 2725 213 2448 61 
Q 2172 -91 1784 -91 
Q 1150 -91 751 415 
Q 353 922 353 1747 
Q 353 2572 751 3078 
Q 1150 3584 1784 3584 
Q 2172 3584 2448 3432 
Q 2725 3281 2906 2969 
z
M 947 1747 
Q 947 1113 1208 752 
Q 1469 391 1925 391 
Q 2381 391 2643 752 
Q 2906 1113 2906 1747 
Q 2906 2381 2643 2742 
Q 2381 3103 1925 3103 
Q 1469 3103 1208 2742 
Q 947 2381 947 1747 
z
" transform="scale(0.015625)"/>
      <path id="DejaVuSans-63" d="M 3122 3366 
L 3122 2828 
Q 2878 2963 2633 3030 
Q 2388 3097 2138 3097 
Q 1578 3097 1268 2742 
Q 959 2388 959 1747 
Q 959 1106 1268 751 
Q 1578 397 2138 397 
Q 2388 397 2633 464 
Q 2878 531 3122 666 
L 3122 134 
Q 2881 22 2623 -34 
Q 2366 -91 2075 -91 
Q 1284 -91 818 406 
Q 353 903 353 1747 
Q 353 2603 823 3093 
Q 1294 3584 2113 3584 
Q 2378 3584 2631 3529 
Q 2884 3475 3122 3366 
z
" transform="scale(0.015625)"/>
      <path id="DejaVuSans-61" d="M 2194 1759 
Q 1497 1759 1228 1600 
Q 959 1441 959 1056 
Q 959 750 1161 570 
Q 1363 391 1709 391 
Q 2188 391 2477 730 
Q 2766 1069 2766 1631 
L 2766 1759 
L 2194 1759 
z
M 3341 1997 
L 3341 0 
L 2766 0 
L 2766 531 
Q 2569 213 2275 61 
Q 1981 -91 1556 -91 
Q 1019 -91 701 211 
Q 384 513 384 1019 
Q 384 1609 779 1909 
Q 1175 2209 1959 2209 
L 2766 2209 
L 2766 2266 
Q 2766 2663 2505 2880 
Q 2244 3097 1772 3097 
Q 1472 3097 1187 3025 
Q 903 2953 641 2809 
L 641 3341 
Q 956 3463 1253 3523 
Q 1550 3584 1831 3584 
Q 2591 3584 2966 3190 
Q 3341 2797 3341 1997 
z
" transform="scale(0.015625)"/>
      <path id="DejaVuSans-6c" d="M 603 4863 
L 1178 4863 
L 1178 0 
L 603 0 
L 603 4863 
z
" transform="scale(0.015625)"/>
      <path id="DejaVuSans-71" d="M 947 1747 
Q 947 1113 1208 752 
Q 1469 391 1925 391 
Q 2381 391 2643 752 
Q 2906 1113 2906 1747 
Q 2906 2381 2643 2742 
Q 2381 3103 1925 3103 
Q 1469 3103 1208 2742 
Q 947 2381 947 1747 
z
M 2906 525 
Q 2725 213 2448 61 
Q 2172 -91 1784 -91 
Q 1150 -91 751 415 
Q 353 922 353 1747 
Q 353 2572 751 3078 
Q 1150 3584 1784 3584 
Q 2172 3584 2448 3432 
Q 2725 3281 2906 2969 
L 2906 3500 
L 3481 3500 
L 3481 -1331 
L 2906 -1331 
L 2906 525 
z
" transform="scale(0.015625)"/>
      <path id="DejaVuSans-75" d="M 544 1381 
L 544 3500 
L 1119 3500 
L 1119 1403 
Q 1119 906 1312 657 
Q 1506 409 1894 409 
Q 2359 409 2629 706 
Q 2900 1003 2900 1516 
L 2900 3500 
L 3475 3500 
L 3475 0 
L 2900 0 
L 2900 538 
Q 2691 219 2414 64 
Q 2138 -91 1772 -91 
Q 1169 -91 856 284 
Q 544 659 544 1381 
z
M 1991 3584 
L 1991 3584 
z
" transform="scale(0.015625)"/>
      <path id="DejaVuSans-3a" d="M 750 794 
L 1409 794 
L 1409 0 
L 750 0 
L 750 794 
z
M 750 3309 
L 1409 3309 
L 1409 2516 
L 750 2516 
L 750 3309 
z
" transform="scale(0.015625)"/>
      <path id="DejaVuSans-Oblique-79" d="M 1588 -325 
Q 1188 -997 936 -1164 
Q 684 -1331 294 -1331 
L -159 -1331 
L -63 -850 
L 269 -850 
Q 509 -850 678 -719 
Q 847 -588 1056 -206 
L 1234 128 
L 459 3500 
L 1069 3500 
L 1650 819 
L 3256 3500 
L 3859 3500 
L 1588 -325 
z
" transform="scale(0.015625)"/>
      <path id="DejaVuSans-3d" d="M 678 2906 
L 4684 2906 
L 4684 2381 
L 678 2381 
L 678 2906 
z
M 678 1631 
L 4684 1631 
L 4684 1100 
L 678 1100 
L 678 1631 
z
" transform="scale(0.015625)"/>
      <path id="DejaVuSans-28" d="M 1984 4856 
Q 1566 4138 1362 3434 
Q 1159 2731 1159 2009 
Q 1159 1288 1364 580 
Q 1569 -128 1984 -844 
L 1484 -844 
Q 1016 -109 783 600 
Q 550 1309 550 2009 
Q 550 2706 781 3412 
Q 1013 4119 1484 4856 
L 1984 4856 
z
" transform="scale(0.015625)"/>
      <path id="DejaVuSans-Oblique-73" d="M 3200 3397 
L 3091 2853 
Q 2863 2978 2609 3040 
Q 2356 3103 2088 3103 
Q 1634 3103 1373 2948 
Q 1113 2794 1113 2528 
Q 1113 2219 1719 2053 
Q 1766 2041 1788 2034 
L 1972 1978 
Q 2547 1819 2739 1644 
Q 2931 1469 2931 1166 
Q 2931 609 2489 259 
Q 2047 -91 1331 -91 
Q 1053 -91 747 -37 
Q 441 16 72 128 
L 184 722 
Q 500 559 806 475 
Q 1113 391 1394 391 
Q 1816 391 2080 572 
Q 2344 753 2344 1031 
Q 2344 1331 1650 1516 
L 1591 1531 
L 1394 1581 
Q 956 1697 753 1886 
Q 550 2075 550 2369 
Q 550 2928 970 3256 
Q 1391 3584 2113 3584 
Q 2397 3584 2667 3537 
Q 2938 3491 3200 3397 
z
" transform="scale(0.015625)"/>
      <path id="DejaVuSans-Oblique-74" d="M 2706 3500 
L 2619 3053 
L 1472 3053 
L 1100 1153 
Q 1081 1047 1072 975 
Q 1063 903 1063 863 
Q 1063 663 1183 572 
Q 1303 481 1569 481 
L 2150 481 
L 2053 0 
L 1503 0 
Q 991 0 739 200 
Q 488 400 488 806 
Q 488 878 497 964 
Q 506 1050 525 1153 
L 897 3053 
L 409 3053 
L 500 3500 
L 978 3500 
L 1172 4494 
L 1747 4494 
L 1556 3500 
L 2706 3500 
z
" transform="scale(0.015625)"/>
      <path id="DejaVuSans-29" d="M 513 4856 
L 1013 4856 
Q 1481 4119 1714 3412 
Q 1947 2706 1947 2009 
Q 1947 1309 1714 600 
Q 1481 -109 1013 -844 
L 513 -844 
Q 928 -128 1133 580 
Q 1338 1288 1338 2009 
Q 1338 2731 1133 3434 
Q 928 4138 513 4856 
z
" transform="scale(0.015625)"/>
      <path id="DejaVuSans-2212" d="M 678 2272 
L 4684 2272 
L 4684 1741 
L 678 1741 
L 678 2272 
z
" transform="scale(0.015625)"/>
     </defs>
     <use xlink:href="#DejaVuSans-37" transform="translate(0 0.765625)"/>
     <use xlink:href="#DejaVuSans-74" transform="translate(63.623047 0.765625)"/>
     <use xlink:href="#DejaVuSans-68" transform="translate(102.832031 0.765625)"/>
     <use xlink:href="#DejaVuSans-2d" transform="translate(166.210938 0.765625)"/>
     <use xlink:href="#DejaVuSans-6f" transform="translate(202.294922 0.765625)"/>
     <use xlink:href="#DejaVuSans-72" transform="translate(263.476562 0.765625)"/>
     <use xlink:href="#DejaVuSans-64" transform="translate(304.589844 0.765625)"/>
     <use xlink:href="#DejaVuSans-65" transform="translate(368.066406 0.765625)"/>
     <use xlink:href="#DejaVuSans-72" transform="translate(429.589844 0.765625)"/>
     <use xlink:href="#DejaVuSans-20" transform="translate(470.703125 0.765625)"/>
     <use xlink:href="#DejaVuSans-74" transform="translate(502.490234 0.765625)"/>
     <use xlink:href="#DejaVuSans-69" transform="translate(541.699219 0.765625)"/>
     <use xlink:href="#DejaVuSans-6d" transform="translate(569.482422 0.765625)"/>
     <use xlink:href="#DejaVuSans-65" transform="translate(666.894531 0.765625)"/>
     <use xlink:href="#DejaVuSans-2d" transform="translate(728.417969 0.765625)"/>
     <use xlink:href="#DejaVuSans-73" transform="translate(764.501953 0.765625)"/>
     <use xlink:href="#DejaVuSans-63" transform="translate(816.601562 0.765625)"/>
     <use xlink:href="#DejaVuSans-61" transform="translate(871.582031 0.765625)"/>
     <use xlink:href="#DejaVuSans-6c" transform="translate(932.861328 0.765625)"/>
     <use xlink:href="#DejaVuSans-65" transform="translate(960.644531 0.765625)"/>
     <use xlink:href="#DejaVuSans-64" transform="translate(1022.167969 0.765625)"/>
     <use xlink:href="#DejaVuSans-20" transform="translate(1085.644531 0.765625)"/>
     <use xlink:href="#DejaVuSans-71" transform="translate(1117.431641 0.765625)"/>
     <use xlink:href="#DejaVuSans-75" transform="translate(1180.908203 0.765625)"/>
     <use xlink:href="#DejaVuSans-61" transform="translate(1244.287109 0.765625)"/>
     <use xlink:href="#DejaVuSans-64" transform="translate(1305.566406 0.765625)"/>
     <use xlink:href="#DejaVuSans-72" transform="translate(1369.042969 0.765625)"/>
     <use xlink:href="#DejaVuSans-61" transform="translate(1410.15625 0.765625)"/>
     <use xlink:href="#DejaVuSans-74" transform="translate(1471.435547 0.765625)"/>
     <use xlink:href="#DejaVuSans-69" transform="translate(1510.644531 0.765625)"/>
     <use xlink:href="#DejaVuSans-63" transform="translate(1538.427734 0.765625)"/>
     <use xlink:href="#DejaVuSans-3a" transform="translate(1593.408203 0.765625)"/>
     <use xlink:href="#DejaVuSans-20" transform="translate(1627.099609 0.765625)"/>
     <use xlink:href="#DejaVuSans-Oblique-79" transform="translate(1658.886719 0.765625)"/>
     <use xlink:href="#DejaVuSans-3d" transform="translate(1737.548828 0.765625)"/>
     <use xlink:href="#DejaVuSans-30" transform="translate(1840.820312 0.765625)"/>
     <use xlink:href="#DejaVuSans-2e" transform="translate(1904.443359 0.765625)"/>
     <use xlink:href="#DejaVuSans-35" transform="translate(1936.230469 0.765625)"/>
     <use xlink:href="#DejaVuSans-28" transform="translate(1999.853516 0.765625)"/>
     <use xlink:href="#DejaVuSans-Oblique-73" transform="translate(2038.867188 0.765625)"/>
     <use xlink:href="#DejaVuSans-28" transform="translate(2090.966797 0.765625)"/>
     <use xlink:href="#DejaVuSans-Oblique-74" transform="translate(2129.980469 0.765625)"/>
     <use xlink:href="#DejaVuSans-29" transform="translate(2169.189453 0.765625)"/>
     <use xlink:href="#DejaVuSans-2212" transform="translate(2227.685547 0.765625)"/>
     <use xlink:href="#DejaVuSans-31" transform="translate(2330.957031 0.765625)"/>
     <use xlink:href="#DejaVuSans-2e" transform="translate(2394.580078 0.765625)"/>
     <use xlink:href="#DejaVuSans-35" transform="translate(2426.367188 0.765625)"/>
     <use xlink:href="#DejaVuSans-29" transform="translate(2489.990234 0.765625)"/>
     <use xlink:href="#DejaVuSans-32" transform="translate(2529.960938 39.046875) scale(0.7)"/>
    </g>
   </g>
   <g id="legend_1">
    <g id="patch_7">
     <path d="M 776.218281 596.604 
L 1129.47125 596.604 
Q 1131.67125 596.604 1131.67125 594.404 
L 1131.67125 530.92025 
Q 1131.67125 528.72025 1129.47125 528.72025 
L 776.218281 528.72025 
Q 774.018281 528.72025 774.018281 530.92025 
L 774.018281 594.404 
Q 774.018281 596.604 776.218281 596.604 
z
" style="fill: #ffffff; opacity: 0.8; stroke: #cccccc; stroke-linejoin: miter"/>
    </g>
    <g id="line2d_29">
     <path d="M 778.418281 537.628531 
L 789.418281 537.628531 
L 800.418281 537.628531 
" style="fill: none; stroke-dasharray: 8.14,3.52; stroke-dashoffset: 0; stroke: #000000; stroke-width: 2.2"/>
    </g>
    <g id="text_16">
     <!-- Target position -->
     <g transform="translate(809.218281 541.478531) scale(0.11 -0.11)">
      <defs>
       <path id="DejaVuSans-67" d="M 2906 1791 
Q 2906 2416 2648 2759 
Q 2391 3103 1925 3103 
Q 1463 3103 1205 2759 
Q 947 2416 947 1791 
Q 947 1169 1205 825 
Q 1463 481 1925 481 
Q 2391 481 2648 825 
Q 2906 1169 2906 1791 
z
M 3481 434 
Q 3481 -459 3084 -895 
Q 2688 -1331 1869 -1331 
Q 1566 -1331 1297 -1286 
Q 1028 -1241 775 -1147 
L 775 -588 
Q 1028 -725 1275 -790 
Q 1522 -856 1778 -856 
Q 2344 -856 2625 -561 
Q 2906 -266 2906 331 
L 2906 616 
Q 2728 306 2450 153 
Q 2172 0 1784 0 
Q 1141 0 747 490 
Q 353 981 353 1791 
Q 353 2603 747 3093 
Q 1141 3584 1784 3584 
Q 2172 3584 2450 3431 
Q 2728 3278 2906 2969 
L 2906 3500 
L 3481 3500 
L 3481 434 
z
" transform="scale(0.015625)"/>
       <path id="DejaVuSans-70" d="M 1159 525 
L 1159 -1331 
L 581 -1331 
L 581 3500 
L 1159 3500 
L 1159 2969 
Q 1341 3281 1617 3432 
Q 1894 3584 2278 3584 
Q 2916 3584 3314 3078 
Q 3713 2572 3713 1747 
Q 3713 922 3314 415 
Q 2916 -91 2278 -91 
Q 1894 -91 1617 61 
Q 1341 213 1159 525 
z
M 3116 1747 
Q 3116 2381 2855 2742 
Q 2594 3103 2138 3103 
Q 1681 3103 1420 2742 
Q 1159 2381 1159 1747 
Q 1159 1113 1420 752 
Q 1681 391 2138 391 
Q 2594 391 2855 752 
Q 3116 1113 3116 1747 
z
" transform="scale(0.015625)"/>
      </defs>
      <use xlink:href="#DejaVuSans-54"/>
      <use xlink:href="#DejaVuSans-61" x="44.583984"/>
      <use xlink:href="#DejaVuSans-72" x="105.863281"/>
      <use xlink:href="#DejaVuSans-67" x="145.226562"/>
      <use xlink:href="#DejaVuSans-65" x="208.703125"/>
      <use xlink:href="#DejaVuSans-74" x="270.226562"/>
      <use xlink:href="#DejaVuSans-20" x="309.435547"/>
      <use xlink:href="#DejaVuSans-70" x="341.222656"/>
      <use xlink:href="#DejaVuSans-6f" x="404.699219"/>
      <use xlink:href="#DejaVuSans-73" x="465.880859"/>
      <use xlink:href="#DejaVuSans-69" x="517.980469"/>
      <use xlink:href="#DejaVuSans-74" x="545.763672"/>
      <use xlink:href="#DejaVuSans-69" x="584.972656"/>
      <use xlink:href="#DejaVuSans-6f" x="612.755859"/>
      <use xlink:href="#DejaVuSans-6e" x="673.9375"/>
     </g>
    </g>
    <g id="line2d_30">
     <path d="M 778.418281 553.774469 
L 789.418281 553.774469 
L 800.418281 553.774469 
" style="fill: none; stroke: #1f77b4; stroke-width: 1.5; stroke-linecap: square"/>
    </g>
    <g id="text_17">
     <!-- 3. position central-difference velocity &amp; acceleration -->
     <g transform="translate(809.218281 557.624469) scale(0.11 -0.11)">
      <defs>
       <path id="DejaVuSans-66" d="M 2375 4863 
L 2375 4384 
L 1825 4384 
Q 1516 4384 1395 4259 
Q 1275 4134 1275 3809 
L 1275 3500 
L 2222 3500 
L 2222 3053 
L 1275 3053 
L 1275 0 
L 697 0 
L 697 3053 
L 147 3053 
L 147 3500 
L 697 3500 
L 697 3744 
Q 697 4328 969 4595 
Q 1241 4863 1831 4863 
L 2375 4863 
z
" transform="scale(0.015625)"/>
       <path id="DejaVuSans-76" d="M 191 3500 
L 800 3500 
L 1894 563 
L 2988 3500 
L 3597 3500 
L 2284 0 
L 1503 0 
L 191 3500 
z
" transform="scale(0.015625)"/>
       <path id="DejaVuSans-79" d="M 2059 -325 
Q 1816 -950 1584 -1140 
Q 1353 -1331 966 -1331 
L 506 -1331 
L 506 -850 
L 844 -850 
Q 1081 -850 1212 -737 
Q 1344 -625 1503 -206 
L 1606 56 
L 191 3500 
L 800 3500 
L 1894 763 
L 2988 3500 
L 3597 3500 
L 2059 -325 
z
" transform="scale(0.015625)"/>
       <path id="DejaVuSans-26" d="M 1556 2509 
Q 1272 2256 1139 2004 
Q 1006 1753 1006 1478 
Q 1006 1022 1337 719 
Q 1669 416 2169 416 
Q 2466 416 2725 514 
Q 2984 613 3213 813 
L 1556 2509 
z
M 1997 2859 
L 3584 1234 
Q 3769 1513 3872 1830 
Q 3975 2147 3994 2503 
L 4575 2503 
Q 4538 2091 4375 1687 
Q 4213 1284 3922 891 
L 4794 0 
L 4006 0 
L 3559 459 
Q 3234 181 2878 45 
Q 2522 -91 2113 -91 
Q 1359 -91 881 339 
Q 403 769 403 1441 
Q 403 1841 612 2192 
Q 822 2544 1241 2853 
Q 1091 3050 1012 3245 
Q 934 3441 934 3628 
Q 934 4134 1281 4442 
Q 1628 4750 2203 4750 
Q 2463 4750 2720 4694 
Q 2978 4638 3244 4525 
L 3244 3956 
Q 2972 4103 2725 4179 
Q 2478 4256 2266 4256 
Q 1938 4256 1733 4082 
Q 1528 3909 1528 3634 
Q 1528 3475 1620 3314 
Q 1713 3153 1997 2859 
z
" transform="scale(0.015625)"/>
      </defs>
      <use xlink:href="#DejaVuSans-33"/>
      <use xlink:href="#DejaVuSans-2e" x="63.623047"/>
      <use xlink:href="#DejaVuSans-20" x="95.410156"/>
      <use xlink:href="#DejaVuSans-70" x="127.197266"/>
      <use xlink:href="#DejaVuSans-6f" x="190.673828"/>
      <use xlink:href="#DejaVuSans-73" x="251.855469"/>
      <use xlink:href="#DejaVuSans-69" x="303.955078"/>
      <use xlink:href="#DejaVuSans-74" x="331.738281"/>
      <use xlink:href="#DejaVuSans-69" x="370.947266"/>
      <use xlink:href="#DejaVuSans-6f" x="398.730469"/>
      <use xlink:href="#DejaVuSans-6e" x="459.912109"/>
      <use xlink:href="#DejaVuSans-20" x="523.291016"/>
      <use xlink:href="#DejaVuSans-63" x="555.078125"/>
      <use xlink:href="#DejaVuSans-65" x="610.058594"/>
      <use xlink:href="#DejaVuSans-6e" x="671.582031"/>
      <use xlink:href="#DejaVuSans-74" x="734.960938"/>
      <use xlink:href="#DejaVuSans-72" x="774.169922"/>
      <use xlink:href="#DejaVuSans-61" x="815.283203"/>
      <use xlink:href="#DejaVuSans-6c" x="876.5625"/>
      <use xlink:href="#DejaVuSans-2d" x="904.345703"/>
      <use xlink:href="#DejaVuSans-64" x="940.429688"/>
      <use xlink:href="#DejaVuSans-69" x="1003.90625"/>
      <use xlink:href="#DejaVuSans-66" x="1031.689453"/>
      <use xlink:href="#DejaVuSans-66" x="1066.894531"/>
      <use xlink:href="#DejaVuSans-65" x="1102.099609"/>
      <use xlink:href="#DejaVuSans-72" x="1163.623047"/>
      <use xlink:href="#DejaVuSans-65" x="1202.486328"/>
      <use xlink:href="#DejaVuSans-6e" x="1264.009766"/>
      <use xlink:href="#DejaVuSans-63" x="1327.388672"/>
      <use xlink:href="#DejaVuSans-65" x="1382.369141"/>
      <use xlink:href="#DejaVuSans-20" x="1443.892578"/>
      <use xlink:href="#DejaVuSans-76" x="1475.679688"/>
      <use xlink:href="#DejaVuSans-65" x="1534.859375"/>
      <use xlink:href="#DejaVuSans-6c" x="1596.382812"/>
      <use xlink:href="#DejaVuSans-6f" x="1624.166016"/>
      <use xlink:href="#DejaVuSans-63" x="1685.347656"/>
      <use xlink:href="#DejaVuSans-69" x="1740.328125"/>
      <use xlink:href="#DejaVuSans-74" x="1768.111328"/>
      <use xlink:href="#DejaVuSans-79" x="1807.320312"/>
      <use xlink:href="#DejaVuSans-20" x="1866.5"/>
      <use xlink:href="#DejaVuSans-26" x="1898.287109"/>
      <use xlink:href="#DejaVuSans-20" x="1976.265625"/>
      <use xlink:href="#DejaVuSans-61" x="2008.052734"/>
      <use xlink:href="#DejaVuSans-63" x="2069.332031"/>
      <use xlink:href="#DejaVuSans-63" x="2124.3125"/>
      <use xlink:href="#DejaVuSans-65" x="2179.292969"/>
      <use xlink:href="#DejaVuSans-6c" x="2240.816406"/>
      <use xlink:href="#DejaVuSans-65" x="2268.599609"/>
      <use xlink:href="#DejaVuSans-72" x="2330.123047"/>
      <use xlink:href="#DejaVuSans-61" x="2371.236328"/>
      <use xlink:href="#DejaVuSans-74" x="2432.515625"/>
      <use xlink:href="#DejaVuSans-69" x="2471.724609"/>
      <use xlink:href="#DejaVuSans-6f" x="2499.507812"/>
      <use xlink:href="#DejaVuSans-6e" x="2560.689453"/>
     </g>
    </g>
    <g id="line2d_31">
     <path d="M 778.418281 569.920406 
L 789.418281 569.920406 
L 800.418281 569.920406 
" style="fill: none; stroke: #ff7f0e; stroke-width: 1.5; stroke-linecap: square"/>
    </g>
    <g id="text_18">
     <!-- 4. position backward-difference velocity, acceleration = 0 -->
     <g transform="translate(809.218281 573.770406) scale(0.11 -0.11)">
      <defs>
       <path id="DejaVuSans-62" d="M 3116 1747 
Q 3116 2381 2855 2742 
Q 2594 3103 2138 3103 
Q 1681 3103 1420 2742 
Q 1159 2381 1159 1747 
Q 1159 1113 1420 752 
Q 1681 391 2138 391 
Q 2594 391 2855 752 
Q 3116 1113 3116 1747 
z
M 1159 2969 
Q 1341 3281 1617 3432 
Q 1894 3584 2278 3584 
Q 2916 3584 3314 3078 
Q 3713 2572 3713 1747 
Q 3713 922 3314 415 
Q 2916 -91 2278 -91 
Q 1894 -91 1617 61 
Q 1341 213 1159 525 
L 1159 0 
L 581 0 
L 581 4863 
L 1159 4863 
L 1159 2969 
z
" transform="scale(0.015625)"/>
       <path id="DejaVuSans-6b" d="M 581 4863 
L 1159 4863 
L 1159 1991 
L 2875 3500 
L 3609 3500 
L 1753 1863 
L 3688 0 
L 2938 0 
L 1159 1709 
L 1159 0 
L 581 0 
L 581 4863 
z
" transform="scale(0.015625)"/>
       <path id="DejaVuSans-77" d="M 269 3500 
L 844 3500 
L 1563 769 
L 2278 3500 
L 2956 3500 
L 3675 769 
L 4391 3500 
L 4966 3500 
L 4050 0 
L 3372 0 
L 2619 2869 
L 1863 0 
L 1184 0 
L 269 3500 
z
" transform="scale(0.015625)"/>
       <path id="DejaVuSans-2c" d="M 750 794 
L 1409 794 
L 1409 256 
L 897 -744 
L 494 -744 
L 750 256 
L 750 794 
z
" transform="scale(0.015625)"/>
      </defs>
      <use xlink:href="#DejaVuSans-34"/>
      <use xlink:href="#DejaVuSans-2e" x="63.623047"/>
      <use xlink:href="#DejaVuSans-20" x="95.410156"/>
      <use xlink:href="#DejaVuSans-70" x="127.197266"/>
      <use xlink:href="#DejaVuSans-6f" x="190.673828"/>
      <use xlink:href="#DejaVuSans-73" x="251.855469"/>
      <use xlink:href="#DejaVuSans-69" x="303.955078"/>
      <use xlink:href="#DejaVuSans-74" x="331.738281"/>
      <use xlink:href="#DejaVuSans-69" x="370.947266"/>
      <use xlink:href="#DejaVuSans-6f" x="398.730469"/>
      <use xlink:href="#DejaVuSans-6e" x="459.912109"/>
      <use xlink:href="#DejaVuSans-20" x="523.291016"/>
      <use xlink:href="#DejaVuSans-62" x="555.078125"/>
      <use xlink:href="#DejaVuSans-61" x="618.554688"/>
      <use xlink:href="#DejaVuSans-63" x="679.833984"/>
      <use xlink:href="#DejaVuSans-6b" x="734.814453"/>
      <use xlink:href="#DejaVuSans-77" x="792.724609"/>
      <use xlink:href="#DejaVuSans-61" x="874.511719"/>
      <use xlink:href="#DejaVuSans-72" x="935.791016"/>
      <use xlink:href="#DejaVuSans-64" x="975.154297"/>
      <use xlink:href="#DejaVuSans-2d" x="1038.630859"/>
      <use xlink:href="#DejaVuSans-64" x="1074.714844"/>
      <use xlink:href="#DejaVuSans-69" x="1138.191406"/>
      <use xlink:href="#DejaVuSans-66" x="1165.974609"/>
      <use xlink:href="#DejaVuSans-66" x="1201.179688"/>
      <use xlink:href="#DejaVuSans-65" x="1236.384766"/>
      <use xlink:href="#DejaVuSans-72" x="1297.908203"/>
      <use xlink:href="#DejaVuSans-65" x="1336.771484"/>
      <use xlink:href="#DejaVuSans-6e" x="1398.294922"/>
      <use xlink:href="#DejaVuSans-63" x="1461.673828"/>
      <use xlink:href="#DejaVuSans-65" x="1516.654297"/>
      <use xlink:href="#DejaVuSans-20" x="1578.177734"/>
      <use xlink:href="#DejaVuSans-76" x="1609.964844"/>
      <use xlink:href="#DejaVuSans-65" x="1669.144531"/>
      <use xlink:href="#DejaVuSans-6c" x="1730.667969"/>
      <use xlink:href="#DejaVuSans-6f" x="1758.451172"/>
      <use xlink:href="#DejaVuSans-63" x="1819.632812"/>
      <use xlink:href="#DejaVuSans-69" x="1874.613281"/>
      <use xlink:href="#DejaVuSans-74" x="1902.396484"/>
      <use xlink:href="#DejaVuSans-79" x="1941.605469"/>
      <use xlink:href="#DejaVuSans-2c" x="2000.785156"/>
      <use xlink:href="#DejaVuSans-20" x="2032.572266"/>
      <use xlink:href="#DejaVuSans-61" x="2064.359375"/>
      <use xlink:href="#DejaVuSans-63" x="2125.638672"/>
      <use xlink:href="#DejaVuSans-63" x="2180.619141"/>
      <use xlink:href="#DejaVuSans-65" x="2235.599609"/>
      <use xlink:href="#DejaVuSans-6c" x="2297.123047"/>
      <use xlink:href="#DejaVuSans-65" x="2324.90625"/>
      <use xlink:href="#DejaVuSans-72" x="2386.429688"/>
      <use xlink:href="#DejaVuSans-61" x="2427.542969"/>
      <use xlink:href="#DejaVuSans-74" x="2488.822266"/>
      <use xlink:href="#DejaVuSans-69" x="2528.03125"/>
      <use xlink:href="#DejaVuSans-6f" x="2555.814453"/>
      <use xlink:href="#DejaVuSans-6e" x="2616.996094"/>
      <use xlink:href="#DejaVuSans-20" x="2680.375"/>
      <use xlink:href="#DejaVuSans-3d" x="2712.162109"/>
      <use xlink:href="#DejaVuSans-20" x="2795.951172"/>
      <use xlink:href="#DejaVuSans-30" x="2827.738281"/>
     </g>
    </g>
    <g id="line2d_32">
     <path d="M 778.418281 586.066344 
L 789.418281 586.066344 
L 800.418281 586.066344 
" style="fill: none; stroke: #2ca02c; stroke-width: 1.5; stroke-linecap: square"/>
    </g>
    <g id="text_19">
     <!-- 5. position only (velocity = acceleration = 0) -->
     <g transform="translate(809.218281 589.916344) scale(0.11 -0.11)">
      <use xlink:href="#DejaVuSans-35"/>
      <use xlink:href="#DejaVuSans-2e" x="63.623047"/>
      <use xlink:href="#DejaVuSans-20" x="95.410156"/>
      <use xlink:href="#DejaVuSans-70" x="127.197266"/>
      <use xlink:href="#DejaVuSans-6f" x="190.673828"/>
      <use xlink:href="#DejaVuSans-73" x="251.855469"/>
      <use xlink:href="#DejaVuSans-69" x="303.955078"/>
      <use xlink:href="#DejaVuSans-74" x="331.738281"/>
      <use xlink:href="#DejaVuSans-69" x="370.947266"/>
      <use xlink:href="#DejaVuSans-6f" x="398.730469"/>
      <use xlink:href="#DejaVuSans-6e" x="459.912109"/>
      <use xlink:href="#DejaVuSans-20" x="523.291016"/>
      <use xlink:href="#DejaVuSans-6f" x="555.078125"/>
      <use xlink:href="#DejaVuSans-6e" x="616.259766"/>
      <use xlink:href="#DejaVuSans-6c" x="679.638672"/>
      <use xlink:href="#DejaVuSans-79" x="707.421875"/>
      <use xlink:href="#DejaVuSans-20" x="766.601562"/>
      <use xlink:href="#DejaVuSans-28" x="798.388672"/>
      <use xlink:href="#DejaVuSans-76" x="837.402344"/>
      <use xlink:href="#DejaVuSans-65" x="896.582031"/>
      <use xlink:href="#DejaVuSans-6c" x="958.105469"/>
      <use xlink:href="#DejaVuSans-6f" x="985.888672"/>
      <use xlink:href="#DejaVuSans-63" x="1047.070312"/>
      <use xlink:href="#DejaVuSans-69" x="1102.050781"/>
      <use xlink:href="#DejaVuSans-74" x="1129.833984"/>
      <use xlink:href="#DejaVuSans-79" x="1169.042969"/>
      <use xlink:href="#DejaVuSans-20" x="1228.222656"/>
      <use xlink:href="#DejaVuSans-3d" x="1260.009766"/>
      <use xlink:href="#DejaVuSans-20" x="1343.798828"/>
      <use xlink:href="#DejaVuSans-61" x="1375.585938"/>
      <use xlink:href="#DejaVuSans-63" x="1436.865234"/>
      <use xlink:href="#DejaVuSans-63" x="1491.845703"/>
      <use xlink:href="#DejaVuSans-65" x="1546.826172"/>
      <use xlink:href="#DejaVuSans-6c" x="1608.349609"/>
      <use xlink:href="#DejaVuSans-65" x="1636.132812"/>
      <use xlink:href="#DejaVuSans-72" x="1697.65625"/>
      <use xlink:href="#DejaVuSans-61" x="1738.769531"/>
      <use xlink:href="#DejaVuSans-74" x="1800.048828"/>
      <use xlink:href="#DejaVuSans-69" x="1839.257812"/>
      <use xlink:href="#DejaVuSans-6f" x="1867.041016"/>
      <use xlink:href="#DejaVuSans-6e" x="1928.222656"/>
      <use xlink:href="#DejaVuSans-20" x="1991.601562"/>
      <use xlink:href="#DejaVuSans-3d" x="2023.388672"/>
      <use xlink:href="#DejaVuSans-20" x="2107.177734"/>
      <use xlink:href="#DejaVuSans-30" x="2138.964844"/>
      <use xlink:href="#DejaVuSans-29" x="2202.587891"/>
     </g>
    </g>
   </g>
  </g>
 </g>
 <defs>
  <clipPath id="p134e8bc934">
   <rect x="43.78125" y="24.12" width="1093.39" height="577.984"/>
  </clipPath>
 </defs>
</svg>
