<?xml version="1.0" encoding="utf-8" standalone="no"?>
<!DOCTYPE svg PUBLIC "-//W3C//DTD SVG 1.1//EN"
  "http://www.w3.org/Graphics/SVG/1.1/DTD/svg11.dtd">
<svg xmlns:xlink="http://www.w3.org/1999/xlink" width="1144.800937pt" height="640.954375pt" viewBox="0 0 1144.800937 640.954375" xmlns="http://www.w3.org/2000/svg" version="1.1">
 <metadata>
  <rdf:RDF xmlns:dc="http://purl.org/dc/elements/1.1/" xmlns:cc="http://creativecommons.org/ns#" xmlns:rdf="http://www.w3.org/1999/02/22-rdf-syntax-ns#">
   <cc:Work>
    <dc:type rdf:resource="http://purl.org/dc/dcmitype/StillImage"/>
    <dc:date>2026-07-11T12:00:43.566539</dc:date>
    <dc:format>image/svg+xml</dc:format>
    <dc:creator>
     <cc:Agent>
      <dc:title>Matplotlib v3.9.4, https://matplotlib.org/</dc:title>
     </cc:Agent>
    </dc:creator>
   </cc:Work>
  </rdf:RDF>
 </metadata>
 <defs>
  <style type="text/css">*{stroke-linejoin: round; stroke-linecap: butt}</style>
 </defs>
 <g id="figure_1">
  <g id="patch_1">
   <path d="M 0 640.954375 
L 1144.800937 640.954375 
L 1144.800937 0 
L 0 0 
z
" style="fill: #ffffff"/>
  </g>
  <g id="axes_1">
   <g id="patch_2">
    <path d="M 52.160938 603.398125 
L 1137.600938 603.398125 
L 1137.600938 22.318125 
L 52.160938 22.318125 
z
" style="fill: #ffffff"/>
   </g>
   <g id="matplotlib.axis_1">
    <g id="xtick_1">
     <g id="line2d_1">
      <path d="M 101.499119 603.398125 
L 101.499119 22.318125 
" clip-path="url(#p22205e8859)" style="fill: none; stroke: #b0b0b0; stroke-opacity: 0.3; stroke-width: 0.8; stroke-linecap: square"/>
     </g>
     <g id="line2d_2">
      <defs>
       <path id="mc72ba33e6d" d="M 0 0 
L 0 3.5 
" style="stroke: #000000; stroke-width: 0.8"/>
      </defs>
      <g>
       <use xlink:href="#mc72ba33e6d" x="101.499119" y="603.398125" style="stroke: #000000; stroke-width: 0.8"/>
      </g>
     </g>
     <g id="text_1">
      <!-- 0 -->
      <g transform="translate(98.317869 617.996562) scale(0.1 -0.1)">
       <defs>
        <path id="DejaVuSans-30" d="M 2034 4250 
Q 1547 4250 1301 3770 
Q 1056 3291 1056 2328 
Q 1056 1369 1301 889 
Q 1547 409 2034 409 
Q 2525 409 2770 889 
Q 3016 1369 3016 2328 
Q 3016 3291 2770 3770 
Q 2525 4250 2034 4250 
z
M 2034 4750 
Q 2819 4750 3233 4129 
Q 3647 3509 3647 2328 
Q 3647 1150 3233 529 
Q 2819 -91 2034 -91 
Q 1250 -91 836 529 
Q 422 1150 422 2328 
Q 422 3509 836 4129 
Q 1250 4750 2034 4750 
z
" transform="scale(0.015625)"/>
       </defs>
       <use xlink:href="#DejaVuSans-30"/>
      </g>
     </g>
    </g>
    <g id="xtick_2">
     <g id="line2d_3">
      <path d="M 332.591306 603.398125 
L 332.591306 22.318125 
" clip-path="url(#p22205e8859)" style="fill: none; stroke: #b0b0b0; stroke-opacity: 0.3; stroke-width: 0.8; stroke-linecap: square"/>
     </g>
     <g id="line2d_4">
      <g>
       <use xlink:href="#mc72ba33e6d" x="332.591306" y="603.398125" style="stroke: #000000; stroke-width: 0.8"/>
      </g>
     </g>
     <g id="text_2">
      <!-- 5 -->
      <g transform="translate(329.410056 617.996562) scale(0.1 -0.1)">
       <defs>
        <path id="DejaVuSans-35" d="M 691 4666 
L 3169 4666 
L 3169 4134 
L 1269 4134 
L 1269 2991 
Q 1406 3038 1543 3061 
Q 1681 3084 1819 3084 
Q 2600 3084 3056 2656 
Q 3513 2228 3513 1497 
Q 3513 744 3044 326 
Q 2575 -91 1722 -91 
Q 1428 -91 1123 -41 
Q 819 9 494 109 
L 494 744 
Q 775 591 1075 516 
Q 1375 441 1709 441 
Q 2250 441 2565 725 
Q 2881 1009 2881 1497 
Q 2881 1984 2565 2268 
Q 2250 2553 1709 2553 
Q 1456 2553 1204 2497 
Q 953 2441 691 2322 
L 691 4666 
z
" transform="scale(0.015625)"/>
       </defs>
       <use xlink:href="#DejaVuSans-35"/>
      </g>
     </g>
    </g>
    <g id="xtick_3">
     <g id="line2d_5">
      <path d="M 563.683492 603.398125 
L 563.683492 22.318125 
" clip-path="url(#p22205e8859)" style="fill: none; stroke: #b0b0b0; stroke-opacity: 0.3; stroke-width: 0.8; stroke-linecap: square"/>
     </g>
     <g id="line2d_6">
      <g>
       <use xlink:href="#mc72ba33e6d" x="563.683492" y="603.398125" style="stroke: #000000; stroke-width: 0.8"/>
      </g>
     </g>
     <g id="text_3">
      <!-- 10 -->
      <g transform="translate(557.320992 617.996562) scale(0.1 -0.1)">
       <defs>
        <path id="DejaVuSans-31" d="M 794 531 
L 1825 531 
L 1825 4091 
L 703 3866 
L 703 4441 
L 1819 4666 
L 2450 4666 
L 2450 531 
L 3481 531 
L 3481 0 
L 794 0 
L 794 531 
z
" transform="scale(0.015625)"/>
       </defs>
       <use xlink:href="#DejaVuSans-31"/>
       <use xlink:href="#DejaVuSans-30" x="63.623047"/>
      </g>
     </g>
    </g>
    <g id="xtick_4">
     <g id="line2d_7">
      <path d="M 794.775679 603.398125 
L 794.775679 22.318125 
" clip-path="url(#p22205e8859)" style="fill: none; stroke: #b0b0b0; stroke-opacity: 0.3; stroke-width: 0.8; stroke-linecap: square"/>
     </g>
     <g id="line2d_8">
      <g>
       <use xlink:href="#mc72ba33e6d" x="794.775679" y="603.398125" style="stroke: #000000; stroke-width: 0.8"/>
      </g>
     </g>
     <g id="text_4">
      <!-- 15 -->
      <g transform="translate(788.413179 617.996562) scale(0.1 -0.1)">
       <use xlink:href="#DejaVuSans-31"/>
       <use xlink:href="#DejaVuSans-35" x="63.623047"/>
      </g>
     </g>
    </g>
    <g id="xtick_5">
     <g id="line2d_9">
      <path d="M 1025.867865 603.398125 
L 1025.867865 22.318125 
" clip-path="url(#p22205e8859)" style="fill: none; stroke: #b0b0b0; stroke-opacity: 0.3; stroke-width: 0.8; stroke-linecap: square"/>
     </g>
     <g id="line2d_10">
      <g>
       <use xlink:href="#mc72ba33e6d" x="1025.867865" y="603.398125" style="stroke: #000000; stroke-width: 0.8"/>
      </g>
     </g>
     <g id="text_5">
      <!-- 20 -->
      <g transform="translate(1019.505365 617.996562) scale(0.1 -0.1)">
       <defs>
        <path id="DejaVuSans-32" d="M 1228 531 
L 3431 531 
L 3431 0 
L 469 0 
L 469 531 
Q 828 903 1448 1529 
Q 2069 2156 2228 2338 
Q 2531 2678 2651 2914 
Q 2772 3150 2772 3378 
Q 2772 3750 2511 3984 
Q 2250 4219 1831 4219 
Q 1534 4219 1204 4116 
Q 875 4013 500 3803 
L 500 4441 
Q 881 4594 1212 4672 
Q 1544 4750 1819 4750 
Q 2544 4750 2975 4387 
Q 3406 4025 3406 3419 
Q 3406 3131 3298 2873 
Q 3191 2616 2906 2266 
Q 2828 2175 2409 1742 
Q 1991 1309 1228 531 
z
" transform="scale(0.015625)"/>
       </defs>
       <use xlink:href="#DejaVuSans-32"/>
       <use xlink:href="#DejaVuSans-30" x="63.623047"/>
      </g>
     </g>
    </g>
    <g id="text_6">
     <!-- Time [s] -->
     <g transform="translate(574.552031 631.674687) scale(0.1 -0.1)">
      <defs>
       <path id="DejaVuSans-54" d="M -19 4666 
L 3928 4666 
L 3928 4134 
L 2272 4134 
L 2272 0 
L 1638 0 
L 1638 4134 
L -19 4134 
L -19 4666 
z
" transform="scale(0.015625)"/>
       <path id="DejaVuSans-69" d="M 603 3500 
L 1178 3500 
L 1178 0 
L 603 0 
L 603 3500 
z
M 603 4863 
L 1178 4863 
L 1178 4134 
L 603 4134 
L 603 4863 
z
" transform="scale(0.015625)"/>
       <path id="DejaVuSans-6d" d="M 3328 2828 
Q 3544 3216 3844 3400 
Q 4144 3584 4550 3584 
Q 5097 3584 5394 3201 
Q 5691 2819 5691 2113 
L 5691 0 
L 5113 0 
L 5113 2094 
Q 5113 2597 4934 2840 
Q 4756 3084 4391 3084 
Q 3944 3084 3684 2787 
Q 3425 2491 3425 1978 
L 3425 0 
L 2847 0 
L 2847 2094 
Q 2847 2600 2669 2842 
Q 2491 3084 2119 3084 
Q 1678 3084 1418 2786 
Q 1159 2488 1159 1978 
L 1159 0 
L 581 0 
L 581 3500 
L 1159 3500 
L 1159 2956 
Q 1356 3278 1631 3431 
Q 1906 3584 2284 3584 
Q 2666 3584 2933 3390 
Q 3200 3197 3328 2828 
z
" transform="scale(0.015625)"/>
       <path id="DejaVuSans-65" d="M 3597 1894 
L 3597 1613 
L 953 1613 
Q 991 1019 1311 708 
Q 1631 397 2203 397 
Q 2534 397 2845 478 
Q 3156 559 3463 722 
L 3463 178 
Q 3153 47 2828 -22 
Q 2503 -91 2169 -91 
Q 1331 -91 842 396 
Q 353 884 353 1716 
Q 353 2575 817 3079 
Q 1281 3584 2069 3584 
Q 2775 3584 3186 3129 
Q 3597 2675 3597 1894 
z
M 3022 2063 
Q 3016 2534 2758 2815 
Q 2500 3097 2075 3097 
Q 1594 3097 1305 2825 
Q 1016 2553 972 2059 
L 3022 2063 
z
" transform="scale(0.015625)"/>
       <path id="DejaVuSans-20" transform="scale(0.015625)"/>
       <path id="DejaVuSans-5b" d="M 550 4863 
L 1875 4863 
L 1875 4416 
L 1125 4416 
L 1125 -397 
L 1875 -397 
L 1875 -844 
L 550 -844 
L 550 4863 
z
" transform="scale(0.015625)"/>
       <path id="DejaVuSans-73" d="M 2834 3397 
L 2834 2853 
Q 2591 2978 2328 3040 
Q 2066 3103 1784 3103 
Q 1356 3103 1142 2972 
Q 928 2841 928 2578 
Q 928 2378 1081 2264 
Q 1234 2150 1697 2047 
L 1894 2003 
Q 2506 1872 2764 1633 
Q 3022 1394 3022 966 
Q 3022 478 2636 193 
Q 2250 -91 1575 -91 
Q 1294 -91 989 -36 
Q 684 19 347 128 
L 347 722 
Q 666 556 975 473 
Q 1284 391 1588 391 
Q 1994 391 2212 530 
Q 2431 669 2431 922 
Q 2431 1156 2273 1281 
Q 2116 1406 1581 1522 
L 1381 1569 
Q 847 1681 609 1914 
Q 372 2147 372 2553 
Q 372 3047 722 3315 
Q 1072 3584 1716 3584 
Q 2034 3584 2315 3537 
Q 2597 3491 2834 3397 
z
" transform="scale(0.015625)"/>
       <path id="DejaVuSans-5d" d="M 1947 4863 
L 1947 -844 
L 622 -844 
L 622 -397 
L 1369 -397 
L 1369 4416 
L 622 4416 
L 622 4863 
L 1947 4863 
z
" transform="scale(0.015625)"/>
      </defs>
      <use xlink:href="#DejaVuSans-54"/>
      <use xlink:href="#DejaVuSans-69" x="57.958984"/>
      <use xlink:href="#DejaVuSans-6d" x="85.742188"/>
      <use xlink:href="#DejaVuSans-65" x="183.154297"/>
      <use xlink:href="#DejaVuSans-20" x="244.677734"/>
      <use xlink:href="#DejaVuSans-5b" x="276.464844"/>
      <use xlink:href="#DejaVuSans-73" x="315.478516"/>
      <use xlink:href="#DejaVuSans-5d" x="367.578125"/>
     </g>
    </g>
   </g>
   <g id="matplotlib.axis_2">
    <g id="ytick_1">
     <g id="line2d_11">
      <path d="M 52.160938 537.787856 
L 1137.600938 537.787856 
" clip-path="url(#p22205e8859)" style="fill: none; stroke: #b0b0b0; stroke-opacity: 0.3; stroke-width: 0.8; stroke-linecap: square"/>
     </g>
     <g id="line2d_12">
      <defs>
       <path id="me7b84932f3" d="M 0 0 
L -3.5 0 
" style="stroke: #000000; stroke-width: 0.8"/>
      </defs>
      <g>
       <use xlink:href="#me7b84932f3" x="52.160938" y="537.787856" style="stroke: #000000; stroke-width: 0.8"/>
      </g>
     </g>
     <g id="text_7">
      <!-- −1.0 -->
      <g transform="translate(20.878125 541.587075) scale(0.1 -0.1)">
       <defs>
        <path id="DejaVuSans-2212" d="M 678 2272 
L 4684 2272 
L 4684 1741 
L 678 1741 
L 678 2272 
z
" transform="scale(0.015625)"/>
        <path id="DejaVuSans-2e" d="M 684 794 
L 1344 794 
L 1344 0 
L 684 0 
L 684 794 
z
" transform="scale(0.015625)"/>
       </defs>
       <use xlink:href="#DejaVuSans-2212"/>
       <use xlink:href="#DejaVuSans-31" x="83.789062"/>
       <use xlink:href="#DejaVuSans-2e" x="147.412109"/>
       <use xlink:href="#DejaVuSans-30" x="179.199219"/>
      </g>
     </g>
    </g>
    <g id="ytick_2">
     <g id="line2d_13">
      <path d="M 52.160938 471.968912 
L 1137.600938 471.968912 
" clip-path="url(#p22205e8859)" style="fill: none; stroke: #b0b0b0; stroke-opacity: 0.3; stroke-width: 0.8; stroke-linecap: square"/>
     </g>
     <g id="line2d_14">
      <g>
       <use xlink:href="#me7b84932f3" x="52.160938" y="471.968912" style="stroke: #000000; stroke-width: 0.8"/>
      </g>
     </g>
     <g id="text_8">
      <!-- −0.8 -->
      <g transform="translate(20.878125 475.768131) scale(0.1 -0.1)">
       <defs>
        <path id="DejaVuSans-38" d="M 2034 2216 
Q 1584 2216 1326 1975 
Q 1069 1734 1069 1313 
Q 1069 891 1326 650 
Q 1584 409 2034 409 
Q 2484 409 2743 651 
Q 3003 894 3003 1313 
Q 3003 1734 2745 1975 
Q 2488 2216 2034 2216 
z
M 1403 2484 
Q 997 2584 770 2862 
Q 544 3141 544 3541 
Q 544 4100 942 4425 
Q 1341 4750 2034 4750 
Q 2731 4750 3128 4425 
Q 3525 4100 3525 3541 
Q 3525 3141 3298 2862 
Q 3072 2584 2669 2484 
Q 3125 2378 3379 2068 
Q 3634 1759 3634 1313 
Q 3634 634 3220 271 
Q 2806 -91 2034 -91 
Q 1263 -91 848 271 
Q 434 634 434 1313 
Q 434 1759 690 2068 
Q 947 2378 1403 2484 
z
M 1172 3481 
Q 1172 3119 1398 2916 
Q 1625 2713 2034 2713 
Q 2441 2713 2670 2916 
Q 2900 3119 2900 3481 
Q 2900 3844 2670 4047 
Q 2441 4250 2034 4250 
Q 1625 4250 1398 4047 
Q 1172 3844 1172 3481 
z
" transform="scale(0.015625)"/>
       </defs>
       <use xlink:href="#DejaVuSans-2212"/>
       <use xlink:href="#DejaVuSans-30" x="83.789062"/>
       <use xlink:href="#DejaVuSans-2e" x="147.412109"/>
       <use xlink:href="#DejaVuSans-38" x="179.199219"/>
      </g>
     </g>
    </g>
    <g id="ytick_3">
     <g id="line2d_15">
      <path d="M 52.160938 406.149968 
L 1137.600938 406.149968 
" clip-path="url(#p22205e8859)" style="fill: none; stroke: #b0b0b0; stroke-opacity: 0.3; stroke-width: 0.8; stroke-linecap: square"/>
     </g>
     <g id="line2d_16">
      <g>
       <use xlink:href="#me7b84932f3" x="52.160938" y="406.149968" style="stroke: #000000; stroke-width: 0.8"/>
      </g>
     </g>
     <g id="text_9">
      <!-- −0.6 -->
      <g transform="translate(20.878125 409.949187) scale(0.1 -0.1)">
       <defs>
        <path id="DejaVuSans-36" d="M 2113 2584 
Q 1688 2584 1439 2293 
Q 1191 2003 1191 1497 
Q 1191 994 1439 701 
Q 1688 409 2113 409 
Q 2538 409 2786 701 
Q 3034 994 3034 1497 
Q 3034 2003 2786 2293 
Q 2538 2584 2113 2584 
z
M 3366 4563 
L 3366 3988 
Q 3128 4100 2886 4159 
Q 2644 4219 2406 4219 
Q 1781 4219 1451 3797 
Q 1122 3375 1075 2522 
Q 1259 2794 1537 2939 
Q 1816 3084 2150 3084 
Q 2853 3084 3261 2657 
Q 3669 2231 3669 1497 
Q 3669 778 3244 343 
Q 2819 -91 2113 -91 
Q 1303 -91 875 529 
Q 447 1150 447 2328 
Q 447 3434 972 4092 
Q 1497 4750 2381 4750 
Q 2619 4750 2861 4703 
Q 3103 4656 3366 4563 
z
" transform="scale(0.015625)"/>
       </defs>
       <use xlink:href="#DejaVuSans-2212"/>
       <use xlink:href="#DejaVuSans-30" x="83.789062"/>
       <use xlink:href="#DejaVuSans-2e" x="147.412109"/>
       <use xlink:href="#DejaVuSans-36" x="179.199219"/>
      </g>
     </g>
    </g>
    <g id="ytick_4">
     <g id="line2d_17">
      <path d="M 52.160938 340.331024 
L 1137.600938 340.331024 
" clip-path="url(#p22205e8859)" style="fill: none; stroke: #b0b0b0; stroke-opacity: 0.3; stroke-width: 0.8; stroke-linecap: square"/>
     </g>
     <g id="line2d_18">
      <g>
       <use xlink:href="#me7b84932f3" x="52.160938" y="340.331024" style="stroke: #000000; stroke-width: 0.8"/>
      </g>
     </g>
     <g id="text_10">
      <!-- −0.4 -->
      <g transform="translate(20.878125 344.130243) scale(0.1 -0.1)">
       <defs>
        <path id="DejaVuSans-34" d="M 2419 4116 
L 825 1625 
L 2419 1625 
L 2419 4116 
z
M 2253 4666 
L 3047 4666 
L 3047 1625 
L 3713 1625 
L 3713 1100 
L 3047 1100 
L 3047 0 
L 2419 0 
L 2419 1100 
L 313 1100 
L 313 1709 
L 2253 4666 
z
" transform="scale(0.015625)"/>
       </defs>
       <use xlink:href="#DejaVuSans-2212"/>
       <use xlink:href="#DejaVuSans-30" x="83.789062"/>
       <use xlink:href="#DejaVuSans-2e" x="147.412109"/>
       <use xlink:href="#DejaVuSans-34" x="179.199219"/>
      </g>
     </g>
    </g>
    <g id="ytick_5">
     <g id="line2d_19">
      <path d="M 52.160938 274.51208 
L 1137.600938 274.51208 
" clip-path="url(#p22205e8859)" style="fill: none; stroke: #b0b0b0; stroke-opacity: 0.3; stroke-width: 0.8; stroke-linecap: square"/>
     </g>
     <g id="line2d_20">
      <g>
       <use xlink:href="#me7b84932f3" x="52.160938" y="274.51208" style="stroke: #000000; stroke-width: 0.8"/>
      </g>
     </g>
     <g id="text_11">
      <!-- −0.2 -->
      <g transform="translate(20.878125 278.311299) scale(0.1 -0.1)">
       <use xlink:href="#DejaVuSans-2212"/>
       <use xlink:href="#DejaVuSans-30" x="83.789062"/>
       <use xlink:href="#DejaVuSans-2e" x="147.412109"/>
       <use xlink:href="#DejaVuSans-32" x="179.199219"/>
      </g>
     </g>
    </g>
    <g id="ytick_6">
     <g id="line2d_21">
      <path d="M 52.160938 208.693137 
L 1137.600938 208.693137 
" clip-path="url(#p22205e8859)" style="fill: none; stroke: #b0b0b0; stroke-opacity: 0.3; stroke-width: 0.8; stroke-linecap: square"/>
     </g>
     <g id="line2d_22">
      <g>
       <use xlink:href="#me7b84932f3" x="52.160938" y="208.693137" style="stroke: #000000; stroke-width: 0.8"/>
      </g>
     </g>
     <g id="text_12">
      <!-- 0.0 -->
      <g transform="translate(29.257812 212.492355) scale(0.1 -0.1)">
       <use xlink:href="#DejaVuSans-30"/>
       <use xlink:href="#DejaVuSans-2e" x="63.623047"/>
       <use xlink:href="#DejaVuSans-30" x="95.410156"/>
      </g>
     </g>
    </g>
    <g id="ytick_7">
     <g id="line2d_23">
      <path d="M 52.160938 142.874193 
L 1137.600938 142.874193 
" clip-path="url(#p22205e8859)" style="fill: none; stroke: #b0b0b0; stroke-opacity: 0.3; stroke-width: 0.8; stroke-linecap: square"/>
     </g>
     <g id="line2d_24">
      <g>
       <use xlink:href="#me7b84932f3" x="52.160938" y="142.874193" style="stroke: #000000; stroke-width: 0.8"/>
      </g>
     </g>
     <g id="text_13">
      <!-- 0.2 -->
      <g transform="translate(29.257812 146.673411) scale(0.1 -0.1)">
       <use xlink:href="#DejaVuSans-30"/>
       <use xlink:href="#DejaVuSans-2e" x="63.623047"/>
       <use xlink:href="#DejaVuSans-32" x="95.410156"/>
      </g>
     </g>
    </g>
    <g id="ytick_8">
     <g id="line2d_25">
      <path d="M 52.160938 77.055249 
L 1137.600938 77.055249 
" clip-path="url(#p22205e8859)" style="fill: none; stroke: #b0b0b0; stroke-opacity: 0.3; stroke-width: 0.8; stroke-linecap: square"/>
     </g>
     <g id="line2d_26">
      <g>
       <use xlink:href="#me7b84932f3" x="52.160938" y="77.055249" style="stroke: #000000; stroke-width: 0.8"/>
      </g>
     </g>
     <g id="text_14">
      <!-- 0.4 -->
      <g transform="translate(29.257812 80.854468) scale(0.1 -0.1)">
       <use xlink:href="#DejaVuSans-30"/>
       <use xlink:href="#DejaVuSans-2e" x="63.623047"/>
       <use xlink:href="#DejaVuSans-34" x="95.410156"/>
      </g>
     </g>
    </g>
    <g id="text_15">
     <!-- Position -->
     <g transform="translate(14.798437 332.322187) rotate(-90) scale(0.1 -0.1)">
      <defs>
       <path id="DejaVuSans-50" d="M 1259 4147 
L 1259 2394 
L 2053 2394 
Q 2494 2394 2734 2622 
Q 2975 2850 2975 3272 
Q 2975 3691 2734 3919 
Q 2494 4147 2053 4147 
L 1259 4147 
z
M 628 4666 
L 2053 4666 
Q 2838 4666 3239 4311 
Q 3641 3956 3641 3272 
Q 3641 2581 3239 2228 
Q 2838 1875 2053 1875 
L 1259 1875 
L 1259 0 
L 628 0 
L 628 4666 
z
" transform="scale(0.015625)"/>
       <path id="DejaVuSans-6f" d="M 1959 3097 
Q 1497 3097 1228 2736 
Q 959 2375 959 1747 
Q 959 1119 1226 758 
Q 1494 397 1959 397 
Q 2419 397 2687 759 
Q 2956 1122 2956 1747 
Q 2956 2369 2687 2733 
Q 2419 3097 1959 3097 
z
M 1959 3584 
Q 2709 3584 3137 3096 
Q 3566 2609 3566 1747 
Q 3566 888 3137 398 
Q 2709 -91 1959 -91 
Q 1206 -91 779 398 
Q 353 888 353 1747 
Q 353 2609 779 3096 
Q 1206 3584 1959 3584 
z
" transform="scale(0.015625)"/>
       <path id="DejaVuSans-74" d="M 1172 4494 
L 1172 3500 
L 2356 3500 
L 2356 3053 
L 1172 3053 
L 1172 1153 
Q 1172 725 1289 603 
Q 1406 481 1766 481 
L 2356 481 
L 2356 0 
L 1766 0 
Q 1100 0 847 248 
Q 594 497 594 1153 
L 594 3053 
L 172 3053 
L 172 3500 
L 594 3500 
L 594 4494 
L 1172 4494 
z
" transform="scale(0.015625)"/>
       <path id="DejaVuSans-6e" d="M 3513 2113 
L 3513 0 
L 2938 0 
L 2938 2094 
Q 2938 2591 2744 2837 
Q 2550 3084 2163 3084 
Q 1697 3084 1428 2787 
Q 1159 2491 1159 1978 
L 1159 0 
L 581 0 
L 581 3500 
L 1159 3500 
L 1159 2956 
Q 1366 3272 1645 3428 
Q 1925 3584 2291 3584 
Q 2894 3584 3203 3211 
Q 3513 2838 3513 2113 
z
" transform="scale(0.015625)"/>
      </defs>
      <use xlink:href="#DejaVuSans-50"/>
      <use xlink:href="#DejaVuSans-6f" x="56.677734"/>
      <use xlink:href="#DejaVuSans-73" x="117.859375"/>
      <use xlink:href="#DejaVuSans-69" x="169.958984"/>
      <use xlink:href="#DejaVuSans-74" x="197.742188"/>
      <use xlink:href="#DejaVuSans-69" x="236.951172"/>
      <use xlink:href="#DejaVuSans-6f" x="264.734375"/>
      <use xlink:href="#DejaVuSans-6e" x="325.916016"/>
     </g>
    </g>
   </g>
   <g id="line2d_27">
    <path d="M 101.499119 206.431279 
L 109.818438 206.516956 
L 114.902466 206.876183 
L 117.675572 207.526473 
L 120.448679 207.589381 
L 134.31421 207.980166 
L 144.94445 207.873479 
L 154.188138 207.462439 
L 156.49906 207.06083 
L 157.423428 207.237144 
L 158.347797 207.592148 
L 159.272166 207.639001 
L 160.196535 207.320166 
L 162.045272 206.303462 
L 162.969641 206.011804 
L 163.431825 205.925153 
L 164.356194 206.175691 
L 165.280563 207.18937 
L 167.1293 209.952928 
L 168.515853 211.336161 
L 168.978038 211.699083 
L 170.826775 212.355478 
L 171.751144 212.567605 
L 172.213328 212.909077 
L 172.675513 212.752395 
L 173.599882 212.770522 
L 174.062066 212.713878 
L 174.52425 212.846055 
L 174.986435 212.656913 
L 175.910803 212.716595 
L 176.372988 212.525499 
L 176.835172 212.114231 
L 177.297356 211.858184 
L 177.759541 211.779542 
L 178.221725 211.219835 
L 178.68391 211.06266 
L 179.146094 210.721783 
L 180.070463 210.269494 
L 182.843569 208.82092 
L 183.767938 208.600344 
L 184.230122 208.637854 
L 185.616675 209.618863 
L 186.541044 210.677726 
L 188.389781 213.542006 
L 188.851966 213.695901 
L 189.31415 215.058653 
L 190.238519 216.494831 
L 190.700703 217.920239 
L 191.162888 217.920254 
L 192.087256 219.473481 
L 192.549441 221.011514 
L 193.011625 221.738234 
L 193.47381 222.065088 
L 193.935994 222.967868 
L 194.398178 222.967797 
L 195.322547 223.962138 
L 197.633469 226.371402 
L 198.095653 226.371294 
L 199.944391 227.429323 
L 202.255313 228.432698 
L 203.641866 229.016321 
L 204.10405 229.015207 
L 204.566234 229.361921 
L 205.952788 229.864137 
L 207.801525 230.680752 
L 209.188078 231.550751 
L 209.650263 231.855276 
L 210.574631 232.066782 
L 211.036816 232.440099 
L 211.499 232.609439 
L 211.961184 233.048711 
L 212.885553 233.347426 
L 213.347738 233.829706 
L 214.272106 234.389207 
L 214.734291 234.494664 
L 215.196475 235.25194 
L 215.658659 235.442363 
L 216.120844 235.339232 
L 216.583028 235.984815 
L 217.507397 236.777146 
L 217.969581 237.384125 
L 220.742688 239.55004 
L 221.667056 239.788273 
L 222.129241 239.750555 
L 222.591425 239.596037 
L 223.515794 238.815875 
L 224.440163 237.611665 
L 226.2889 234.129874 
L 227.675453 231.667604 
L 228.137638 231.179274 
L 228.599822 229.873591 
L 229.062006 229.59199 
L 229.524191 228.569935 
L 229.986375 228.304267 
L 231.835113 225.89553 
L 232.759481 225.267215 
L 233.221666 225.148601 
L 234.146034 224.55081 
L 235.994772 223.610223 
L 237.381325 223.318349 
L 237.843509 223.32141 
L 238.767878 223.025794 
L 239.692247 222.991484 
L 242.003169 222.526294 
L 242.465353 222.403472 
L 242.927537 222.435018 
L 243.389722 222.098333 
L 246.625012 221.837556 
L 247.087197 221.483157 
L 247.549381 221.741716 
L 248.47375 221.462454 
L 248.935934 221.723903 
L 249.398119 221.479907 
L 249.860303 220.890289 
L 250.322487 220.703721 
L 250.784672 220.310325 
L 251.246856 220.438783 
L 252.171225 220.116271 
L 254.019962 219.540212 
L 254.482147 219.065926 
L 254.944331 219.239362 
L 255.406516 218.938126 
L 256.330884 218.569278 
L 258.179622 217.629121 
L 258.641806 217.324211 
L 259.103991 216.780272 
L 259.566175 216.818562 
L 260.028359 216.510827 
L 260.490544 216.013544 
L 260.952728 215.913054 
L 263.725834 214.022606 
L 265.574572 212.6679 
L 266.49894 212.365316 
L 266.961125 211.91766 
L 268.347678 211.052452 
L 270.196415 209.707755 
L 271.120784 209.330173 
L 272.969522 208.860565 
L 273.431706 208.638642 
L 274.818259 208.554486 
L 276.666997 208.377948 
L 278.977919 208.977722 
L 281.28884 209.762696 
L 284.524131 212.09767 
L 286.835053 214.5781 
L 290.994712 219.645783 
L 291.456897 220.493123 
L 291.919081 222.148294 
L 292.381265 222.195628 
L 292.84345 222.9896 
L 293.305634 223.26823 
L 293.767818 224.63566 
L 294.692187 226.12771 
L 295.616556 227.603331 
L 296.07874 228.999122 
L 296.540925 229.58429 
L 297.927478 232.328049 
L 298.389662 234.030094 
L 298.851847 234.616077 
L 299.314031 237.464715 
L 299.776215 237.205419 
L 300.2384 237.792002 
L 300.700584 240.24512 
L 301.162768 243.488764 
L 301.624953 243.995774 
L 302.549322 248.302729 
L 303.935875 256.074524 
L 304.860243 261.733946 
L 305.322428 267.934446 
L 305.784612 267.931942 
L 307.171165 276.467653 
L 308.095534 282.431526 
L 308.557718 287.69782 
L 309.019903 287.976953 
L 309.482087 290.716289 
L 309.944272 295.39269 
L 310.406456 295.484909 
L 311.330825 299.904795 
L 312.255193 303.259624 
L 315.0283 312.309414 
L 315.952668 316.340911 
L 317.339222 324.28319 
L 317.801406 324.283915 
L 318.725775 334.895711 
L 319.187959 337.564214 
L 319.650143 337.583036 
L 320.112328 340.173003 
L 320.574512 344.990683 
L 321.036696 347.376029 
L 321.498881 347.37519 
L 321.961065 349.805487 
L 322.42325 351.537014 
L 322.885434 353.714543 
L 323.347618 356.969857 
L 323.809803 356.970488 
L 324.271987 358.337076 
L 324.734171 360.410863 
L 325.196356 360.411551 
L 326.582909 362.70582 
L 327.045093 362.70549 
L 327.969462 363.433011 
L 328.893831 364.190498 
L 330.280384 365.606142 
L 330.742568 365.708265 
L 331.204753 365.541378 
L 332.129121 363.679826 
L 332.591306 363.719042 
L 333.05349 359.773978 
L 333.977859 359.801213 
L 334.440043 355.327797 
L 336.288781 348.036535 
L 337.21315 342.935525 
L 339.061887 331.944169 
L 339.524071 332.14342 
L 339.986256 327.450707 
L 340.44844 324.547611 
L 340.910625 322.383312 
L 341.372809 322.333256 
L 341.834993 317.043188 
L 342.759362 310.735289 
L 343.683731 304.218096 
L 345.532468 290.165335 
L 345.994653 287.011462 
L 346.456837 281.208946 
L 346.919021 281.186345 
L 347.381206 278.466753 
L 347.84339 278.466441 
L 348.305575 273.58697 
L 349.692128 266.779479 
L 351.078681 260.77107 
L 352.003049 257.715781 
L 352.465234 255.946477 
L 352.927418 255.940622 
L 353.389603 252.721029 
L 355.23834 246.254261 
L 355.700524 246.247253 
L 356.162709 244.164887 
L 356.624893 243.689563 
L 357.549262 243.673876 
L 358.011446 244.309687 
L 358.473631 245.210246 
L 358.935815 247.622685 
L 359.397999 247.618558 
L 360.322368 250.08864 
L 361.246737 252.143472 
L 361.708921 252.814426 
L 362.171106 253.265439 
L 362.63329 253.545559 
L 363.095474 253.627481 
L 363.557659 253.572347 
L 364.019843 253.150773 
L 364.482028 252.260576 
L 364.944212 251.124143 
L 365.406396 249.507158 
L 365.868581 247.271331 
L 366.330765 247.269799 
L 366.792949 242.109241 
L 368.179503 232.889829 
L 368.641687 232.889346 
L 369.103871 229.401763 
L 369.566056 224.583569 
L 370.952609 218.096026 
L 371.876978 214.745137 
L 372.339162 214.63746 
L 372.801346 212.14079 
L 373.263531 210.914668 
L 373.725715 210.914756 
L 374.187899 209.974697 
L 374.650084 208.448211 
L 375.112268 207.860491 
L 376.036637 207.026551 
L 376.961006 206.126821 
L 377.42319 205.926395 
L 377.885374 205.929872 
L 378.347559 207.198204 
L 378.809743 207.172792 
L 379.734112 210.351597 
L 380.196296 214.673739 
L 380.658481 214.635569 
L 382.045034 222.067214 
L 382.969402 227.49832 
L 386.204693 253.366898 
L 386.666877 255.857114 
L 387.129062 257.181702 
L 387.591246 257.614701 
L 388.053431 257.229819 
L 388.515615 255.99626 
L 389.902168 249.77451 
L 390.826537 244.913833 
L 392.21309 235.83083 
L 393.599643 225.136113 
L 394.061827 220.775489 
L 395.910565 209.738577 
L 396.372749 207.992838 
L 397.297118 205.893351 
L 397.759302 205.458219 
L 398.221487 205.301991 
L 398.683671 205.379445 
L 399.145856 205.673378 
L 399.60804 206.114271 
L 400.070224 206.810835 
L 400.532409 207.79326 
L 401.456777 210.744614 
L 402.381146 215.211112 
L 402.843331 215.139944 
L 403.305515 221.195372 
L 404.229884 228.387895 
L 404.692068 228.301221 
L 405.154252 237.008038 
L 407.465174 260.362986 
L 409.313912 275.755573 
L 409.776096 278.82047 
L 410.23828 279.010005 
L 410.700465 284.204955 
L 411.624834 288.939623 
L 412.549202 292.573526 
L 413.935755 296.710865 
L 415.322309 300.151333 
L 416.246677 302.115812 
L 416.708862 303.27842 
L 417.171046 303.284609 
L 417.63323 304.242114 
L 418.095415 306.362855 
L 419.481968 310.513885 
L 420.406337 313.745761 
L 421.330705 317.330966 
L 423.179443 324.492723 
L 423.641627 327.76149 
L 424.103812 329.393903 
L 424.565996 329.394232 
L 425.952549 332.773738 
L 426.876918 334.387852 
L 427.339102 334.386802 
L 427.801287 335.602374 
L 429.18784 337.501933 
L 429.650024 337.964694 
L 431.036577 340.211348 
L 432.42313 343.176169 
L 433.809684 347.469705 
L 434.271868 347.470591 
L 434.734052 350.347125 
L 435.658421 352.930998 
L 436.58279 354.976225 
L 437.507158 356.422618 
L 439.81808 359.719054 
L 440.742449 361.49804 
L 441.204633 363.069223 
L 441.666818 363.106171 
L 444.439924 368.234748 
L 444.902108 368.835754 
L 445.364293 369.669714 
L 445.826477 370.102574 
L 446.750846 370.606124 
L 447.675215 370.673182 
L 448.137399 370.010264 
L 448.599583 370.054991 
L 449.061768 369.729369 
L 451.37269 366.705484 
L 452.297058 365.301686 
L 454.145796 363.853695 
L 454.60798 363.761373 
L 455.070165 363.536929 
L 455.532349 363.608443 
L 455.994533 362.967269 
L 457.381087 361.888944 
L 457.843271 361.889938 
L 458.305455 361.466663 
L 458.76764 360.810025 
L 459.229824 360.489626 
L 459.692008 359.896683 
L 460.154193 359.488016 
L 461.078562 359.487242 
L 461.540746 359.200527 
L 463.389483 359.048125 
L 464.776036 359.049983 
L 465.238221 358.700236 
L 465.700405 358.70082 
L 466.624774 356.879304 
L 467.086958 355.350563 
L 467.549143 353.436058 
L 468.473511 347.99164 
L 470.784433 331.380743 
L 471.246618 328.263664 
L 471.708802 322.744062 
L 472.170986 320.454139 
L 472.633171 320.454816 
L 473.55754 317.757173 
L 474.481908 315.720916 
L 474.944093 315.721954 
L 476.330646 314.715429 
L 477.255015 313.939484 
L 478.641568 312.379982 
L 480.028121 309.86898 
L 480.490305 307.649329 
L 480.95249 307.396628 
L 481.876858 304.002411 
L 482.339043 301.914338 
L 482.801227 297.336871 
L 483.263411 294.691994 
L 483.725596 294.380262 
L 486.960886 275.647442 
L 487.885255 269.732283 
L 488.34744 263.020108 
L 488.809624 262.839428 
L 489.271808 259.687625 
L 489.733993 255.406726 
L 490.196177 252.406187 
L 491.58273 241.244111 
L 494.355836 219.816547 
L 494.818021 212.389782 
L 495.280205 212.306346 
L 497.128943 199.116189 
L 497.591127 193.915646 
L 498.053311 193.670829 
L 499.439864 186.889476 
L 500.364233 183.159153 
L 501.750786 178.771769 
L 503.137339 175.218895 
L 504.523893 172.079167 
L 505.910446 170.366778 
L 506.834814 169.617787 
L 507.296999 169.367106 
L 507.759183 169.427492 
L 508.221368 169.073915 
L 508.683552 168.949088 
L 509.607921 169.00342 
L 510.070105 169.107562 
L 510.994474 169.716133 
L 511.456658 170.315166 
L 512.381027 172.361567 
L 513.305396 175.542726 
L 514.229764 179.883963 
L 514.691949 179.884005 
L 515.154133 185.161971 
L 516.540686 195.544221 
L 518.389424 209.227443 
L 519.313793 213.693008 
L 519.775977 215.624872 
L 520.700346 217.860972 
L 521.624714 218.73381 
L 522.549083 219.270682 
L 523.473452 220.359703 
L 524.397821 221.640698 
L 524.860005 222.248107 
L 525.322189 222.500934 
L 525.784374 222.364554 
L 526.246558 221.539844 
L 526.708742 219.755419 
L 527.633111 214.374944 
L 528.095296 208.923352 
L 528.55748 208.927418 
L 529.481849 203.453472 
L 529.944033 198.420059 
L 530.406217 196.292902 
L 530.868402 196.296335 
L 531.792771 192.294157 
L 532.717139 188.69536 
L 533.641508 185.544737 
L 534.565877 183.182111 
L 535.028061 182.421176 
L 535.95243 181.569263 
L 536.876799 181.220483 
L 539.187721 180.764495 
L 541.036458 180.476881 
L 542.423011 180.373157 
L 543.34738 180.016204 
L 544.733933 178.865747 
L 547.507039 176.19084 
L 549.817961 174.61074 
L 550.74233 174.378328 
L 551.666699 174.439256 
L 552.591067 174.70018 
L 553.515436 175.260415 
L 553.97762 175.614811 
L 554.901989 176.769037 
L 556.288542 179.19892 
L 556.750727 180.976926 
L 557.212911 181.773024 
L 557.675095 181.772923 
L 558.13728 182.579665 
L 558.599464 183.01885 
L 559.061649 183.645926 
L 559.986017 184.290236 
L 560.448202 184.942149 
L 560.910386 184.940205 
L 561.37257 185.363672 
L 561.834755 185.579172 
L 562.296939 186.038674 
L 562.759124 186.261211 
L 563.683492 187.050802 
L 564.607861 187.691904 
L 565.53223 188.552259 
L 565.994414 188.822646 
L 566.456599 189.653893 
L 566.918783 189.633308 
L 568.305336 190.607217 
L 569.229705 191.008283 
L 571.078442 191.331357 
L 571.540627 191.609327 
L 572.002811 192.086394 
L 573.389364 194.659328 
L 575.238102 199.566859 
L 576.624655 203.729084 
L 577.086839 207.387307 
L 577.549024 207.305696 
L 578.473392 212.038549 
L 580.32213 222.947969 
L 581.246498 229.043191 
L 581.708683 234.80571 
L 582.170867 234.977665 
L 583.55742 244.695846 
L 584.019605 247.176409 
L 584.943973 253.447823 
L 585.406158 259.84975 
L 585.868342 262.253821 
L 586.330527 262.566469 
L 587.254895 268.44199 
L 588.179264 274.05998 
L 588.641448 274.323473 
L 589.103633 279.114323 
L 590.028002 284.085688 
L 592.801108 299.273807 
L 593.263292 299.80955 
L 593.725477 304.783853 
L 598.34732 335.011619 
L 598.809505 338.138598 
L 599.271689 340.289158 
L 599.733873 345.067114 
L 600.196058 345.447801 
L 601.120427 350.104679 
L 602.50698 355.660288 
L 603.431348 358.2149 
L 604.355717 360.098678 
L 605.74227 361.271503 
L 607.128823 361.190544 
L 607.591008 360.899227 
L 608.515377 360.052514 
L 609.439745 359.393696 
L 609.90193 359.393991 
L 610.826298 358.110056 
L 611.288483 357.350142 
L 611.750667 355.233191 
L 612.212851 355.249 
L 613.599405 351.129771 
L 614.523773 347.546453 
L 615.910326 340.664114 
L 616.834695 334.635082 
L 618.221248 323.256721 
L 618.683433 313.895882 
L 619.145617 313.752691 
L 620.53217 299.981625 
L 621.456539 290.275006 
L 621.918723 281.553248 
L 622.380908 281.081334 
L 623.767461 269.055939 
L 624.229645 265.746323 
L 624.69183 260.366567 
L 625.154014 260.066028 
L 626.540567 253.524739 
L 627.002751 251.694394 
L 627.464936 247.889613 
L 628.389305 246.927539 
L 628.851489 243.008254 
L 629.313673 241.156271 
L 629.775858 236.566691 
L 630.700226 231.999366 
L 631.162411 227.902288 
L 631.624595 227.670211 
L 632.08678 225.102527 
L 632.548964 219.758866 
L 633.011148 218.51492 
L 633.473333 216.235679 
L 633.935517 215.0852 
L 635.784255 208.561418 
L 636.246439 208.040851 
L 637.632992 204.246452 
L 638.095176 201.970994 
L 638.557361 201.941093 
L 639.019545 200.846232 
L 639.943914 199.362624 
L 640.868283 198.361365 
L 642.71702 198.27505 
L 643.179204 198.419879 
L 643.641389 198.759652 
L 644.103573 198.950471 
L 645.490126 199.927107 
L 645.952311 200.115453 
L 646.414495 200.446467 
L 646.876679 200.575509 
L 647.338864 200.877417 
L 647.801048 200.952752 
L 648.263233 201.274473 
L 649.187601 201.066696 
L 649.649786 201.115556 
L 650.574154 200.717798 
L 651.036339 200.746763 
L 652.422892 200.344776 
L 653.347261 200.415512 
L 654.271629 200.711755 
L 655.195998 201.200354 
L 656.582551 202.110134 
L 658.431289 203.469665 
L 661.666579 205.474459 
L 662.128764 205.988238 
L 662.590948 205.9884 
L 663.515317 207.289289 
L 663.977501 207.741706 
L 664.439686 208.448412 
L 664.90187 208.879619 
L 665.364054 209.669237 
L 665.826239 210.054375 
L 666.288423 210.752613 
L 666.750608 211.168568 
L 667.212792 211.836711 
L 667.674976 212.227116 
L 668.137161 212.226893 
L 668.599345 213.313192 
L 669.061529 213.689354 
L 669.523714 214.26689 
L 670.448082 214.655655 
L 670.910267 214.656076 
L 671.372451 214.899809 
L 671.834636 214.788869 
L 672.29682 214.90393 
L 673.683373 214.460736 
L 674.145557 214.346484 
L 674.607742 214.508223 
L 675.994295 214.467026 
L 676.456479 214.202985 
L 676.918664 214.51708 
L 677.380848 214.295208 
L 679.229586 214.927367 
L 679.69177 215.271384 
L 682.002692 215.914073 
L 683.389245 216.165624 
L 685.237982 216.063106 
L 687.548904 215.732673 
L 688.473273 215.728047 
L 689.859826 216.020326 
L 690.784195 216.352747 
L 691.246379 216.708739 
L 691.708564 216.710518 
L 692.170748 217.084259 
L 692.632932 217.086099 
L 693.557301 217.429353 
L 694.48167 217.785935 
L 695.868223 217.510507 
L 696.330407 217.401423 
L 696.792592 217.456378 
L 697.254776 217.202828 
L 699.565698 216.585724 
L 700.027882 216.77548 
L 700.490067 216.745912 
L 701.87662 217.450635 
L 702.338804 217.417125 
L 704.649726 218.742855 
L 705.11191 218.742759 
L 707.422832 220.190602 
L 709.27157 221.358743 
L 712.044676 222.770741 
L 714.817782 225.158261 
L 716.66652 227.272147 
L 718.053073 229.068371 
L 719.439626 231.117921 
L 720.363995 232.68743 
L 720.826179 233.965926 
L 721.288364 234.373194 
L 721.750548 235.063294 
L 722.212732 236.401623 
L 722.674917 236.798418 
L 724.06147 238.785949 
L 724.523654 239.129954 
L 724.985839 240.125911 
L 725.448023 240.312341 
L 725.910207 241.274134 
L 727.29676 242.843239 
L 727.758945 242.997867 
L 729.145498 244.006592 
L 730.994235 245.240697 
L 731.918604 245.740822 
L 732.842973 246.141739 
L 734.229526 246.251325 
L 735.153895 246.244218 
L 735.616079 246.044989 
L 736.078263 246.293905 
L 736.540448 246.349515 
L 737.002632 246.819041 
L 738.85137 249.494553 
L 739.313554 250.301819 
L 740.237923 252.205785 
L 742.548845 256.061516 
L 744.859767 259.156477 
L 745.321951 259.600864 
L 745.784135 260.314096 
L 747.170688 261.306407 
L 747.632873 261.3319 
L 748.095057 261.645821 
L 749.48161 261.665209 
L 749.943795 261.882756 
L 750.405979 261.950668 
L 750.868163 262.179827 
L 751.792532 262.984211 
L 752.254717 263.748211 
L 752.716901 263.847899 
L 755.027823 266.321159 
L 755.952191 267.413075 
L 756.414376 268.348212 
L 756.87656 268.494311 
L 758.725298 270.490359 
L 760.574035 272.282412 
L 761.498404 273.063399 
L 761.960588 274.020981 
L 762.422773 274.039113 
L 763.347141 275.2199 
L 763.809326 275.190851 
L 764.27151 276.74194 
L 765.195879 278.553725 
L 766.120248 280.699824 
L 767.506801 283.649182 
L 767.968985 286.315628 
L 768.43117 286.073906 
L 769.817723 289.799324 
L 771.204276 294.856405 
L 771.66646 294.855747 
L 772.590829 303.496743 
L 773.053013 303.029063 
L 775.82612 314.154773 
L 776.750488 317.172723 
L 777.212673 319.330711 
L 777.674857 320.475942 
L 778.599226 323.468264 
L 779.523595 325.939074 
L 779.985779 325.487514 
L 780.447963 327.90679 
L 781.372332 330.129542 
L 781.834516 332.66466 
L 782.296701 332.449318 
L 782.758885 335.359826 
L 783.221069 336.838315 
L 783.683254 336.838309 
L 785.531991 343.936583 
L 786.45636 348.164575 
L 786.918544 352.449926 
L 787.380729 352.43338 
L 787.842913 354.406575 
L 788.305098 358.435664 
L 788.767282 358.171865 
L 789.229466 360.031312 
L 789.691651 359.981335 
L 790.153835 363.449506 
L 792.002573 368.442747 
L 792.926941 370.528444 
L 797.086601 380.363212 
L 800.321891 386.172197 
L 800.784076 386.352809 
L 801.24626 387.774715 
L 802.170629 389.712889 
L 802.632813 392.135089 
L 803.094998 392.355564 
L 804.019366 395.559603 
L 804.943735 399.302233 
L 805.405919 403.309824 
L 805.868104 403.614572 
L 806.330288 405.818184 
L 806.792473 410.458169 
L 807.254657 410.361724 
L 807.716841 412.605751 
L 808.179026 417.308867 
L 808.64121 417.255396 
L 810.027763 423.189529 
L 810.952132 426.427854 
L 811.876501 428.669902 
L 813.263054 430.793456 
L 814.187422 432.71997 
L 814.649607 433.485005 
L 815.111791 433.427169 
L 815.573976 433.175654 
L 816.03616 432.312888 
L 816.498344 431.152609 
L 817.422713 427.42624 
L 818.347082 421.86433 
L 818.809266 418.643652 
L 819.271451 412.15512 
L 819.733635 411.730231 
L 820.658004 403.649826 
L 823.893294 371.620684 
L 826.204216 344.978038 
L 829.439507 302.40737 
L 832.674797 260.286099 
L 834.061351 246.174473 
L 834.985719 237.268544 
L 835.447904 230.81798 
L 835.910088 230.638206 
L 836.372272 227.550868 
L 836.834457 227.222501 
L 837.296641 222.0198 
L 838.683194 215.113783 
L 839.607563 211.307461 
L 840.531932 208.185613 
L 841.918485 203.969196 
L 843.767222 199.859762 
L 845.61596 197.989828 
L 849.775619 196.100513 
L 850.237804 195.745422 
L 852.548725 195.044358 
L 853.473094 195.041578 
L 854.859647 195.505199 
L 855.784016 196.007957 
L 856.2462 196.335701 
L 857.170569 197.343122 
L 857.632754 197.979159 
L 858.094938 199.266667 
L 858.557122 199.268507 
L 860.40586 202.542999 
L 861.792413 205.913251 
L 862.716782 208.559545 
L 866.414257 218.922685 
L 868.262994 222.830942 
L 869.649547 225.311257 
L 871.0361 226.848009 
L 874.733575 230.540045 
L 876.120128 231.426347 
L 877.506682 231.937159 
L 877.968866 231.767344 
L 878.893235 231.81445 
L 879.355419 231.762212 
L 879.817603 231.565695 
L 880.279788 231.566704 
L 880.741972 231.391038 
L 881.204157 231.45203 
L 881.666341 231.3517 
L 882.128525 231.539903 
L 882.59071 231.515203 
L 883.052894 231.683152 
L 884.901632 231.457803 
L 885.826 231.060872 
L 886.288185 230.800576 
L 886.750369 230.212773 
L 887.212553 230.200526 
L 890.910028 227.275233 
L 891.372213 227.178275 
L 891.834397 226.719194 
L 892.758766 226.277541 
L 893.683135 226.017907 
L 894.607503 225.956281 
L 895.531872 226.234226 
L 896.456241 226.651906 
L 900.153716 228.757998 
L 902.464638 229.14103 
L 902.926822 229.028968 
L 903.389006 228.746362 
L 904.77556 227.021207 
L 906.624297 224.058023 
L 907.086481 223.488148 
L 907.548666 221.877823 
L 908.01085 222.025381 
L 911.246141 217.192718 
L 911.708325 216.350988 
L 912.17051 214.952424 
L 912.632694 214.961177 
L 913.094878 214.056902 
L 914.019247 212.94713 
L 915.867985 210.557145 
L 916.330169 209.404047 
L 916.792353 209.408868 
L 918.178906 207.926326 
L 919.56546 206.674471 
L 920.027644 206.116847 
L 920.489828 206.117339 
L 921.414197 205.733436 
L 923.262935 205.746315 
L 924.187303 205.974108 
L 925.111672 206.353975 
L 926.036041 206.883212 
L 927.422594 207.977653 
L 928.346963 208.916209 
L 929.271331 209.922267 
L 930.1957 210.915031 
L 930.657884 211.159397 
L 932.044438 212.290785 
L 932.968806 212.968588 
L 933.430991 212.999223 
L 934.355359 213.444873 
L 934.817544 213.444962 
L 935.279728 213.740846 
L 935.741913 213.614061 
L 938.052834 213.945156 
L 938.515019 213.770424 
L 939.439388 213.791749 
L 939.901572 213.601319 
L 940.363756 213.601229 
L 940.825941 213.208873 
L 942.212494 212.436698 
L 942.674678 212.090183 
L 945.447784 210.964346 
L 945.909969 210.96418 
L 946.372153 210.393425 
L 949.607444 209.181317 
L 950.069628 208.783184 
L 950.531813 208.782744 
L 950.993997 208.417976 
L 951.456181 208.417646 
L 951.918366 207.98862 
L 952.38055 207.721564 
L 952.842734 207.241704 
L 953.767103 206.621638 
L 954.229288 206.621343 
L 954.691472 205.986242 
L 955.153656 205.754071 
L 955.615841 205.354095 
L 956.540209 205.218077 
L 958.388947 205.740012 
L 960.237684 205.17457 
L 961.162053 204.456843 
L 963.472975 201.93796 
L 964.397344 200.749476 
L 964.859528 199.543267 
L 965.321712 199.54191 
L 966.246081 198.439787 
L 967.17045 197.732035 
L 968.094819 197.506848 
L 971.330109 197.527726 
L 971.792294 197.365519 
L 972.254478 197.321436 
L 972.716662 196.879928 
L 975.951953 194.914027 
L 976.414137 194.469967 
L 976.876322 194.468542 
L 980.573797 192.89921 
L 981.96035 192.562046 
L 982.884719 192.51378 
L 983.346903 192.705612 
L 983.809087 192.705176 
L 984.271272 192.889451 
L 985.195641 193.667481 
L 986.120009 194.662664 
L 987.968747 196.334758 
L 988.893115 196.868901 
L 989.817484 196.971946 
L 995.825881 197.003203 
L 995.825881 197.003203 
" clip-path="url(#p22205e8859)" style="fill: none; stroke-dasharray: 8.14,3.52; stroke-dashoffset: 0; stroke: #000000; stroke-width: 2.2"/>
   </g>
   <g id="line2d_28">
    <path d="M 101.499119 206.431279 
L 110.742807 206.516294 
L 114.440282 206.737685 
L 115.826835 206.813302 
L 119.986494 207.574259 
L 125.532707 207.706844 
L 127.381444 207.82495 
L 131.541104 207.899879 
L 136.625132 207.982826 
L 146.793188 207.829976 
L 149.566294 207.709805 
L 153.263769 207.603748 
L 155.112507 207.551218 
L 156.49906 207.766714 
L 158.347797 208.138144 
L 159.272166 208.119022 
L 160.196535 207.855398 
L 161.583088 207.147648 
L 163.431825 206.154853 
L 164.356194 205.880252 
L 165.280563 205.892942 
L 166.204932 206.192922 
L 167.591485 206.953871 
L 169.440222 207.986758 
L 171.751144 209.047039 
L 173.137697 210.031015 
L 175.910803 212.310658 
L 176.835172 212.844018 
L 177.759541 213.168127 
L 178.68391 213.242505 
L 179.608278 213.103135 
L 180.532647 212.713862 
L 181.9192 211.748645 
L 185.616675 208.841297 
L 186.541044 208.491731 
L 187.465413 208.459772 
L 188.389781 208.749919 
L 189.31415 209.389157 
L 190.238519 210.382084 
L 191.625072 212.331818 
L 193.47381 215.484111 
L 196.7091 221.246554 
L 198.095653 223.323233 
L 199.482206 225.034502 
L 200.86876 226.386708 
L 202.255313 227.413102 
L 203.641866 228.132346 
L 205.028419 228.588699 
L 206.414972 228.737621 
L 208.263709 228.815331 
L 209.188078 229.045068 
L 210.112447 229.510004 
L 211.961184 230.839347 
L 214.272106 232.757039 
L 218.431766 236.476588 
L 219.356134 237.085026 
L 220.280503 237.429726 
L 221.204872 237.420378 
L 222.129241 237.055702 
L 223.053609 236.412815 
L 224.902347 234.705989 
L 226.2889 233.482476 
L 227.213269 232.896149 
L 228.137638 232.618756 
L 229.062006 232.727444 
L 229.986375 233.287114 
L 230.910744 234.281774 
L 231.835113 235.612115 
L 233.221666 238.147639 
L 237.381325 246.582106 
L 238.305694 247.932443 
L 239.230062 248.858362 
L 239.692247 249.128433 
L 240.154431 249.25192 
L 240.616616 249.215332 
L 241.0788 249.006694 
L 241.540984 248.629661 
L 242.465353 247.421394 
L 243.389722 245.693726 
L 244.776275 242.346212 
L 246.625012 237.007444 
L 250.784672 224.47258 
L 252.171225 220.796679 
L 253.095594 218.737163 
L 254.019962 217.11645 
L 254.944331 216.040773 
L 255.8687 215.532496 
L 256.793069 215.494573 
L 257.717437 215.82011 
L 258.641806 216.405089 
L 259.566175 217.209475 
L 260.952728 218.777268 
L 264.650203 223.46283 
L 265.574572 224.183332 
L 266.49894 224.507593 
L 266.961125 224.4874 
L 267.423309 224.331115 
L 268.347678 223.647033 
L 269.272047 222.549655 
L 270.196415 221.119419 
L 271.582969 218.53428 
L 274.818259 212.200821 
L 275.742628 210.723449 
L 276.666997 209.578125 
L 277.591365 208.800017 
L 278.515734 208.392097 
L 279.440103 208.287929 
L 280.364472 208.446159 
L 281.751025 208.967746 
L 283.137578 209.736066 
L 284.986315 211.066828 
L 286.372869 212.382273 
L 288.221606 214.526728 
L 290.532528 217.214258 
L 291.919081 218.449361 
L 292.84345 218.99257 
L 293.767818 219.292436 
L 294.692187 219.348959 
L 295.616556 219.166636 
L 296.540925 218.817429 
L 300.2384 217.078566 
L 301.162768 216.942888 
L 302.087137 217.027122 
L 303.011506 217.407729 
L 303.935875 218.19265 
L 304.860243 219.457862 
L 305.784612 221.135731 
L 306.708981 223.154299 
L 307.63335 225.581028 
L 309.019903 229.958879 
L 310.406456 235.062822 
L 311.793009 240.852378 
L 313.641747 249.664759 
L 315.490484 259.816985 
L 323.809803 307.36736 
L 327.507278 325.725547 
L 333.515675 354.162554 
L 336.288781 365.995693 
L 337.675334 371.267848 
L 339.061887 375.69961 
L 340.44844 379.263994 
L 341.372809 381.118893 
L 342.297178 382.480848 
L 343.221546 383.313877 
L 343.683731 383.510118 
L 344.145915 383.54152 
L 344.6081 383.399087 
L 345.070284 383.091815 
L 345.532468 382.628699 
L 346.456837 381.230437 
L 347.381206 379.276264 
L 348.305575 376.766179 
L 349.229943 373.62822 
L 350.154312 369.826406 
L 351.078681 365.261732 
L 352.465234 357.011671 
L 353.851787 347.328698 
L 355.700524 332.666456 
L 358.011446 312.343244 
L 363.095474 264.882318 
L 366.330765 235.056407 
L 368.179503 219.867791 
L 369.566056 210.022689 
L 370.952609 201.907826 
L 371.876978 197.639065 
L 372.801346 194.404785 
L 373.725715 192.24673 
L 374.187899 191.557872 
L 374.650084 191.116383 
L 375.112268 190.931259 
L 375.574453 191.011496 
L 376.036637 191.348097 
L 376.498821 191.92757 
L 377.42319 193.765657 
L 378.347559 196.489778 
L 379.271927 200.023471 
L 380.658481 206.605835 
L 382.045034 214.402559 
L 384.355956 229.106196 
L 388.515615 256.139446 
L 389.902168 263.936169 
L 391.288721 270.518533 
L 392.21309 274.052226 
L 393.137459 276.776347 
L 394.061827 278.618932 
L 394.524012 279.229888 
L 394.986196 279.651944 
L 395.448381 279.898593 
L 395.910565 279.983327 
L 396.372749 279.919639 
L 396.834934 279.721022 
L 397.759302 278.972974 
L 398.683671 277.811144 
L 399.60804 276.16357 
L 400.532409 273.922309 
L 401.456777 270.98722 
L 402.381146 267.342543 
L 403.767699 260.608538 
L 405.154252 252.385948 
L 406.540806 242.755198 
L 407.927359 231.65159 
L 409.313912 219.078002 
L 411.162649 200.084461 
L 413.473571 173.880736 
L 419.481968 104.526596 
L 421.330705 86.195261 
L 422.717259 74.320326 
L 424.103812 64.456093 
L 425.02818 59.168398 
L 425.952549 54.95994 
L 426.876918 51.830912 
L 427.801287 49.781315 
L 428.263471 49.161303 
L 428.725655 48.811149 
L 429.18784 48.730852 
L 429.650024 48.920413 
L 430.112209 49.379832 
L 430.574393 50.109108 
L 431.036577 51.108242 
L 431.960946 53.916083 
L 432.885315 57.803355 
L 433.809684 62.770058 
L 434.734052 68.816191 
L 436.120605 79.909323 
L 437.507158 93.388632 
L 438.893712 108.973005 
L 440.742449 132.418188 
L 443.053371 165.031134 
L 447.21303 228.086547 
L 450.448321 275.993881 
L 452.759243 307.053927 
L 454.60798 329.048004 
L 455.994533 343.389709 
L 457.381087 355.488621 
L 458.76764 365.165868 
L 459.692008 370.268078 
L 460.616377 374.30435 
L 461.540746 377.277191 
L 462.465115 379.228574 
L 462.927299 379.854198 
L 463.389483 380.264433 
L 463.851668 380.472773 
L 464.313852 380.490292 
L 464.776036 380.326835 
L 465.238221 379.993578 
L 465.700405 379.496206 
L 466.624774 377.972264 
L 467.549143 375.754664 
L 468.473511 372.946004 
L 469.860065 367.856405 
L 471.246618 361.801228 
L 473.095355 352.483513 
L 477.717199 328.290693 
L 479.103752 322.273505 
L 480.490305 317.391132 
L 481.414674 314.826137 
L 482.339043 312.754011 
L 483.263411 311.174753 
L 484.18778 310.155828 
L 485.112149 309.658568 
L 485.574333 309.620929 
L 486.036518 309.736806 
L 486.498702 309.997202 
L 487.423071 310.897582 
L 488.34744 312.218625 
L 489.271808 313.924349 
L 490.658361 317.112573 
L 492.507099 322.18445 
L 495.280205 329.84162 
L 496.666758 333.147528 
L 498.515496 336.892099 
L 499.439864 338.453125 
L 500.364233 339.674714 
L 501.288602 340.448923 
L 501.750786 340.634528 
L 502.212971 340.667809 
L 502.675155 340.535274 
L 503.137339 340.223429 
L 503.599524 339.718782 
L 504.061708 339.00784 
L 504.986077 336.913099 
L 505.910446 333.831317 
L 506.834814 329.685694 
L 507.759183 324.525291 
L 509.145736 315.112586 
L 510.532289 304.010804 
L 512.381027 287.192491 
L 514.691949 264.04352 
L 517.927239 229.231075 
L 520.700346 197.375631 
L 526.708742 126.622544 
L 528.55748 107.819983 
L 529.944033 95.579035 
L 531.330586 85.337992 
L 532.254955 79.794468 
L 533.179324 75.330038 
L 534.103692 71.945039 
L 535.028061 69.63947 
L 535.490246 68.891472 
L 535.95243 68.413331 
L 536.414614 68.205049 
L 536.876799 68.266624 
L 537.338983 68.598057 
L 537.801167 69.199347 
L 538.263352 70.070347 
L 539.187721 72.591133 
L 540.112089 76.06162 
L 541.036458 80.373863 
L 542.423011 88.184397 
L 543.809564 97.282002 
L 546.120486 114.323678 
L 550.74233 149.512723 
L 552.591067 161.614941 
L 553.97762 169.148752 
L 554.901989 173.234209 
L 555.826358 176.448562 
L 556.750727 178.770579 
L 557.212911 179.592613 
L 557.675095 180.176592 
L 558.13728 180.531509 
L 558.599464 180.670859 
L 559.061649 180.608134 
L 559.523833 180.356826 
L 559.986017 179.930429 
L 560.910386 178.606339 
L 561.834755 176.743806 
L 563.221308 173.176553 
L 565.070045 167.543134 
L 567.843152 158.952775 
L 569.229705 155.366962 
L 570.154074 153.485793 
L 571.078442 152.138057 
L 571.540627 151.697958 
L 572.002811 151.431697 
L 572.464995 151.352764 
L 572.92718 151.473609 
L 573.389364 151.79192 
L 573.851549 152.296664 
L 574.775917 153.829307 
L 575.700286 155.986877 
L 576.624655 158.741495 
L 577.549024 162.073251 
L 578.935577 168.072063 
L 580.784314 177.513965 
L 584.019605 195.965411 
L 586.792711 211.36669 
L 590.490186 230.259658 
L 593.725477 246.799591 
L 596.036398 259.586047 
L 597.885136 270.863759 
L 600.196058 286.627081 
L 604.355717 317.28442 
L 606.666639 333.666805 
L 608.515377 345.075273 
L 609.90193 352.276355 
L 610.826298 356.259837 
L 611.750667 359.468092 
L 612.675036 361.865137 
L 613.599405 363.410496 
L 614.061589 363.879535 
L 614.523773 364.142087 
L 614.985958 364.197608 
L 615.448142 364.050654 
L 615.910326 363.714203 
L 616.372511 363.201746 
L 617.29688 361.666808 
L 618.221248 359.394276 
L 619.145617 356.434666 
L 620.53217 350.911277 
L 621.918723 344.237341 
L 623.767461 334.129713 
L 628.851489 304.327295 
L 636.708623 255.778604 
L 642.71702 218.5594 
L 644.103573 211.344299 
L 645.490126 205.371309 
L 646.414495 202.259284 
L 647.338864 199.950425 
L 648.263233 198.401104 
L 649.187601 197.50796 
L 650.11197 197.164573 
L 651.036339 197.284014 
L 651.960708 197.785358 
L 652.885076 198.574521 
L 654.733814 200.592559 
L 656.120367 202.065812 
L 657.044736 202.826408 
L 657.969104 203.283827 
L 658.893473 203.37459 
L 659.817842 203.178022 
L 661.204395 202.580547 
L 663.053133 201.785721 
L 663.977501 201.631955 
L 664.90187 201.784543 
L 665.826239 202.341103 
L 666.750608 203.277508 
L 668.137161 205.18412 
L 669.523714 207.559914 
L 672.759004 213.382976 
L 673.683373 214.637437 
L 674.607742 215.618048 
L 675.532111 216.320311 
L 676.456479 216.645029 
L 677.380848 216.587663 
L 678.305217 216.248933 
L 679.69177 215.442221 
L 682.927061 213.329577 
L 683.851429 213.101212 
L 684.775798 213.215089 
L 685.700167 213.61823 
L 687.08672 214.530669 
L 688.935457 215.754977 
L 689.859826 216.127569 
L 690.784195 216.229417 
L 691.708564 216.103851 
L 694.943854 215.329942 
L 695.868223 215.341601 
L 696.792592 215.585042 
L 698.179145 216.291051 
L 700.952251 218.079518 
L 702.338804 218.833077 
L 703.263173 219.053245 
L 704.187542 218.953197 
L 705.11191 218.532935 
L 706.498464 217.479234 
L 708.809385 215.493769 
L 709.733754 214.934163 
L 710.658123 214.670518 
L 711.582492 214.806062 
L 712.50686 215.342878 
L 713.431229 216.210762 
L 714.817782 217.956547 
L 716.66652 220.761338 
L 721.750548 228.81685 
L 722.674917 229.915264 
L 723.599285 230.74741 
L 724.523654 231.313287 
L 725.910207 231.835448 
L 726.834576 232.016758 
L 727.758945 232.035245 
L 730.994235 231.754354 
L 731.918604 232.016125 
L 732.842973 232.627803 
L 733.767342 233.663001 
L 734.69171 235.051768 
L 736.078263 237.610858 
L 737.464817 240.689197 
L 742.08666 251.667508 
L 743.473213 254.081251 
L 744.397582 255.25091 
L 745.321951 255.981413 
L 746.24632 256.308741 
L 747.170688 256.196913 
L 748.095057 255.717892 
L 749.019426 254.97962 
L 752.716901 251.561403 
L 753.64127 251.011094 
L 754.565638 250.74125 
L 755.490007 250.859814 
L 755.952191 251.098481 
L 756.87656 251.967328 
L 757.800929 253.288357 
L 758.725298 254.970281 
L 760.111851 257.996024 
L 761.960588 262.600119 
L 765.195879 270.879979 
L 767.044616 275.067169 
L 768.893354 278.639919 
L 772.128645 284.070385 
L 774.901751 288.28367 
L 776.750488 290.729263 
L 779.06141 293.365211 
L 781.834516 296.384573 
L 783.221069 298.273096 
L 784.607623 300.418678 
L 785.994176 303.068688 
L 786.918544 305.291007 
L 788.305098 309.393409 
L 789.691651 314.274595 
L 791.078204 319.912077 
L 792.464757 326.296859 
L 794.775679 338.146069 
L 799.859707 364.656235 
L 801.708444 372.832064 
L 803.094998 378.235187 
L 804.481551 382.826058 
L 805.868104 386.550705 
L 806.792473 388.498097 
L 807.716841 389.96805 
L 808.64121 390.929079 
L 809.565579 391.381186 
L 810.027763 391.420891 
L 810.489948 391.32437 
L 810.952132 391.096121 
L 811.414316 390.727148 
L 812.338685 389.517558 
L 813.263054 387.6956 
L 814.187422 385.360221 
L 815.573976 380.96797 
L 817.422713 373.908255 
L 821.582372 357.205203 
L 822.968926 352.680931 
L 823.893294 350.269419 
L 824.817663 348.467578 
L 825.279847 347.829016 
L 825.742032 347.38335 
L 826.204216 347.144073 
L 826.666401 347.124677 
L 827.128585 347.338657 
L 827.590769 347.795007 
L 828.052954 348.484731 
L 828.977322 350.546314 
L 829.901691 353.559386 
L 830.82606 357.456484 
L 831.750429 362.233109 
L 833.136982 371.042663 
L 834.523535 381.835652 
L 835.910088 394.450161 
L 837.758826 413.712188 
L 840.069747 440.51074 
L 846.540329 517.872673 
L 848.389066 536.881637 
L 849.775619 549.244088 
L 851.162172 559.578089 
L 852.086541 565.171725 
L 853.01091 569.68599 
L 853.935279 573.120823 
L 854.859647 575.476226 
L 855.321832 576.249141 
L 855.784016 576.752198 
L 856.2462 576.985398 
L 856.708385 576.94874 
L 857.170569 576.642224 
L 857.632754 576.06585 
L 858.094938 575.219619 
L 859.019307 572.717584 
L 859.943675 569.136118 
L 860.868044 564.475222 
L 861.792413 558.734895 
L 862.716782 551.915137 
L 864.103335 539.661567 
L 865.489888 524.979896 
L 866.876441 507.963982 
L 868.725179 482.167994 
L 871.0361 446.13536 
L 874.733575 383.705369 
L 878.893235 314.012293 
L 881.204157 279.004453 
L 883.052894 254.363689 
L 884.439447 238.409235 
L 885.826 224.870175 
L 887.212553 213.759835 
L 888.136922 207.702229 
L 889.061291 202.724055 
L 889.98566 198.825311 
L 890.910028 196.005997 
L 891.834397 194.256138 
L 892.296582 193.76409 
L 892.758766 193.514481 
L 893.22095 193.493874 
L 893.683135 193.688777 
L 894.145319 194.085698 
L 895.069688 195.431619 
L 895.994057 197.423696 
L 896.918425 199.953983 
L 898.304978 204.522436 
L 900.6159 213.298388 
L 902.926822 222.064941 
L 904.313375 226.618732 
L 905.237744 229.135485 
L 906.162113 231.111019 
L 907.086481 232.437391 
L 907.548666 232.827906 
L 908.01085 233.042638 
L 908.473035 233.090582 
L 908.935219 232.96724 
L 909.397403 232.681608 
L 910.321772 231.677443 
L 911.246141 230.181601 
L 912.17051 228.244937 
L 913.557063 224.71257 
L 918.178906 211.885985 
L 919.103275 209.93602 
L 920.027644 208.44304 
L 920.952013 207.479006 
L 921.876381 206.994687 
L 922.80075 206.919734 
L 923.725119 207.147023 
L 925.111672 207.818533 
L 926.96041 208.764254 
L 927.884778 209.015833 
L 928.809147 208.981985 
L 929.733516 208.662855 
L 930.657884 208.076253 
L 932.044438 206.846135 
L 933.893175 205.118793 
L 934.817544 204.460629 
L 935.741913 204.083393 
L 936.666281 204.095029 
L 937.59065 204.567639 
L 938.515019 205.437583 
L 939.901572 207.263703 
L 944.523416 214.069051 
L 945.447784 214.980782 
L 946.372153 215.518497 
L 947.296522 215.60668 
L 948.220891 215.282039 
L 949.145259 214.635757 
L 950.531813 213.261746 
L 956.078025 207.03954 
L 957.464578 205.808311 
L 958.851131 204.960351 
L 959.7755 204.574955 
L 960.699869 204.437361 
L 961.624237 204.568519 
L 963.010791 205.070613 
L 965.321712 205.940649 
L 968.557003 206.913615 
L 969.481372 207.11345 
L 970.405741 207.116635 
L 971.330109 206.815227 
L 972.254478 206.119897 
L 973.178847 205.02968 
L 974.5654 202.854038 
L 978.262875 196.454566 
L 979.187244 195.303271 
L 980.111612 194.541182 
L 981.035981 194.159715 
L 981.96035 194.054139 
L 983.346903 194.176942 
L 985.657825 194.398282 
L 986.582194 194.295881 
L 987.506562 193.937638 
L 988.430931 193.340533 
L 989.817484 192.168334 
L 991.666222 190.537019 
L 992.59059 189.93432 
L 993.514959 189.617518 
L 994.439328 189.693271 
L 995.363697 190.188899 
L 996.288065 191.008045 
L 997.674619 192.608518 
L 999.98554 195.367789 
L 1000.909909 196.188799 
L 1001.834278 196.699543 
L 1002.758647 196.934223 
L 1004.1452 197.003198 
L 1088.262756 197.003203 
L 1088.262756 197.003203 
" clip-path="url(#p22205e8859)" style="fill: none; stroke: #1f77b4; stroke-width: 1.5; stroke-linecap: square"/>
   </g>
   <g id="line2d_29">
    <path d="M 101.499119 206.431279 
L 110.280622 206.517662 
L 115.826835 206.835673 
L 117.675572 207.220426 
L 119.062125 207.506745 
L 120.448679 207.579648 
L 123.221785 207.681881 
L 127.381444 207.84226 
L 132.927657 207.940464 
L 137.087316 207.982564 
L 147.255372 207.795365 
L 150.490663 207.701445 
L 153.725953 207.598092 
L 156.036875 207.304939 
L 157.885613 207.072299 
L 159.272166 207.247148 
L 161.120903 207.61803 
L 162.045272 207.620693 
L 162.969641 207.401742 
L 164.818378 206.593571 
L 166.204932 206.077352 
L 167.1293 205.978413 
L 168.053669 206.197142 
L 168.978038 206.745595 
L 169.902407 207.545416 
L 171.751144 209.542075 
L 173.599882 211.502275 
L 174.52425 212.235944 
L 175.448619 212.669875 
L 176.372988 212.820732 
L 177.297356 212.756031 
L 178.68391 212.342498 
L 180.070463 211.657929 
L 185.154491 208.801224 
L 186.07886 208.672423 
L 187.003228 208.83406 
L 187.927597 209.259503 
L 188.851966 209.917046 
L 190.238519 211.260194 
L 191.625072 212.982353 
L 193.47381 215.705296 
L 198.557838 223.678746 
L 199.944391 225.391347 
L 201.330944 226.748938 
L 202.717497 227.767067 
L 204.10405 228.521932 
L 206.877156 229.583146 
L 209.650263 230.779467 
L 214.734291 233.424549 
L 217.507397 235.107533 
L 219.356134 236.449627 
L 223.053609 239.26649 
L 223.977978 239.620218 
L 224.902347 239.642716 
L 225.826716 239.334106 
L 226.751084 238.725204 
L 227.675453 237.851939 
L 229.062006 236.14385 
L 230.910744 233.350923 
L 235.070403 226.80837 
L 236.456956 225.152284 
L 237.381325 224.308094 
L 238.305694 223.719554 
L 239.230062 223.373084 
L 242.003169 222.791073 
L 245.700644 222.037552 
L 251.246856 221.238168 
L 253.095594 220.553002 
L 260.490544 217.332738 
L 263.725834 215.433479 
L 270.196415 211.175871 
L 272.507337 209.712741 
L 274.356075 208.895441 
L 275.742628 208.561998 
L 277.591365 208.384988 
L 278.977919 208.499747 
L 280.364472 208.856234 
L 282.675394 209.706724 
L 284.524131 210.617646 
L 286.372869 211.812538 
L 288.221606 213.332539 
L 290.532528 215.61543 
L 292.381265 217.709033 
L 294.692187 220.754597 
L 297.003109 224.238558 
L 299.314031 228.144596 
L 301.624953 232.598558 
L 303.011506 235.690386 
L 304.398059 239.229021 
L 305.784612 243.306226 
L 307.171165 247.975437 
L 309.019903 255.101628 
L 310.86864 263.187608 
L 313.641747 276.548086 
L 328.431646 349.602201 
L 329.8182 354.92622 
L 331.204753 359.320449 
L 332.129121 361.622465 
L 333.05349 363.299848 
L 333.977859 364.306181 
L 334.440043 364.578612 
L 334.902228 364.696727 
L 335.364412 364.665229 
L 335.826596 364.490962 
L 336.750965 363.735806 
L 337.675334 362.466522 
L 338.599703 360.7092 
L 339.524071 358.494857 
L 340.910625 354.416028 
L 342.297178 349.529273 
L 343.683731 343.903813 
L 345.532468 335.322524 
L 347.381206 325.614985 
L 350.154312 309.557129 
L 357.087078 268.279848 
L 358.935815 258.903153 
L 360.322368 253.113751 
L 361.246737 250.048505 
L 362.171106 247.744251 
L 363.095474 246.2455 
L 363.557659 245.771641 
L 364.019843 245.463516 
L 364.482028 245.307632 
L 364.944212 245.290496 
L 365.868581 245.618498 
L 366.792949 246.339579 
L 367.717318 247.345795 
L 370.02824 250.400427 
L 371.414793 252.063154 
L 372.339162 252.875902 
L 373.263531 253.326127 
L 373.725715 253.381562 
L 374.187899 253.305887 
L 374.650084 253.08561 
L 375.112268 252.707237 
L 375.574453 252.157277 
L 376.498821 250.516376 
L 377.42319 248.22068 
L 378.347559 245.374355 
L 379.734112 240.308103 
L 382.045034 230.639167 
L 384.81814 219.092799 
L 386.204693 214.19272 
L 387.129062 211.496744 
L 388.053431 209.383294 
L 388.977799 207.960314 
L 389.439984 207.541483 
L 389.902168 207.335748 
L 390.364352 207.352105 
L 390.826537 207.581558 
L 391.288721 208.010614 
L 392.21309 209.413564 
L 393.137459 211.453014 
L 394.061827 214.021019 
L 395.448381 218.627943 
L 397.759302 227.419735 
L 400.070224 236.141778 
L 401.456777 240.639895 
L 402.381146 243.107464 
L 403.305515 245.024157 
L 404.229884 246.282032 
L 404.692068 246.631166 
L 405.154252 246.791673 
L 405.616437 246.776762 
L 406.078621 246.599928 
L 407.00299 245.814458 
L 407.927359 244.543207 
L 408.851727 242.894117 
L 410.23828 239.948161 
L 413.473571 232.759101 
L 414.39794 231.109785 
L 415.322309 229.838233 
L 416.246677 229.052386 
L 416.708862 228.875335 
L 417.171046 228.860189 
L 417.63323 229.020441 
L 418.095415 229.369584 
L 418.557599 229.921111 
L 419.019784 230.688515 
L 419.944152 232.894722 
L 420.868521 235.934265 
L 421.79289 239.720865 
L 423.179443 246.617005 
L 424.565996 254.736349 
L 426.414734 266.96752 
L 430.574393 296.836856 
L 432.885315 312.593572 
L 434.734052 323.955895 
L 436.58279 334.064352 
L 438.431527 342.856387 
L 439.81808 348.445381 
L 441.204633 353.16382 
L 442.591187 357.171312 
L 444.439924 361.676024 
L 446.288662 365.509263 
L 447.675215 367.908731 
L 448.599583 369.138919 
L 449.523952 369.95184 
L 450.448321 370.314721 
L 451.37269 370.279808 
L 452.297058 369.901675 
L 453.221427 369.237565 
L 454.60798 367.860802 
L 459.692008 362.301206 
L 461.540746 360.600027 
L 462.927299 359.62933 
L 463.851668 359.241573 
L 464.776036 359.080239 
L 468.011327 358.839644 
L 468.935696 358.418229 
L 469.860065 357.642176 
L 470.784433 356.404047 
L 471.708802 354.642104 
L 472.633171 352.363047 
L 474.019724 348.123173 
L 475.868461 341.360361 
L 481.414674 319.996024 
L 487.423071 298.855486 
L 489.271808 291.355801 
L 491.120546 283.072399 
L 492.969283 273.918853 
L 495.280205 261.248045 
L 497.591127 247.299464 
L 501.288602 223.300338 
L 504.523893 202.66341 
L 506.37263 191.997089 
L 507.759183 184.941154 
L 509.145736 179.001771 
L 510.070105 175.813278 
L 510.994474 173.352482 
L 511.918843 171.597431 
L 512.843211 170.483925 
L 513.305396 170.153033 
L 513.76758 169.966982 
L 514.229764 169.922689 
L 514.691949 170.013823 
L 515.154133 170.231667 
L 516.078502 171.070056 
L 517.002871 172.448492 
L 517.927239 174.355581 
L 518.851608 176.76954 
L 520.238161 181.243443 
L 521.624714 186.534518 
L 524.397821 198.345361 
L 526.708742 208.064966 
L 528.095296 213.171561 
L 529.019664 216.049195 
L 529.944033 218.379487 
L 530.868402 220.054493 
L 531.330586 220.612532 
L 531.792771 220.966292 
L 532.254955 221.107702 
L 532.717139 221.043869 
L 533.179324 220.784722 
L 533.641508 220.340235 
L 534.565877 218.936483 
L 535.490246 216.919645 
L 536.414614 214.385578 
L 537.801167 209.838503 
L 540.112089 201.140244 
L 542.423011 192.458713 
L 543.809564 187.91837 
L 545.196117 184.157121 
L 546.582671 181.165763 
L 547.969224 178.814978 
L 549.355777 176.979936 
L 550.74233 175.567405 
L 551.666699 174.902947 
L 552.591067 174.547215 
L 553.515436 174.469192 
L 554.439805 174.621783 
L 555.364174 174.982583 
L 556.288542 175.546052 
L 557.212911 176.319165 
L 558.599464 177.84448 
L 560.448202 180.286095 
L 563.221308 183.949268 
L 565.070045 185.989799 
L 567.380967 188.139889 
L 569.691889 190.004546 
L 571.078442 190.818758 
L 574.313733 192.269606 
L 575.238102 193.028077 
L 576.16247 194.052894 
L 577.086839 195.337397 
L 578.473392 197.757737 
L 579.859945 200.79205 
L 581.246498 204.493049 
L 582.633052 208.889118 
L 584.019605 213.964395 
L 585.868342 221.727265 
L 587.71708 230.54842 
L 590.028002 242.682581 
L 593.263292 261.034003 
L 597.422952 285.825676 
L 606.204455 339.228022 
L 607.591008 346.21709 
L 608.977561 352.023482 
L 609.90193 355.057462 
L 610.826298 357.321762 
L 611.750667 358.857459 
L 612.675036 359.73031 
L 613.13722 359.939708 
L 613.599405 360.006391 
L 614.061589 359.937461 
L 614.523773 359.738399 
L 615.448142 358.96625 
L 616.372511 357.718645 
L 617.29688 356.011453 
L 618.221248 353.847571 
L 619.145617 351.218895 
L 620.53217 346.394996 
L 621.918723 340.53265 
L 623.305276 333.648013 
L 625.154014 323.051971 
L 627.464936 308.062369 
L 631.162411 282.11759 
L 636.708623 242.99628 
L 639.019545 228.311584 
L 640.868283 217.936501 
L 642.254836 211.269776 
L 643.179204 207.531715 
L 644.103573 204.483517 
L 645.027942 202.192263 
L 645.952311 200.591889 
L 646.876679 199.589412 
L 647.801048 199.090993 
L 648.725417 199.003057 
L 649.649786 199.225108 
L 651.036339 199.903298 
L 652.885076 200.885063 
L 653.809445 201.166293 
L 654.733814 201.199811 
L 656.120367 200.954291 
L 657.50692 200.677643 
L 658.431289 200.655822 
L 659.355658 200.886174 
L 660.280026 201.383276 
L 661.666579 202.471567 
L 663.977501 204.698937 
L 666.750608 207.72881 
L 671.372451 212.991707 
L 672.759004 214.186128 
L 673.683373 214.642257 
L 674.607742 214.792092 
L 675.994295 214.655732 
L 678.305217 214.230412 
L 679.229586 214.261975 
L 680.616139 214.622711 
L 684.775798 216.130738 
L 685.700167 216.169389 
L 687.08672 216.002483 
L 689.397642 215.696612 
L 690.784195 215.857373 
L 692.170748 216.249532 
L 696.330407 217.709358 
L 697.254776 217.739747 
L 698.641329 217.475238 
L 701.414435 216.656433 
L 702.338804 216.637785 
L 703.263173 216.825855 
L 704.649726 217.388109 
L 707.422832 218.916686 
L 715.279967 223.712959 
L 717.128704 225.153751 
L 718.977442 226.893963 
L 720.826179 228.962104 
L 722.674917 231.398161 
L 725.448023 235.534915 
L 729.145498 240.983847 
L 730.994235 243.204208 
L 732.380788 244.543342 
L 733.767342 245.574738 
L 734.69171 246.017834 
L 735.616079 246.210702 
L 737.002632 246.172934 
L 738.85137 246.057802 
L 739.775738 246.215348 
L 740.700107 246.658986 
L 741.624476 247.43049 
L 742.548845 248.484458 
L 743.935398 250.465903 
L 745.784135 253.567613 
L 748.557242 258.290259 
L 749.943795 260.143882 
L 750.868163 261.041477 
L 752.254717 261.970844 
L 754.565638 263.288147 
L 755.952191 264.379529 
L 757.800929 266.184794 
L 761.498404 270.279127 
L 767.044616 276.503643 
L 768.43117 278.556314 
L 770.279907 281.775006 
L 772.128645 285.559138 
L 773.515198 288.801469 
L 775.363935 293.821931 
L 777.212673 299.530325 
L 779.985779 308.95298 
L 785.994176 329.477112 
L 789.691651 342.22466 
L 796.624416 366.533295 
L 798.935338 373.627343 
L 800.784076 378.657627 
L 802.632813 383.076259 
L 806.330288 391.610615 
L 808.179026 396.573823 
L 810.027763 402.266622 
L 812.338685 410.220663 
L 816.03616 423.091242 
L 817.422713 427.174775 
L 818.347082 429.394333 
L 819.271451 431.085721 
L 820.195819 432.140995 
L 820.658004 432.396357 
L 821.120188 432.452407 
L 821.582372 432.303183 
L 822.044557 431.952719 
L 822.506741 431.405318 
L 823.43111 429.73611 
L 824.355479 427.331036 
L 825.279847 424.222487 
L 826.204216 420.441808 
L 827.590769 413.56986 
L 828.977322 405.331102 
L 830.363876 395.805172 
L 832.212613 381.25008 
L 834.061351 364.797288 
L 836.372272 342.067824 
L 840.069747 302.87064 
L 843.767222 263.999506 
L 846.078144 242.007238 
L 847.926882 226.787945 
L 849.313435 217.228488 
L 850.699988 209.507902 
L 851.624357 205.41185 
L 852.548725 202.122043 
L 853.473094 199.596778 
L 854.397463 197.757715 
L 855.321832 196.510914 
L 856.2462 195.768097 
L 857.170569 195.453737 
L 858.094938 195.509767 
L 859.019307 195.892368 
L 859.943675 196.548023 
L 860.868044 197.441424 
L 862.254597 199.190746 
L 863.64115 201.399254 
L 865.027704 204.027113 
L 866.876441 208.079924 
L 869.649547 214.872151 
L 872.422653 221.567622 
L 874.271391 225.398942 
L 875.657944 227.802161 
L 877.044497 229.741007 
L 877.968866 230.739662 
L 878.893235 231.420767 
L 879.817603 231.761095 
L 880.741972 231.838224 
L 882.128525 231.650004 
L 883.977263 231.367562 
L 885.363816 231.454116 
L 886.750369 231.548607 
L 887.674738 231.436579 
L 888.599107 231.110207 
L 889.98566 230.299804 
L 891.834397 228.862727 
L 894.607503 226.699353 
L 895.531872 226.235581 
L 896.456241 226.046566 
L 897.38061 226.110513 
L 898.304978 226.373311 
L 899.691531 227.028402 
L 902.926822 228.817345 
L 903.851191 229.055337 
L 904.77556 229.013145 
L 905.699928 228.697678 
L 906.624297 228.135807 
L 907.548666 227.355593 
L 908.935219 225.836991 
L 910.783956 223.392014 
L 913.094878 219.895426 
L 918.641091 211.203321 
L 920.489828 208.724484 
L 921.876381 207.178969 
L 922.80075 206.405693 
L 923.725119 205.93797 
L 924.649488 205.762036 
L 925.573856 205.813017 
L 926.498225 206.042285 
L 927.884778 206.650728 
L 929.271331 207.526464 
L 931.120069 209.038936 
L 935.279728 212.654843 
L 936.666281 213.432132 
L 937.59065 213.675583 
L 938.977203 213.769775 
L 941.288125 213.666991 
L 942.674678 213.265726 
L 944.523416 212.388885 
L 948.683075 210.313525 
L 952.38055 208.658965 
L 954.229288 207.716706 
L 958.388947 205.410954 
L 959.313316 205.278363 
L 960.699869 205.397615 
L 962.548606 205.584034 
L 963.472975 205.446122 
L 964.397344 205.027132 
L 965.321712 204.335194 
L 966.708266 202.909708 
L 970.405741 198.619857 
L 971.330109 197.977762 
L 972.254478 197.64689 
L 973.641031 197.521364 
L 975.489769 197.479422 
L 976.414137 197.269339 
L 977.338506 196.830427 
L 978.725059 195.876423 
L 981.96035 193.420949 
L 982.884719 192.913611 
L 983.809087 192.626534 
L 984.733456 192.578909 
L 985.657825 192.739308 
L 986.582194 193.091402 
L 987.968747 193.927138 
L 991.666222 196.59088 
L 992.59059 196.872675 
L 993.977144 196.971558 
L 1088.262756 197.003203 
L 1088.262756 197.003203 
" clip-path="url(#p22205e8859)" style="fill: none; stroke: #ff7f0e; stroke-width: 1.5; stroke-linecap: square"/>
   </g>
   <g id="patch_3">
    <path d="M 52.160938 603.398125 
L 52.160938 22.318125 
" style="fill: none; stroke: #000000; stroke-width: 0.8; stroke-linejoin: miter; stroke-linecap: square"/>
   </g>
   <g id="patch_4">
    <path d="M 1137.600938 603.398125 
L 1137.600938 22.318125 
" style="fill: none; stroke: #000000; stroke-width: 0.8; stroke-linejoin: miter; stroke-linecap: square"/>
   </g>
   <g id="patch_5">
    <path d="M 52.160938 603.398125 
L 1137.600938 603.398125 
" style="fill: none; stroke: #000000; stroke-width: 0.8; stroke-linejoin: miter; stroke-linecap: square"/>
   </g>
   <g id="patch_6">
    <path d="M 52.160938 22.318125 
L 1137.600938 22.318125 
" style="fill: none; stroke: #000000; stroke-width: 0.8; stroke-linejoin: miter; stroke-linecap: square"/>
   </g>
   <g id="text_16">
    <!-- CSV value (10 ms per row) -->
    <g transform="translate(514.69 16.318125) scale(0.12 -0.12)">
     <defs>
      <path id="DejaVuSans-43" d="M 4122 4306 
L 4122 3641 
Q 3803 3938 3442 4084 
Q 3081 4231 2675 4231 
Q 1875 4231 1450 3742 
Q 1025 3253 1025 2328 
Q 1025 1406 1450 917 
Q 1875 428 2675 428 
Q 3081 428 3442 575 
Q 3803 722 4122 1019 
L 4122 359 
Q 3791 134 3420 21 
Q 3050 -91 2638 -91 
Q 1578 -91 968 557 
Q 359 1206 359 2328 
Q 359 3453 968 4101 
Q 1578 4750 2638 4750 
Q 3056 4750 3426 4639 
Q 3797 4528 4122 4306 
z
" transform="scale(0.015625)"/>
      <path id="DejaVuSans-53" d="M 3425 4513 
L 3425 3897 
Q 3066 4069 2747 4153 
Q 2428 4238 2131 4238 
Q 1616 4238 1336 4038 
Q 1056 3838 1056 3469 
Q 1056 3159 1242 3001 
Q 1428 2844 1947 2747 
L 2328 2669 
Q 3034 2534 3370 2195 
Q 3706 1856 3706 1288 
Q 3706 609 3251 259 
Q 2797 -91 1919 -91 
Q 1588 -91 1214 -16 
Q 841 59 441 206 
L 441 856 
Q 825 641 1194 531 
Q 1563 422 1919 422 
Q 2459 422 2753 634 
Q 3047 847 3047 1241 
Q 3047 1584 2836 1778 
Q 2625 1972 2144 2069 
L 1759 2144 
Q 1053 2284 737 2584 
Q 422 2884 422 3419 
Q 422 4038 858 4394 
Q 1294 4750 2059 4750 
Q 2388 4750 2728 4690 
Q 3069 4631 3425 4513 
z
" transform="scale(0.015625)"/>
      <path id="DejaVuSans-56" d="M 1831 0 
L 50 4666 
L 709 4666 
L 2188 738 
L 3669 4666 
L 4325 4666 
L 2547 0 
L 1831 0 
z
" transform="scale(0.015625)"/>
      <path id="DejaVuSans-76" d="M 191 3500 
L 800 3500 
L 1894 563 
L 2988 3500 
L 3597 3500 
L 2284 0 
L 1503 0 
L 191 3500 
z
" transform="scale(0.015625)"/>
      <path id="DejaVuSans-61" d="M 2194 1759 
Q 1497 1759 1228 1600 
Q 959 1441 959 1056 
Q 959 750 1161 570 
Q 1363 391 1709 391 
Q 2188 391 2477 730 
Q 2766 1069 2766 1631 
L 2766 1759 
L 2194 1759 
z
M 3341 1997 
L 3341 0 
L 2766 0 
L 2766 531 
Q 2569 213 2275 61 
Q 1981 -91 1556 -91 
Q 1019 -91 701 211 
Q 384 513 384 1019 
Q 384 1609 779 1909 
Q 1175 2209 1959 2209 
L 2766 2209 
L 2766 2266 
Q 2766 2663 2505 2880 
Q 2244 3097 1772 3097 
Q 1472 3097 1187 3025 
Q 903 2953 641 2809 
L 641 3341 
Q 956 3463 1253 3523 
Q 1550 3584 1831 3584 
Q 2591 3584 2966 3190 
Q 3341 2797 3341 1997 
z
" transform="scale(0.015625)"/>
      <path id="DejaVuSans-6c" d="M 603 4863 
L 1178 4863 
L 1178 0 
L 603 0 
L 603 4863 
z
" transform="scale(0.015625)"/>
      <path id="DejaVuSans-75" d="M 544 1381 
L 544 3500 
L 1119 3500 
L 1119 1403 
Q 1119 906 1312 657 
Q 1506 409 1894 409 
Q 2359 409 2629 706 
Q 2900 1003 2900 1516 
L 2900 3500 
L 3475 3500 
L 3475 0 
L 2900 0 
L 2900 538 
Q 2691 219 2414 64 
Q 2138 -91 1772 -91 
Q 1169 -91 856 284 
Q 544 659 544 1381 
z
M 1991 3584 
L 1991 3584 
z
" transform="scale(0.015625)"/>
      <path id="DejaVuSans-28" d="M 1984 4856 
Q 1566 4138 1362 3434 
Q 1159 2731 1159 2009 
Q 1159 1288 1364 580 
Q 1569 -128 1984 -844 
L 1484 -844 
Q 1016 -109 783 600 
Q 550 1309 550 2009 
Q 550 2706 781 3412 
Q 1013 4119 1484 4856 
L 1984 4856 
z
" transform="scale(0.015625)"/>
      <path id="DejaVuSans-70" d="M 1159 525 
L 1159 -1331 
L 581 -1331 
L 581 3500 
L 1159 3500 
L 1159 2969 
Q 1341 3281 1617 3432 
Q 1894 3584 2278 3584 
Q 2916 3584 3314 3078 
Q 3713 2572 3713 1747 
Q 3713 922 3314 415 
Q 2916 -91 2278 -91 
Q 1894 -91 1617 61 
Q 1341 213 1159 525 
z
M 3116 1747 
Q 3116 2381 2855 2742 
Q 2594 3103 2138 3103 
Q 1681 3103 1420 2742 
Q 1159 2381 1159 1747 
Q 1159 1113 1420 752 
Q 1681 391 2138 391 
Q 2594 391 2855 752 
Q 3116 1113 3116 1747 
z
" transform="scale(0.015625)"/>
      <path id="DejaVuSans-72" d="M 2631 2963 
Q 2534 3019 2420 3045 
Q 2306 3072 2169 3072 
Q 1681 3072 1420 2755 
Q 1159 2438 1159 1844 
L 1159 0 
L 581 0 
L 581 3500 
L 1159 3500 
L 1159 2956 
Q 1341 3275 1631 3429 
Q 1922 3584 2338 3584 
Q 2397 3584 2469 3576 
Q 2541 3569 2628 3553 
L 2631 2963 
z
" transform="scale(0.015625)"/>
      <path id="DejaVuSans-77" d="M 269 3500 
L 844 3500 
L 1563 769 
L 2278 3500 
L 2956 3500 
L 3675 769 
L 4391 3500 
L 4966 3500 
L 4050 0 
L 3372 0 
L 2619 2869 
L 1863 0 
L 1184 0 
L 269 3500 
z
" transform="scale(0.015625)"/>
      <path id="DejaVuSans-29" d="M 513 4856 
L 1013 4856 
Q 1481 4119 1714 3412 
Q 1947 2706 1947 2009 
Q 1947 1309 1714 600 
Q 1481 -109 1013 -844 
L 513 -844 
Q 928 -128 1133 580 
Q 1338 1288 1338 2009 
Q 1338 2731 1133 3434 
Q 928 4138 513 4856 
z
" transform="scale(0.015625)"/>
     </defs>
     <use xlink:href="#DejaVuSans-43"/>
     <use xlink:href="#DejaVuSans-53" x="69.824219"/>
     <use xlink:href="#DejaVuSans-56" x="133.300781"/>
     <use xlink:href="#DejaVuSans-20" x="201.708984"/>
     <use xlink:href="#DejaVuSans-76" x="233.496094"/>
     <use xlink:href="#DejaVuSans-61" x="292.675781"/>
     <use xlink:href="#DejaVuSans-6c" x="353.955078"/>
     <use xlink:href="#DejaVuSans-75" x="381.738281"/>
     <use xlink:href="#DejaVuSans-65" x="445.117188"/>
     <use xlink:href="#DejaVuSans-20" x="506.640625"/>
     <use xlink:href="#DejaVuSans-28" x="538.427734"/>
     <use xlink:href="#DejaVuSans-31" x="577.441406"/>
     <use xlink:href="#DejaVuSans-30" x="641.064453"/>
     <use xlink:href="#DejaVuSans-20" x="704.6875"/>
     <use xlink:href="#DejaVuSans-6d" x="736.474609"/>
     <use xlink:href="#DejaVuSans-73" x="833.886719"/>
     <use xlink:href="#DejaVuSans-20" x="885.986328"/>
     <use xlink:href="#DejaVuSans-70" x="917.773438"/>
     <use xlink:href="#DejaVuSans-65" x="981.25"/>
     <use xlink:href="#DejaVuSans-72" x="1042.773438"/>
     <use xlink:href="#DejaVuSans-20" x="1083.886719"/>
     <use xlink:href="#DejaVuSans-72" x="1115.673828"/>
     <use xlink:href="#DejaVuSans-6f" x="1154.537109"/>
     <use xlink:href="#DejaVuSans-77" x="1215.71875"/>
     <use xlink:href="#DejaVuSans-29" x="1297.505859"/>
    </g>
   </g>
   <g id="legend_1">
    <g id="patch_7">
     <path d="M 806.050625 79.555937 
L 1129.900938 79.555937 
Q 1132.100938 79.555937 1132.100938 77.355937 
L 1132.100938 30.018125 
Q 1132.100938 27.818125 1129.900938 27.818125 
L 806.050625 27.818125 
Q 803.850625 27.818125 803.850625 30.018125 
L 803.850625 77.355937 
Q 803.850625 79.555937 806.050625 79.555937 
z
" style="fill: #ffffff; opacity: 0.8; stroke: #cccccc; stroke-linejoin: miter"/>
    </g>
    <g id="line2d_30">
     <path d="M 808.250625 36.726406 
L 819.250625 36.726406 
L 830.250625 36.726406 
" style="fill: none; stroke-dasharray: 8.14,3.52; stroke-dashoffset: 0; stroke: #000000; stroke-width: 2.2"/>
    </g>
    <g id="text_17">
     <!-- Target position -->
     <g transform="translate(839.050625 40.576406) scale(0.11 -0.11)">
      <defs>
       <path id="DejaVuSans-67" d="M 2906 1791 
Q 2906 2416 2648 2759 
Q 2391 3103 1925 3103 
Q 1463 3103 1205 2759 
Q 947 2416 947 1791 
Q 947 1169 1205 825 
Q 1463 481 1925 481 
Q 2391 481 2648 825 
Q 2906 1169 2906 1791 
z
M 3481 434 
Q 3481 -459 3084 -895 
Q 2688 -1331 1869 -1331 
Q 1566 -1331 1297 -1286 
Q 1028 -1241 775 -1147 
L 775 -588 
Q 1028 -725 1275 -790 
Q 1522 -856 1778 -856 
Q 2344 -856 2625 -561 
Q 2906 -266 2906 331 
L 2906 616 
Q 2728 306 2450 153 
Q 2172 0 1784 0 
Q 1141 0 747 490 
Q 353 981 353 1791 
Q 353 2603 747 3093 
Q 1141 3584 1784 3584 
Q 2172 3584 2450 3431 
Q 2728 3278 2906 2969 
L 2906 3500 
L 3481 3500 
L 3481 434 
z
" transform="scale(0.015625)"/>
      </defs>
      <use xlink:href="#DejaVuSans-54"/>
      <use xlink:href="#DejaVuSans-61" x="44.583984"/>
      <use xlink:href="#DejaVuSans-72" x="105.863281"/>
      <use xlink:href="#DejaVuSans-67" x="145.226562"/>
      <use xlink:href="#DejaVuSans-65" x="208.703125"/>
      <use xlink:href="#DejaVuSans-74" x="270.226562"/>
      <use xlink:href="#DejaVuSans-20" x="309.435547"/>
      <use xlink:href="#DejaVuSans-70" x="341.222656"/>
      <use xlink:href="#DejaVuSans-6f" x="404.699219"/>
      <use xlink:href="#DejaVuSans-73" x="465.880859"/>
      <use xlink:href="#DejaVuSans-69" x="517.980469"/>
      <use xlink:href="#DejaVuSans-74" x="545.763672"/>
      <use xlink:href="#DejaVuSans-69" x="584.972656"/>
      <use xlink:href="#DejaVuSans-6f" x="612.755859"/>
      <use xlink:href="#DejaVuSans-6e" x="673.9375"/>
     </g>
    </g>
    <g id="line2d_31">
     <path d="M 808.250625 52.872344 
L 819.250625 52.872344 
L 830.250625 52.872344 
" style="fill: none; stroke: #1f77b4; stroke-width: 1.5; stroke-linecap: square"/>
    </g>
    <g id="text_18">
     <!-- 3. position central-difference velocity &amp; acceleration -->
     <g transform="translate(839.050625 56.722344) scale(0.11 -0.11)">
      <defs>
       <path id="DejaVuSans-33" d="M 2597 2516 
Q 3050 2419 3304 2112 
Q 3559 1806 3559 1356 
Q 3559 666 3084 287 
Q 2609 -91 1734 -91 
Q 1441 -91 1130 -33 
Q 819 25 488 141 
L 488 750 
Q 750 597 1062 519 
Q 1375 441 1716 441 
Q 2309 441 2620 675 
Q 2931 909 2931 1356 
Q 2931 1769 2642 2001 
Q 2353 2234 1838 2234 
L 1294 2234 
L 1294 2753 
L 1863 2753 
Q 2328 2753 2575 2939 
Q 2822 3125 2822 3475 
Q 2822 3834 2567 4026 
Q 2313 4219 1838 4219 
Q 1578 4219 1281 4162 
Q 984 4106 628 3988 
L 628 4550 
Q 988 4650 1302 4700 
Q 1616 4750 1894 4750 
Q 2613 4750 3031 4423 
Q 3450 4097 3450 3541 
Q 3450 3153 3228 2886 
Q 3006 2619 2597 2516 
z
" transform="scale(0.015625)"/>
       <path id="DejaVuSans-63" d="M 3122 3366 
L 3122 2828 
Q 2878 2963 2633 3030 
Q 2388 3097 2138 3097 
Q 1578 3097 1268 2742 
Q 959 2388 959 1747 
Q 959 1106 1268 751 
Q 1578 397 2138 397 
Q 2388 397 2633 464 
Q 2878 531 3122 666 
L 3122 134 
Q 2881 22 2623 -34 
Q 2366 -91 2075 -91 
Q 1284 -91 818 406 
Q 353 903 353 1747 
Q 353 2603 823 3093 
Q 1294 3584 2113 3584 
Q 2378 3584 2631 3529 
Q 2884 3475 3122 3366 
z
" transform="scale(0.015625)"/>
       <path id="DejaVuSans-2d" d="M 313 2009 
L 1997 2009 
L 1997 1497 
L 313 1497 
L 313 2009 
z
" transform="scale(0.015625)"/>
       <path id="DejaVuSans-64" d="M 2906 2969 
L 2906 4863 
L 3481 4863 
L 3481 0 
L 2906 0 
L 2906 525 
Q 2725 213 2448 61 
Q 2172 -91 1784 -91 
Q 1150 -91 751 415 
Q 353 922 353 1747 
Q 353 2572 751 3078 
Q 1150 3584 1784 3584 
Q 2172 3584 2448 3432 
Q 2725 3281 2906 2969 
z
M 947 1747 
Q 947 1113 1208 752 
Q 1469 391 1925 391 
Q 2381 391 2643 752 
Q 2906 1113 2906 1747 
Q 2906 2381 2643 2742 
Q 2381 3103 1925 3103 
Q 1469 3103 1208 2742 
Q 947 2381 947 1747 
z
" transform="scale(0.015625)"/>
       <path id="DejaVuSans-66" d="M 2375 4863 
L 2375 4384 
L 1825 4384 
Q 1516 4384 1395 4259 
Q 1275 4134 1275 3809 
L 1275 3500 
L 2222 3500 
L 2222 3053 
L 1275 3053 
L 1275 0 
L 697 0 
L 697 3053 
L 147 3053 
L 147 3500 
L 697 3500 
L 697 3744 
Q 697 4328 969 4595 
Q 1241 4863 1831 4863 
L 2375 4863 
z
" transform="scale(0.015625)"/>
       <path id="DejaVuSans-79" d="M 2059 -325 
Q 1816 -950 1584 -1140 
Q 1353 -1331 966 -1331 
L 506 -1331 
L 506 -850 
L 844 -850 
Q 1081 -850 1212 -737 
Q 1344 -625 1503 -206 
L 1606 56 
L 191 3500 
L 800 3500 
L 1894 763 
L 2988 3500 
L 3597 3500 
L 2059 -325 
z
" transform="scale(0.015625)"/>
       <path id="DejaVuSans-26" d="M 1556 2509 
Q 1272 2256 1139 2004 
Q 1006 1753 1006 1478 
Q 1006 1022 1337 719 
Q 1669 416 2169 416 
Q 2466 416 2725 514 
Q 2984 613 3213 813 
L 1556 2509 
z
M 1997 2859 
L 3584 1234 
Q 3769 1513 3872 1830 
Q 3975 2147 3994 2503 
L 4575 2503 
Q 4538 2091 4375 1687 
Q 4213 1284 3922 891 
L 4794 0 
L 4006 0 
L 3559 459 
Q 3234 181 2878 45 
Q 2522 -91 2113 -91 
Q 1359 -91 881 339 
Q 403 769 403 1441 
Q 403 1841 612 2192 
Q 822 2544 1241 2853 
Q 1091 3050 1012 3245 
Q 934 3441 934 3628 
Q 934 4134 1281 4442 
Q 1628 4750 2203 4750 
Q 2463 4750 2720 4694 
Q 2978 4638 3244 4525 
L 3244 3956 
Q 2972 4103 2725 4179 
Q 2478 4256 2266 4256 
Q 1938 4256 1733 4082 
Q 1528 3909 1528 3634 
Q 1528 3475 1620 3314 
Q 1713 3153 1997 2859 
z
" transform="scale(0.015625)"/>
      </defs>
      <use xlink:href="#DejaVuSans-33"/>
      <use xlink:href="#DejaVuSans-2e" x="63.623047"/>
      <use xlink:href="#DejaVuSans-20" x="95.410156"/>
      <use xlink:href="#DejaVuSans-70" x="127.197266"/>
      <use xlink:href="#DejaVuSans-6f" x="190.673828"/>
      <use xlink:href="#DejaVuSans-73" x="251.855469"/>
      <use xlink:href="#DejaVuSans-69" x="303.955078"/>
      <use xlink:href="#DejaVuSans-74" x="331.738281"/>
      <use xlink:href="#DejaVuSans-69" x="370.947266"/>
      <use xlink:href="#DejaVuSans-6f" x="398.730469"/>
      <use xlink:href="#DejaVuSans-6e" x="459.912109"/>
      <use xlink:href="#DejaVuSans-20" x="523.291016"/>
      <use xlink:href="#DejaVuSans-63" x="555.078125"/>
      <use xlink:href="#DejaVuSans-65" x="610.058594"/>
      <use xlink:href="#DejaVuSans-6e" x="671.582031"/>
      <use xlink:href="#DejaVuSans-74" x="734.960938"/>
      <use xlink:href="#DejaVuSans-72" x="774.169922"/>
      <use xlink:href="#DejaVuSans-61" x="815.283203"/>
      <use xlink:href="#DejaVuSans-6c" x="876.5625"/>
      <use xlink:href="#DejaVuSans-2d" x="904.345703"/>
      <use xlink:href="#DejaVuSans-64" x="940.429688"/>
      <use xlink:href="#DejaVuSans-69" x="1003.90625"/>
      <use xlink:href="#DejaVuSans-66" x="1031.689453"/>
      <use xlink:href="#DejaVuSans-66" x="1066.894531"/>
      <use xlink:href="#DejaVuSans-65" x="1102.099609"/>
      <use xlink:href="#DejaVuSans-72" x="1163.623047"/>
      <use xlink:href="#DejaVuSans-65" x="1202.486328"/>
      <use xlink:href="#DejaVuSans-6e" x="1264.009766"/>
      <use xlink:href="#DejaVuSans-63" x="1327.388672"/>
      <use xlink:href="#DejaVuSans-65" x="1382.369141"/>
      <use xlink:href="#DejaVuSans-20" x="1443.892578"/>
      <use xlink:href="#DejaVuSans-76" x="1475.679688"/>
      <use xlink:href="#DejaVuSans-65" x="1534.859375"/>
      <use xlink:href="#DejaVuSans-6c" x="1596.382812"/>
      <use xlink:href="#DejaVuSans-6f" x="1624.166016"/>
      <use xlink:href="#DejaVuSans-63" x="1685.347656"/>
      <use xlink:href="#DejaVuSans-69" x="1740.328125"/>
      <use xlink:href="#DejaVuSans-74" x="1768.111328"/>
      <use xlink:href="#DejaVuSans-79" x="1807.320312"/>
      <use xlink:href="#DejaVuSans-20" x="1866.5"/>
      <use xlink:href="#DejaVuSans-26" x="1898.287109"/>
      <use xlink:href="#DejaVuSans-20" x="1976.265625"/>
      <use xlink:href="#DejaVuSans-61" x="2008.052734"/>
      <use xlink:href="#DejaVuSans-63" x="2069.332031"/>
      <use xlink:href="#DejaVuSans-63" x="2124.3125"/>
      <use xlink:href="#DejaVuSans-65" x="2179.292969"/>
      <use xlink:href="#DejaVuSans-6c" x="2240.816406"/>
      <use xlink:href="#DejaVuSans-65" x="2268.599609"/>
      <use xlink:href="#DejaVuSans-72" x="2330.123047"/>
      <use xlink:href="#DejaVuSans-61" x="2371.236328"/>
      <use xlink:href="#DejaVuSans-74" x="2432.515625"/>
      <use xlink:href="#DejaVuSans-69" x="2471.724609"/>
      <use xlink:href="#DejaVuSans-6f" x="2499.507812"/>
      <use xlink:href="#DejaVuSans-6e" x="2560.689453"/>
     </g>
    </g>
    <g id="line2d_32">
     <path d="M 808.250625 69.018281 
L 819.250625 69.018281 
L 830.250625 69.018281 
" style="fill: none; stroke: #ff7f0e; stroke-width: 1.5; stroke-linecap: square"/>
    </g>
    <g id="text_19">
     <!-- 5. position only (velocity = acceleration = 0) -->
     <g transform="translate(839.050625 72.868281) scale(0.11 -0.11)">
      <defs>
       <path id="DejaVuSans-3d" d="M 678 2906 
L 4684 2906 
L 4684 2381 
L 678 2381 
L 678 2906 
z
M 678 1631 
L 4684 1631 
L 4684 1100 
L 678 1100 
L 678 1631 
z
" transform="scale(0.015625)"/>
      </defs>
      <use xlink:href="#DejaVuSans-35"/>
      <use xlink:href="#DejaVuSans-2e" x="63.623047"/>
      <use xlink:href="#DejaVuSans-20" x="95.410156"/>
      <use xlink:href="#DejaVuSans-70" x="127.197266"/>
      <use xlink:href="#DejaVuSans-6f" x="190.673828"/>
      <use xlink:href="#DejaVuSans-73" x="251.855469"/>
      <use xlink:href="#DejaVuSans-69" x="303.955078"/>
      <use xlink:href="#DejaVuSans-74" x="331.738281"/>
      <use xlink:href="#DejaVuSans-69" x="370.947266"/>
      <use xlink:href="#DejaVuSans-6f" x="398.730469"/>
      <use xlink:href="#DejaVuSans-6e" x="459.912109"/>
      <use xlink:href="#DejaVuSans-20" x="523.291016"/>
      <use xlink:href="#DejaVuSans-6f" x="555.078125"/>
      <use xlink:href="#DejaVuSans-6e" x="616.259766"/>
      <use xlink:href="#DejaVuSans-6c" x="679.638672"/>
      <use xlink:href="#DejaVuSans-79" x="707.421875"/>
      <use xlink:href="#DejaVuSans-20" x="766.601562"/>
      <use xlink:href="#DejaVuSans-28" x="798.388672"/>
      <use xlink:href="#DejaVuSans-76" x="837.402344"/>
      <use xlink:href="#DejaVuSans-65" x="896.582031"/>
      <use xlink:href="#DejaVuSans-6c" x="958.105469"/>
      <use xlink:href="#DejaVuSans-6f" x="985.888672"/>
      <use xlink:href="#DejaVuSans-63" x="1047.070312"/>
      <use xlink:href="#DejaVuSans-69" x="1102.050781"/>
      <use xlink:href="#DejaVuSans-74" x="1129.833984"/>
      <use xlink:href="#DejaVuSans-79" x="1169.042969"/>
      <use xlink:href="#DejaVuSans-20" x="1228.222656"/>
      <use xlink:href="#DejaVuSans-3d" x="1260.009766"/>
      <use xlink:href="#DejaVuSans-20" x="1343.798828"/>
      <use xlink:href="#DejaVuSans-61" x="1375.585938"/>
      <use xlink:href="#DejaVuSans-63" x="1436.865234"/>
      <use xlink:href="#DejaVuSans-63" x="1491.845703"/>
      <use xlink:href="#DejaVuSans-65" x="1546.826172"/>
      <use xlink:href="#DejaVuSans-6c" x="1608.349609"/>
      <use xlink:href="#DejaVuSans-65" x="1636.132812"/>
      <use xlink:href="#DejaVuSans-72" x="1697.65625"/>
      <use xlink:href="#DejaVuSans-61" x="1738.769531"/>
      <use xlink:href="#DejaVuSans-74" x="1800.048828"/>
      <use xlink:href="#DejaVuSans-69" x="1839.257812"/>
      <use xlink:href="#DejaVuSans-6f" x="1867.041016"/>
      <use xlink:href="#DejaVuSans-6e" x="1928.222656"/>
      <use xlink:href="#DejaVuSans-20" x="1991.601562"/>
      <use xlink:href="#DejaVuSans-3d" x="2023.388672"/>
      <use xlink:href="#DejaVuSans-20" x="2107.177734"/>
      <use xlink:href="#DejaVuSans-30" x="2138.964844"/>
      <use xlink:href="#DejaVuSans-29" x="2202.587891"/>
     </g>
    </g>
   </g>
  </g>
 </g>
 <defs>
  <clipPath id="p22205e8859">
   <rect x="52.160938" y="22.318125" width="1085.44" height="581.08"/>
  </clipPath>
 </defs>
</svg>
